%TF.GenerationSoftware,KiCad,Pcbnew,9.0.2*%
%TF.CreationDate,2025-06-12T16:07:02+02:00*%
%TF.ProjectId,engemil_pmw3901mb,656e6765-6d69-46c5-9f70-6d7733393031,1*%
%TF.SameCoordinates,Original*%
%TF.FileFunction,Paste,Top*%
%TF.FilePolarity,Positive*%
%FSLAX46Y46*%
G04 Gerber Fmt 4.6, Leading zero omitted, Abs format (unit mm)*
G04 Created by KiCad (PCBNEW 9.0.2) date 2025-06-12 16:07:02*
%MOMM*%
%LPD*%
G01*
G04 APERTURE LIST*
%ADD10R,0.612132X1.805236*%
%ADD11R,1.020000X1.470000*%
%ADD12R,1.450000X1.150000*%
%ADD13R,1.150000X1.450000*%
%ADD14R,1.400000X0.950000*%
%ADD15R,1.805236X0.612132*%
%ADD16R,0.406400X0.558800*%
%ADD17R,0.558800X0.406400*%
%ADD18R,2.489200X2.997200*%
G04 APERTURE END LIST*
D10*
%TO.C,U2*%
X140199998Y-114304811D03*
X141149999Y-114304811D03*
X142100000Y-114304811D03*
X142100000Y-112003845D03*
X140199998Y-112003845D03*
%TD*%
D11*
%TO.C,C7*%
X155728445Y-118000000D03*
X157328445Y-118000000D03*
%TD*%
D12*
%TO.C,C3*%
X145822038Y-104696155D03*
X145822038Y-102896155D03*
%TD*%
%TO.C,C4*%
X154000000Y-104500000D03*
X154000000Y-102700000D03*
%TD*%
D13*
%TO.C,C11*%
X150493593Y-107200000D03*
X148693593Y-107200000D03*
%TD*%
D11*
%TO.C,C10*%
X150300000Y-109500000D03*
X148700000Y-109500000D03*
%TD*%
D13*
%TO.C,C5*%
X155700000Y-115496155D03*
X157500000Y-115496155D03*
%TD*%
%TO.C,C6*%
X155700000Y-113000000D03*
X157500000Y-113000000D03*
%TD*%
%TO.C,C1*%
X142100000Y-117804811D03*
X140300000Y-117804811D03*
%TD*%
%TO.C,C9*%
X153022038Y-107200000D03*
X154822038Y-107200000D03*
%TD*%
%TO.C,C2*%
X142000000Y-109003845D03*
X140200000Y-109003845D03*
%TD*%
D14*
%TO.C,R1*%
X144500000Y-112003845D03*
X144500000Y-113903845D03*
%TD*%
D15*
%TO.C,U3*%
X148870589Y-102500000D03*
X148870589Y-103450001D03*
X148870589Y-104400002D03*
X151171555Y-104400002D03*
X151171555Y-102500000D03*
%TD*%
D11*
%TO.C,C8*%
X153222038Y-109500000D03*
X154822038Y-109500000D03*
%TD*%
D16*
%TO.C,U1*%
X151949958Y-112396500D03*
X151299972Y-112396500D03*
X150649986Y-112396500D03*
X150000000Y-112396500D03*
X149350014Y-112396500D03*
X148700028Y-112396500D03*
X148050042Y-112396500D03*
D17*
X147396500Y-113050042D03*
X147396500Y-113700028D03*
X147396500Y-114350014D03*
X147396500Y-115000000D03*
X147396500Y-115649986D03*
X147396500Y-116299972D03*
X147396500Y-116949958D03*
D16*
X148050042Y-117603500D03*
X148700028Y-117603500D03*
X149350014Y-117603500D03*
X150000000Y-117603500D03*
X150649986Y-117603500D03*
X151299972Y-117603500D03*
X151949958Y-117603500D03*
D17*
X152603500Y-116949958D03*
X152603500Y-116299972D03*
X152603500Y-115649986D03*
X152603500Y-115000000D03*
X152603500Y-114350014D03*
X152603500Y-113700028D03*
X152603500Y-113050042D03*
D18*
X150000000Y-115000000D03*
%TD*%
M02*
