M48
; DRILL file {KiCad 9.0.2} date 2025-06-12T16:06:48+0200
; FORMAT={-:-/ absolute / metric / decimal}
; #@! TF.CreationDate,2025-06-12T16:06:48+02:00
; #@! TF.GenerationSoftware,Kicad,Pcbnew,9.0.2
; #@! TF.FileFunction,Plated,1,2,PTH
FMAT,2
METRIC
; #@! TA.AperFunction,Plated,PTH,ViaDrill
T1C0.300
; #@! TA.AperFunction,Plated,PTH,ComponentDrill
T2C1.100
%
G90
G05
T1
X137.0Y-126.5
X137.0Y-127.5
X137.0Y-128.5
X141.0Y-110.5
X141.5Y-120.0
X142.0Y-105.0
X142.5Y-120.0
X143.5Y-105.0
X143.5Y-109.0
X143.5Y-110.5
X143.5Y-116.0
X143.5Y-120.0
X146.0Y-108.5
X146.0Y-117.0
X146.0Y-118.0
X146.0Y-119.0
X146.0Y-120.0
X146.5Y-111.0
X147.0Y-108.5
X147.5Y-111.0
X152.0Y-119.0
X152.5Y-103.5
X152.5Y-105.5
X153.0Y-119.0
X154.0Y-113.5
X154.0Y-115.0
X154.0Y-116.5
X154.0Y-119.0
X155.5Y-104.5
X155.5Y-105.5
X156.0Y-108.5
X158.5Y-104.5
X158.5Y-105.5
X158.5Y-106.5
X159.0Y-114.0
X159.0Y-116.5
X160.0Y-114.0
X160.0Y-116.5
X161.0Y-126.5
X161.0Y-127.5
X161.0Y-128.5
T2
X140.938Y-127.5
X143.478Y-127.5
X146.018Y-127.5
X148.558Y-127.5
X151.098Y-127.5
X153.638Y-127.5
X156.178Y-127.5
X158.718Y-127.5
M30
