%TF.GenerationSoftware,KiCad,Pcbnew,9.0.2*%
%TF.CreationDate,2025-06-12T16:07:02+02:00*%
%TF.ProjectId,engemil_pmw3901mb,656e6765-6d69-46c5-9f70-6d7733393031,1*%
%TF.SameCoordinates,Original*%
%TF.FileFunction,Legend,Bot*%
%TF.FilePolarity,Positive*%
%FSLAX46Y46*%
G04 Gerber Fmt 4.6, Leading zero omitted, Abs format (unit mm)*
G04 Created by KiCad (PCBNEW 9.0.2) date 2025-06-12 16:07:02*
%MOMM*%
%LPD*%
G01*
G04 APERTURE LIST*
%ADD10C,0.200000*%
%ADD11C,0.400000*%
G04 APERTURE END LIST*
D10*
X164725564Y-110306028D02*
X164439850Y-110306028D01*
X164439850Y-110306028D02*
X164296993Y-110377457D01*
X164296993Y-110377457D02*
X164154136Y-110520314D01*
X164154136Y-110520314D02*
X164082707Y-110806028D01*
X164082707Y-110806028D02*
X164082707Y-111306028D01*
X164082707Y-111306028D02*
X164154136Y-111591742D01*
X164154136Y-111591742D02*
X164296993Y-111734600D01*
X164296993Y-111734600D02*
X164439850Y-111806028D01*
X164439850Y-111806028D02*
X164725564Y-111806028D01*
X164725564Y-111806028D02*
X164868422Y-111734600D01*
X164868422Y-111734600D02*
X165011279Y-111591742D01*
X165011279Y-111591742D02*
X165082707Y-111306028D01*
X165082707Y-111306028D02*
X165082707Y-110806028D01*
X165082707Y-110806028D02*
X165011279Y-110520314D01*
X165011279Y-110520314D02*
X164868422Y-110377457D01*
X164868422Y-110377457D02*
X164725564Y-110306028D01*
X163439850Y-110806028D02*
X163439850Y-112306028D01*
X163439850Y-110877457D02*
X163296993Y-110806028D01*
X163296993Y-110806028D02*
X163011278Y-110806028D01*
X163011278Y-110806028D02*
X162868421Y-110877457D01*
X162868421Y-110877457D02*
X162796993Y-110948885D01*
X162796993Y-110948885D02*
X162725564Y-111091742D01*
X162725564Y-111091742D02*
X162725564Y-111520314D01*
X162725564Y-111520314D02*
X162796993Y-111663171D01*
X162796993Y-111663171D02*
X162868421Y-111734600D01*
X162868421Y-111734600D02*
X163011278Y-111806028D01*
X163011278Y-111806028D02*
X163296993Y-111806028D01*
X163296993Y-111806028D02*
X163439850Y-111734600D01*
X162296992Y-110806028D02*
X161725564Y-110806028D01*
X162082707Y-110306028D02*
X162082707Y-111591742D01*
X162082707Y-111591742D02*
X162011278Y-111734600D01*
X162011278Y-111734600D02*
X161868421Y-111806028D01*
X161868421Y-111806028D02*
X161725564Y-111806028D01*
X161225564Y-111806028D02*
X161225564Y-110806028D01*
X161225564Y-110306028D02*
X161296992Y-110377457D01*
X161296992Y-110377457D02*
X161225564Y-110448885D01*
X161225564Y-110448885D02*
X161154135Y-110377457D01*
X161154135Y-110377457D02*
X161225564Y-110306028D01*
X161225564Y-110306028D02*
X161225564Y-110448885D01*
X159868421Y-111734600D02*
X160011278Y-111806028D01*
X160011278Y-111806028D02*
X160296992Y-111806028D01*
X160296992Y-111806028D02*
X160439849Y-111734600D01*
X160439849Y-111734600D02*
X160511278Y-111663171D01*
X160511278Y-111663171D02*
X160582706Y-111520314D01*
X160582706Y-111520314D02*
X160582706Y-111091742D01*
X160582706Y-111091742D02*
X160511278Y-110948885D01*
X160511278Y-110948885D02*
X160439849Y-110877457D01*
X160439849Y-110877457D02*
X160296992Y-110806028D01*
X160296992Y-110806028D02*
X160011278Y-110806028D01*
X160011278Y-110806028D02*
X159868421Y-110877457D01*
X158582707Y-111806028D02*
X158582707Y-111020314D01*
X158582707Y-111020314D02*
X158654135Y-110877457D01*
X158654135Y-110877457D02*
X158796992Y-110806028D01*
X158796992Y-110806028D02*
X159082707Y-110806028D01*
X159082707Y-110806028D02*
X159225564Y-110877457D01*
X158582707Y-111734600D02*
X158725564Y-111806028D01*
X158725564Y-111806028D02*
X159082707Y-111806028D01*
X159082707Y-111806028D02*
X159225564Y-111734600D01*
X159225564Y-111734600D02*
X159296992Y-111591742D01*
X159296992Y-111591742D02*
X159296992Y-111448885D01*
X159296992Y-111448885D02*
X159225564Y-111306028D01*
X159225564Y-111306028D02*
X159082707Y-111234600D01*
X159082707Y-111234600D02*
X158725564Y-111234600D01*
X158725564Y-111234600D02*
X158582707Y-111163171D01*
X157654135Y-111806028D02*
X157796992Y-111734600D01*
X157796992Y-111734600D02*
X157868421Y-111591742D01*
X157868421Y-111591742D02*
X157868421Y-110306028D01*
X155439850Y-111020314D02*
X155939850Y-111020314D01*
X155939850Y-111806028D02*
X155939850Y-110306028D01*
X155939850Y-110306028D02*
X155225564Y-110306028D01*
X154439850Y-111806028D02*
X154582707Y-111734600D01*
X154582707Y-111734600D02*
X154654136Y-111591742D01*
X154654136Y-111591742D02*
X154654136Y-110306028D01*
X153654136Y-111806028D02*
X153796993Y-111734600D01*
X153796993Y-111734600D02*
X153868422Y-111663171D01*
X153868422Y-111663171D02*
X153939850Y-111520314D01*
X153939850Y-111520314D02*
X153939850Y-111091742D01*
X153939850Y-111091742D02*
X153868422Y-110948885D01*
X153868422Y-110948885D02*
X153796993Y-110877457D01*
X153796993Y-110877457D02*
X153654136Y-110806028D01*
X153654136Y-110806028D02*
X153439850Y-110806028D01*
X153439850Y-110806028D02*
X153296993Y-110877457D01*
X153296993Y-110877457D02*
X153225565Y-110948885D01*
X153225565Y-110948885D02*
X153154136Y-111091742D01*
X153154136Y-111091742D02*
X153154136Y-111520314D01*
X153154136Y-111520314D02*
X153225565Y-111663171D01*
X153225565Y-111663171D02*
X153296993Y-111734600D01*
X153296993Y-111734600D02*
X153439850Y-111806028D01*
X153439850Y-111806028D02*
X153654136Y-111806028D01*
X152654136Y-110806028D02*
X152368422Y-111806028D01*
X152368422Y-111806028D02*
X152082707Y-111091742D01*
X152082707Y-111091742D02*
X151796993Y-111806028D01*
X151796993Y-111806028D02*
X151511279Y-110806028D01*
X149868421Y-111734600D02*
X149654136Y-111806028D01*
X149654136Y-111806028D02*
X149296993Y-111806028D01*
X149296993Y-111806028D02*
X149154136Y-111734600D01*
X149154136Y-111734600D02*
X149082707Y-111663171D01*
X149082707Y-111663171D02*
X149011278Y-111520314D01*
X149011278Y-111520314D02*
X149011278Y-111377457D01*
X149011278Y-111377457D02*
X149082707Y-111234600D01*
X149082707Y-111234600D02*
X149154136Y-111163171D01*
X149154136Y-111163171D02*
X149296993Y-111091742D01*
X149296993Y-111091742D02*
X149582707Y-111020314D01*
X149582707Y-111020314D02*
X149725564Y-110948885D01*
X149725564Y-110948885D02*
X149796993Y-110877457D01*
X149796993Y-110877457D02*
X149868421Y-110734600D01*
X149868421Y-110734600D02*
X149868421Y-110591742D01*
X149868421Y-110591742D02*
X149796993Y-110448885D01*
X149796993Y-110448885D02*
X149725564Y-110377457D01*
X149725564Y-110377457D02*
X149582707Y-110306028D01*
X149582707Y-110306028D02*
X149225564Y-110306028D01*
X149225564Y-110306028D02*
X149011278Y-110377457D01*
X147796993Y-111734600D02*
X147939850Y-111806028D01*
X147939850Y-111806028D02*
X148225565Y-111806028D01*
X148225565Y-111806028D02*
X148368422Y-111734600D01*
X148368422Y-111734600D02*
X148439850Y-111591742D01*
X148439850Y-111591742D02*
X148439850Y-111020314D01*
X148439850Y-111020314D02*
X148368422Y-110877457D01*
X148368422Y-110877457D02*
X148225565Y-110806028D01*
X148225565Y-110806028D02*
X147939850Y-110806028D01*
X147939850Y-110806028D02*
X147796993Y-110877457D01*
X147796993Y-110877457D02*
X147725565Y-111020314D01*
X147725565Y-111020314D02*
X147725565Y-111163171D01*
X147725565Y-111163171D02*
X148439850Y-111306028D01*
X147082708Y-110806028D02*
X147082708Y-111806028D01*
X147082708Y-110948885D02*
X147011279Y-110877457D01*
X147011279Y-110877457D02*
X146868422Y-110806028D01*
X146868422Y-110806028D02*
X146654136Y-110806028D01*
X146654136Y-110806028D02*
X146511279Y-110877457D01*
X146511279Y-110877457D02*
X146439851Y-111020314D01*
X146439851Y-111020314D02*
X146439851Y-111806028D01*
X145796993Y-111734600D02*
X145654136Y-111806028D01*
X145654136Y-111806028D02*
X145368422Y-111806028D01*
X145368422Y-111806028D02*
X145225565Y-111734600D01*
X145225565Y-111734600D02*
X145154136Y-111591742D01*
X145154136Y-111591742D02*
X145154136Y-111520314D01*
X145154136Y-111520314D02*
X145225565Y-111377457D01*
X145225565Y-111377457D02*
X145368422Y-111306028D01*
X145368422Y-111306028D02*
X145582708Y-111306028D01*
X145582708Y-111306028D02*
X145725565Y-111234600D01*
X145725565Y-111234600D02*
X145796993Y-111091742D01*
X145796993Y-111091742D02*
X145796993Y-111020314D01*
X145796993Y-111020314D02*
X145725565Y-110877457D01*
X145725565Y-110877457D02*
X145582708Y-110806028D01*
X145582708Y-110806028D02*
X145368422Y-110806028D01*
X145368422Y-110806028D02*
X145225565Y-110877457D01*
X144296993Y-111806028D02*
X144439850Y-111734600D01*
X144439850Y-111734600D02*
X144511279Y-111663171D01*
X144511279Y-111663171D02*
X144582707Y-111520314D01*
X144582707Y-111520314D02*
X144582707Y-111091742D01*
X144582707Y-111091742D02*
X144511279Y-110948885D01*
X144511279Y-110948885D02*
X144439850Y-110877457D01*
X144439850Y-110877457D02*
X144296993Y-110806028D01*
X144296993Y-110806028D02*
X144082707Y-110806028D01*
X144082707Y-110806028D02*
X143939850Y-110877457D01*
X143939850Y-110877457D02*
X143868422Y-110948885D01*
X143868422Y-110948885D02*
X143796993Y-111091742D01*
X143796993Y-111091742D02*
X143796993Y-111520314D01*
X143796993Y-111520314D02*
X143868422Y-111663171D01*
X143868422Y-111663171D02*
X143939850Y-111734600D01*
X143939850Y-111734600D02*
X144082707Y-111806028D01*
X144082707Y-111806028D02*
X144296993Y-111806028D01*
X143154136Y-111806028D02*
X143154136Y-110806028D01*
X143154136Y-111091742D02*
X143082707Y-110948885D01*
X143082707Y-110948885D02*
X143011279Y-110877457D01*
X143011279Y-110877457D02*
X142868421Y-110806028D01*
X142868421Y-110806028D02*
X142725564Y-110806028D01*
X141082708Y-111806028D02*
X141082708Y-110306028D01*
X141082708Y-110306028D02*
X140582708Y-111377457D01*
X140582708Y-111377457D02*
X140082708Y-110306028D01*
X140082708Y-110306028D02*
X140082708Y-111806028D01*
X139154136Y-111806028D02*
X139296993Y-111734600D01*
X139296993Y-111734600D02*
X139368422Y-111663171D01*
X139368422Y-111663171D02*
X139439850Y-111520314D01*
X139439850Y-111520314D02*
X139439850Y-111091742D01*
X139439850Y-111091742D02*
X139368422Y-110948885D01*
X139368422Y-110948885D02*
X139296993Y-110877457D01*
X139296993Y-110877457D02*
X139154136Y-110806028D01*
X139154136Y-110806028D02*
X138939850Y-110806028D01*
X138939850Y-110806028D02*
X138796993Y-110877457D01*
X138796993Y-110877457D02*
X138725565Y-110948885D01*
X138725565Y-110948885D02*
X138654136Y-111091742D01*
X138654136Y-111091742D02*
X138654136Y-111520314D01*
X138654136Y-111520314D02*
X138725565Y-111663171D01*
X138725565Y-111663171D02*
X138796993Y-111734600D01*
X138796993Y-111734600D02*
X138939850Y-111806028D01*
X138939850Y-111806028D02*
X139154136Y-111806028D01*
X137368422Y-111806028D02*
X137368422Y-110306028D01*
X137368422Y-111734600D02*
X137511279Y-111806028D01*
X137511279Y-111806028D02*
X137796993Y-111806028D01*
X137796993Y-111806028D02*
X137939850Y-111734600D01*
X137939850Y-111734600D02*
X138011279Y-111663171D01*
X138011279Y-111663171D02*
X138082707Y-111520314D01*
X138082707Y-111520314D02*
X138082707Y-111091742D01*
X138082707Y-111091742D02*
X138011279Y-110948885D01*
X138011279Y-110948885D02*
X137939850Y-110877457D01*
X137939850Y-110877457D02*
X137796993Y-110806028D01*
X137796993Y-110806028D02*
X137511279Y-110806028D01*
X137511279Y-110806028D02*
X137368422Y-110877457D01*
X136011279Y-110806028D02*
X136011279Y-111806028D01*
X136654136Y-110806028D02*
X136654136Y-111591742D01*
X136654136Y-111591742D02*
X136582707Y-111734600D01*
X136582707Y-111734600D02*
X136439850Y-111806028D01*
X136439850Y-111806028D02*
X136225564Y-111806028D01*
X136225564Y-111806028D02*
X136082707Y-111734600D01*
X136082707Y-111734600D02*
X136011279Y-111663171D01*
X135082707Y-111806028D02*
X135225564Y-111734600D01*
X135225564Y-111734600D02*
X135296993Y-111591742D01*
X135296993Y-111591742D02*
X135296993Y-110306028D01*
X133939850Y-111734600D02*
X134082707Y-111806028D01*
X134082707Y-111806028D02*
X134368422Y-111806028D01*
X134368422Y-111806028D02*
X134511279Y-111734600D01*
X134511279Y-111734600D02*
X134582707Y-111591742D01*
X134582707Y-111591742D02*
X134582707Y-111020314D01*
X134582707Y-111020314D02*
X134511279Y-110877457D01*
X134511279Y-110877457D02*
X134368422Y-110806028D01*
X134368422Y-110806028D02*
X134082707Y-110806028D01*
X134082707Y-110806028D02*
X133939850Y-110877457D01*
X133939850Y-110877457D02*
X133868422Y-111020314D01*
X133868422Y-111020314D02*
X133868422Y-111163171D01*
X133868422Y-111163171D02*
X134582707Y-111306028D01*
X165511279Y-123806028D02*
X165511279Y-122306028D01*
X165511279Y-122306028D02*
X165154136Y-122306028D01*
X165154136Y-122306028D02*
X164939850Y-122377457D01*
X164939850Y-122377457D02*
X164796993Y-122520314D01*
X164796993Y-122520314D02*
X164725564Y-122663171D01*
X164725564Y-122663171D02*
X164654136Y-122948885D01*
X164654136Y-122948885D02*
X164654136Y-123163171D01*
X164654136Y-123163171D02*
X164725564Y-123448885D01*
X164725564Y-123448885D02*
X164796993Y-123591742D01*
X164796993Y-123591742D02*
X164939850Y-123734600D01*
X164939850Y-123734600D02*
X165154136Y-123806028D01*
X165154136Y-123806028D02*
X165511279Y-123806028D01*
X163439850Y-123734600D02*
X163582707Y-123806028D01*
X163582707Y-123806028D02*
X163868422Y-123806028D01*
X163868422Y-123806028D02*
X164011279Y-123734600D01*
X164011279Y-123734600D02*
X164082707Y-123591742D01*
X164082707Y-123591742D02*
X164082707Y-123020314D01*
X164082707Y-123020314D02*
X164011279Y-122877457D01*
X164011279Y-122877457D02*
X163868422Y-122806028D01*
X163868422Y-122806028D02*
X163582707Y-122806028D01*
X163582707Y-122806028D02*
X163439850Y-122877457D01*
X163439850Y-122877457D02*
X163368422Y-123020314D01*
X163368422Y-123020314D02*
X163368422Y-123163171D01*
X163368422Y-123163171D02*
X164082707Y-123306028D01*
X162796993Y-123734600D02*
X162654136Y-123806028D01*
X162654136Y-123806028D02*
X162368422Y-123806028D01*
X162368422Y-123806028D02*
X162225565Y-123734600D01*
X162225565Y-123734600D02*
X162154136Y-123591742D01*
X162154136Y-123591742D02*
X162154136Y-123520314D01*
X162154136Y-123520314D02*
X162225565Y-123377457D01*
X162225565Y-123377457D02*
X162368422Y-123306028D01*
X162368422Y-123306028D02*
X162582708Y-123306028D01*
X162582708Y-123306028D02*
X162725565Y-123234600D01*
X162725565Y-123234600D02*
X162796993Y-123091742D01*
X162796993Y-123091742D02*
X162796993Y-123020314D01*
X162796993Y-123020314D02*
X162725565Y-122877457D01*
X162725565Y-122877457D02*
X162582708Y-122806028D01*
X162582708Y-122806028D02*
X162368422Y-122806028D01*
X162368422Y-122806028D02*
X162225565Y-122877457D01*
X161511279Y-123806028D02*
X161511279Y-122806028D01*
X161511279Y-122306028D02*
X161582707Y-122377457D01*
X161582707Y-122377457D02*
X161511279Y-122448885D01*
X161511279Y-122448885D02*
X161439850Y-122377457D01*
X161439850Y-122377457D02*
X161511279Y-122306028D01*
X161511279Y-122306028D02*
X161511279Y-122448885D01*
X160154136Y-122806028D02*
X160154136Y-124020314D01*
X160154136Y-124020314D02*
X160225564Y-124163171D01*
X160225564Y-124163171D02*
X160296993Y-124234600D01*
X160296993Y-124234600D02*
X160439850Y-124306028D01*
X160439850Y-124306028D02*
X160654136Y-124306028D01*
X160654136Y-124306028D02*
X160796993Y-124234600D01*
X160154136Y-123734600D02*
X160296993Y-123806028D01*
X160296993Y-123806028D02*
X160582707Y-123806028D01*
X160582707Y-123806028D02*
X160725564Y-123734600D01*
X160725564Y-123734600D02*
X160796993Y-123663171D01*
X160796993Y-123663171D02*
X160868421Y-123520314D01*
X160868421Y-123520314D02*
X160868421Y-123091742D01*
X160868421Y-123091742D02*
X160796993Y-122948885D01*
X160796993Y-122948885D02*
X160725564Y-122877457D01*
X160725564Y-122877457D02*
X160582707Y-122806028D01*
X160582707Y-122806028D02*
X160296993Y-122806028D01*
X160296993Y-122806028D02*
X160154136Y-122877457D01*
X159439850Y-122806028D02*
X159439850Y-123806028D01*
X159439850Y-122948885D02*
X159368421Y-122877457D01*
X159368421Y-122877457D02*
X159225564Y-122806028D01*
X159225564Y-122806028D02*
X159011278Y-122806028D01*
X159011278Y-122806028D02*
X158868421Y-122877457D01*
X158868421Y-122877457D02*
X158796993Y-123020314D01*
X158796993Y-123020314D02*
X158796993Y-123806028D01*
X157511278Y-123734600D02*
X157654135Y-123806028D01*
X157654135Y-123806028D02*
X157939850Y-123806028D01*
X157939850Y-123806028D02*
X158082707Y-123734600D01*
X158082707Y-123734600D02*
X158154135Y-123591742D01*
X158154135Y-123591742D02*
X158154135Y-123020314D01*
X158154135Y-123020314D02*
X158082707Y-122877457D01*
X158082707Y-122877457D02*
X157939850Y-122806028D01*
X157939850Y-122806028D02*
X157654135Y-122806028D01*
X157654135Y-122806028D02*
X157511278Y-122877457D01*
X157511278Y-122877457D02*
X157439850Y-123020314D01*
X157439850Y-123020314D02*
X157439850Y-123163171D01*
X157439850Y-123163171D02*
X158154135Y-123306028D01*
X156154136Y-123806028D02*
X156154136Y-122306028D01*
X156154136Y-123734600D02*
X156296993Y-123806028D01*
X156296993Y-123806028D02*
X156582707Y-123806028D01*
X156582707Y-123806028D02*
X156725564Y-123734600D01*
X156725564Y-123734600D02*
X156796993Y-123663171D01*
X156796993Y-123663171D02*
X156868421Y-123520314D01*
X156868421Y-123520314D02*
X156868421Y-123091742D01*
X156868421Y-123091742D02*
X156796993Y-122948885D01*
X156796993Y-122948885D02*
X156725564Y-122877457D01*
X156725564Y-122877457D02*
X156582707Y-122806028D01*
X156582707Y-122806028D02*
X156296993Y-122806028D01*
X156296993Y-122806028D02*
X156154136Y-122877457D01*
X154296993Y-123806028D02*
X154296993Y-122306028D01*
X154296993Y-122877457D02*
X154154136Y-122806028D01*
X154154136Y-122806028D02*
X153868421Y-122806028D01*
X153868421Y-122806028D02*
X153725564Y-122877457D01*
X153725564Y-122877457D02*
X153654136Y-122948885D01*
X153654136Y-122948885D02*
X153582707Y-123091742D01*
X153582707Y-123091742D02*
X153582707Y-123520314D01*
X153582707Y-123520314D02*
X153654136Y-123663171D01*
X153654136Y-123663171D02*
X153725564Y-123734600D01*
X153725564Y-123734600D02*
X153868421Y-123806028D01*
X153868421Y-123806028D02*
X154154136Y-123806028D01*
X154154136Y-123806028D02*
X154296993Y-123734600D01*
X153082707Y-122806028D02*
X152725564Y-123806028D01*
X152368421Y-122806028D02*
X152725564Y-123806028D01*
X152725564Y-123806028D02*
X152868421Y-124163171D01*
X152868421Y-124163171D02*
X152939850Y-124234600D01*
X152939850Y-124234600D02*
X153082707Y-124306028D01*
X150654136Y-123020314D02*
X150154136Y-123020314D01*
X149939850Y-123806028D02*
X150654136Y-123806028D01*
X150654136Y-123806028D02*
X150654136Y-122306028D01*
X150654136Y-122306028D02*
X149939850Y-122306028D01*
X149296993Y-122806028D02*
X149296993Y-123806028D01*
X149296993Y-122948885D02*
X149225564Y-122877457D01*
X149225564Y-122877457D02*
X149082707Y-122806028D01*
X149082707Y-122806028D02*
X148868421Y-122806028D01*
X148868421Y-122806028D02*
X148725564Y-122877457D01*
X148725564Y-122877457D02*
X148654136Y-123020314D01*
X148654136Y-123020314D02*
X148654136Y-123806028D01*
X147296993Y-122806028D02*
X147296993Y-124020314D01*
X147296993Y-124020314D02*
X147368421Y-124163171D01*
X147368421Y-124163171D02*
X147439850Y-124234600D01*
X147439850Y-124234600D02*
X147582707Y-124306028D01*
X147582707Y-124306028D02*
X147796993Y-124306028D01*
X147796993Y-124306028D02*
X147939850Y-124234600D01*
X147296993Y-123734600D02*
X147439850Y-123806028D01*
X147439850Y-123806028D02*
X147725564Y-123806028D01*
X147725564Y-123806028D02*
X147868421Y-123734600D01*
X147868421Y-123734600D02*
X147939850Y-123663171D01*
X147939850Y-123663171D02*
X148011278Y-123520314D01*
X148011278Y-123520314D02*
X148011278Y-123091742D01*
X148011278Y-123091742D02*
X147939850Y-122948885D01*
X147939850Y-122948885D02*
X147868421Y-122877457D01*
X147868421Y-122877457D02*
X147725564Y-122806028D01*
X147725564Y-122806028D02*
X147439850Y-122806028D01*
X147439850Y-122806028D02*
X147296993Y-122877457D01*
X146582707Y-123020314D02*
X146082707Y-123020314D01*
X145868421Y-123806028D02*
X146582707Y-123806028D01*
X146582707Y-123806028D02*
X146582707Y-122306028D01*
X146582707Y-122306028D02*
X145868421Y-122306028D01*
X145225564Y-123806028D02*
X145225564Y-122806028D01*
X145225564Y-122948885D02*
X145154135Y-122877457D01*
X145154135Y-122877457D02*
X145011278Y-122806028D01*
X145011278Y-122806028D02*
X144796992Y-122806028D01*
X144796992Y-122806028D02*
X144654135Y-122877457D01*
X144654135Y-122877457D02*
X144582707Y-123020314D01*
X144582707Y-123020314D02*
X144582707Y-123806028D01*
X144582707Y-123020314D02*
X144511278Y-122877457D01*
X144511278Y-122877457D02*
X144368421Y-122806028D01*
X144368421Y-122806028D02*
X144154135Y-122806028D01*
X144154135Y-122806028D02*
X144011278Y-122877457D01*
X144011278Y-122877457D02*
X143939849Y-123020314D01*
X143939849Y-123020314D02*
X143939849Y-123806028D01*
X143225564Y-123806028D02*
X143225564Y-122806028D01*
X143225564Y-122306028D02*
X143296992Y-122377457D01*
X143296992Y-122377457D02*
X143225564Y-122448885D01*
X143225564Y-122448885D02*
X143154135Y-122377457D01*
X143154135Y-122377457D02*
X143225564Y-122306028D01*
X143225564Y-122306028D02*
X143225564Y-122448885D01*
X142296992Y-123806028D02*
X142439849Y-123734600D01*
X142439849Y-123734600D02*
X142511278Y-123591742D01*
X142511278Y-123591742D02*
X142511278Y-122306028D01*
X141725564Y-123663171D02*
X141654135Y-123734600D01*
X141654135Y-123734600D02*
X141725564Y-123806028D01*
X141725564Y-123806028D02*
X141796992Y-123734600D01*
X141796992Y-123734600D02*
X141725564Y-123663171D01*
X141725564Y-123663171D02*
X141725564Y-123806028D01*
X141011278Y-123806028D02*
X141011278Y-122806028D01*
X141011278Y-122306028D02*
X141082706Y-122377457D01*
X141082706Y-122377457D02*
X141011278Y-122448885D01*
X141011278Y-122448885D02*
X140939849Y-122377457D01*
X140939849Y-122377457D02*
X141011278Y-122306028D01*
X141011278Y-122306028D02*
X141011278Y-122448885D01*
X140082706Y-123806028D02*
X140225563Y-123734600D01*
X140225563Y-123734600D02*
X140296992Y-123663171D01*
X140296992Y-123663171D02*
X140368420Y-123520314D01*
X140368420Y-123520314D02*
X140368420Y-123091742D01*
X140368420Y-123091742D02*
X140296992Y-122948885D01*
X140296992Y-122948885D02*
X140225563Y-122877457D01*
X140225563Y-122877457D02*
X140082706Y-122806028D01*
X140082706Y-122806028D02*
X139868420Y-122806028D01*
X139868420Y-122806028D02*
X139725563Y-122877457D01*
X139725563Y-122877457D02*
X139654135Y-122948885D01*
X139654135Y-122948885D02*
X139582706Y-123091742D01*
X139582706Y-123091742D02*
X139582706Y-123520314D01*
X139582706Y-123520314D02*
X139654135Y-123663171D01*
X139654135Y-123663171D02*
X139725563Y-123734600D01*
X139725563Y-123734600D02*
X139868420Y-123806028D01*
X139868420Y-123806028D02*
X140082706Y-123806028D01*
X137368420Y-124377457D02*
X137439849Y-124377457D01*
X137439849Y-124377457D02*
X137582706Y-124306028D01*
X137582706Y-124306028D02*
X137654135Y-124163171D01*
X137654135Y-124163171D02*
X137654135Y-123448885D01*
X137654135Y-123448885D02*
X137725563Y-123306028D01*
X137725563Y-123306028D02*
X137868420Y-123234600D01*
X137868420Y-123234600D02*
X137725563Y-123163171D01*
X137725563Y-123163171D02*
X137654135Y-123020314D01*
X137654135Y-123020314D02*
X137654135Y-122306028D01*
X137654135Y-122306028D02*
X137582706Y-122163171D01*
X137582706Y-122163171D02*
X137439849Y-122091742D01*
X137439849Y-122091742D02*
X137368420Y-122091742D01*
X136796992Y-123020314D02*
X136296992Y-123020314D01*
X136082706Y-123806028D02*
X136796992Y-123806028D01*
X136796992Y-123806028D02*
X136796992Y-122306028D01*
X136796992Y-122306028D02*
X136082706Y-122306028D01*
X135439849Y-123020314D02*
X134939849Y-123020314D01*
X134725563Y-123806028D02*
X135439849Y-123806028D01*
X135439849Y-123806028D02*
X135439849Y-122306028D01*
X135439849Y-122306028D02*
X134725563Y-122306028D01*
X134225563Y-124377457D02*
X134154134Y-124377457D01*
X134154134Y-124377457D02*
X134011277Y-124306028D01*
X134011277Y-124306028D02*
X133939849Y-124163171D01*
X133939849Y-124163171D02*
X133939849Y-123448885D01*
X133939849Y-123448885D02*
X133868420Y-123306028D01*
X133868420Y-123306028D02*
X133725563Y-123234600D01*
X133725563Y-123234600D02*
X133868420Y-123163171D01*
X133868420Y-123163171D02*
X133939849Y-123020314D01*
X133939849Y-123020314D02*
X133939849Y-122306028D01*
X133939849Y-122306028D02*
X134011277Y-122163171D01*
X134011277Y-122163171D02*
X134154134Y-122091742D01*
X134154134Y-122091742D02*
X134225563Y-122091742D01*
D11*
X161739347Y-114972533D02*
X163263157Y-114972533D01*
X164215537Y-114401104D02*
X165739347Y-114972533D01*
X165739347Y-114972533D02*
X164215537Y-115543961D01*
D10*
X164011279Y-108020314D02*
X163511279Y-108020314D01*
X163296993Y-108806028D02*
X164011279Y-108806028D01*
X164011279Y-108806028D02*
X164011279Y-107306028D01*
X164011279Y-107306028D02*
X163296993Y-107306028D01*
X162654136Y-107806028D02*
X162654136Y-108806028D01*
X162654136Y-107948885D02*
X162582707Y-107877457D01*
X162582707Y-107877457D02*
X162439850Y-107806028D01*
X162439850Y-107806028D02*
X162225564Y-107806028D01*
X162225564Y-107806028D02*
X162082707Y-107877457D01*
X162082707Y-107877457D02*
X162011279Y-108020314D01*
X162011279Y-108020314D02*
X162011279Y-108806028D01*
X160654136Y-107806028D02*
X160654136Y-109020314D01*
X160654136Y-109020314D02*
X160725564Y-109163171D01*
X160725564Y-109163171D02*
X160796993Y-109234600D01*
X160796993Y-109234600D02*
X160939850Y-109306028D01*
X160939850Y-109306028D02*
X161154136Y-109306028D01*
X161154136Y-109306028D02*
X161296993Y-109234600D01*
X160654136Y-108734600D02*
X160796993Y-108806028D01*
X160796993Y-108806028D02*
X161082707Y-108806028D01*
X161082707Y-108806028D02*
X161225564Y-108734600D01*
X161225564Y-108734600D02*
X161296993Y-108663171D01*
X161296993Y-108663171D02*
X161368421Y-108520314D01*
X161368421Y-108520314D02*
X161368421Y-108091742D01*
X161368421Y-108091742D02*
X161296993Y-107948885D01*
X161296993Y-107948885D02*
X161225564Y-107877457D01*
X161225564Y-107877457D02*
X161082707Y-107806028D01*
X161082707Y-107806028D02*
X160796993Y-107806028D01*
X160796993Y-107806028D02*
X160654136Y-107877457D01*
X159939850Y-108020314D02*
X159439850Y-108020314D01*
X159225564Y-108806028D02*
X159939850Y-108806028D01*
X159939850Y-108806028D02*
X159939850Y-107306028D01*
X159939850Y-107306028D02*
X159225564Y-107306028D01*
X158582707Y-108806028D02*
X158582707Y-107806028D01*
X158582707Y-107948885D02*
X158511278Y-107877457D01*
X158511278Y-107877457D02*
X158368421Y-107806028D01*
X158368421Y-107806028D02*
X158154135Y-107806028D01*
X158154135Y-107806028D02*
X158011278Y-107877457D01*
X158011278Y-107877457D02*
X157939850Y-108020314D01*
X157939850Y-108020314D02*
X157939850Y-108806028D01*
X157939850Y-108020314D02*
X157868421Y-107877457D01*
X157868421Y-107877457D02*
X157725564Y-107806028D01*
X157725564Y-107806028D02*
X157511278Y-107806028D01*
X157511278Y-107806028D02*
X157368421Y-107877457D01*
X157368421Y-107877457D02*
X157296992Y-108020314D01*
X157296992Y-108020314D02*
X157296992Y-108806028D01*
X156582707Y-108806028D02*
X156582707Y-107806028D01*
X156582707Y-107306028D02*
X156654135Y-107377457D01*
X156654135Y-107377457D02*
X156582707Y-107448885D01*
X156582707Y-107448885D02*
X156511278Y-107377457D01*
X156511278Y-107377457D02*
X156582707Y-107306028D01*
X156582707Y-107306028D02*
X156582707Y-107448885D01*
X155654135Y-108806028D02*
X155796992Y-108734600D01*
X155796992Y-108734600D02*
X155868421Y-108591742D01*
X155868421Y-108591742D02*
X155868421Y-107306028D01*
X153939850Y-108806028D02*
X153939850Y-107306028D01*
X153939850Y-107306028D02*
X153368421Y-107306028D01*
X153368421Y-107306028D02*
X153225564Y-107377457D01*
X153225564Y-107377457D02*
X153154135Y-107448885D01*
X153154135Y-107448885D02*
X153082707Y-107591742D01*
X153082707Y-107591742D02*
X153082707Y-107806028D01*
X153082707Y-107806028D02*
X153154135Y-107948885D01*
X153154135Y-107948885D02*
X153225564Y-108020314D01*
X153225564Y-108020314D02*
X153368421Y-108091742D01*
X153368421Y-108091742D02*
X153939850Y-108091742D01*
X152439850Y-108806028D02*
X152439850Y-107306028D01*
X152439850Y-107306028D02*
X151939850Y-108377457D01*
X151939850Y-108377457D02*
X151439850Y-107306028D01*
X151439850Y-107306028D02*
X151439850Y-108806028D01*
X150868421Y-107306028D02*
X150511278Y-108806028D01*
X150511278Y-108806028D02*
X150225564Y-107734600D01*
X150225564Y-107734600D02*
X149939849Y-108806028D01*
X149939849Y-108806028D02*
X149582707Y-107306028D01*
X149154135Y-107306028D02*
X148225563Y-107306028D01*
X148225563Y-107306028D02*
X148725563Y-107877457D01*
X148725563Y-107877457D02*
X148511278Y-107877457D01*
X148511278Y-107877457D02*
X148368421Y-107948885D01*
X148368421Y-107948885D02*
X148296992Y-108020314D01*
X148296992Y-108020314D02*
X148225563Y-108163171D01*
X148225563Y-108163171D02*
X148225563Y-108520314D01*
X148225563Y-108520314D02*
X148296992Y-108663171D01*
X148296992Y-108663171D02*
X148368421Y-108734600D01*
X148368421Y-108734600D02*
X148511278Y-108806028D01*
X148511278Y-108806028D02*
X148939849Y-108806028D01*
X148939849Y-108806028D02*
X149082706Y-108734600D01*
X149082706Y-108734600D02*
X149154135Y-108663171D01*
X147511278Y-108806028D02*
X147225564Y-108806028D01*
X147225564Y-108806028D02*
X147082707Y-108734600D01*
X147082707Y-108734600D02*
X147011278Y-108663171D01*
X147011278Y-108663171D02*
X146868421Y-108448885D01*
X146868421Y-108448885D02*
X146796992Y-108163171D01*
X146796992Y-108163171D02*
X146796992Y-107591742D01*
X146796992Y-107591742D02*
X146868421Y-107448885D01*
X146868421Y-107448885D02*
X146939850Y-107377457D01*
X146939850Y-107377457D02*
X147082707Y-107306028D01*
X147082707Y-107306028D02*
X147368421Y-107306028D01*
X147368421Y-107306028D02*
X147511278Y-107377457D01*
X147511278Y-107377457D02*
X147582707Y-107448885D01*
X147582707Y-107448885D02*
X147654135Y-107591742D01*
X147654135Y-107591742D02*
X147654135Y-107948885D01*
X147654135Y-107948885D02*
X147582707Y-108091742D01*
X147582707Y-108091742D02*
X147511278Y-108163171D01*
X147511278Y-108163171D02*
X147368421Y-108234600D01*
X147368421Y-108234600D02*
X147082707Y-108234600D01*
X147082707Y-108234600D02*
X146939850Y-108163171D01*
X146939850Y-108163171D02*
X146868421Y-108091742D01*
X146868421Y-108091742D02*
X146796992Y-107948885D01*
X145868421Y-107306028D02*
X145725564Y-107306028D01*
X145725564Y-107306028D02*
X145582707Y-107377457D01*
X145582707Y-107377457D02*
X145511279Y-107448885D01*
X145511279Y-107448885D02*
X145439850Y-107591742D01*
X145439850Y-107591742D02*
X145368421Y-107877457D01*
X145368421Y-107877457D02*
X145368421Y-108234600D01*
X145368421Y-108234600D02*
X145439850Y-108520314D01*
X145439850Y-108520314D02*
X145511279Y-108663171D01*
X145511279Y-108663171D02*
X145582707Y-108734600D01*
X145582707Y-108734600D02*
X145725564Y-108806028D01*
X145725564Y-108806028D02*
X145868421Y-108806028D01*
X145868421Y-108806028D02*
X146011279Y-108734600D01*
X146011279Y-108734600D02*
X146082707Y-108663171D01*
X146082707Y-108663171D02*
X146154136Y-108520314D01*
X146154136Y-108520314D02*
X146225564Y-108234600D01*
X146225564Y-108234600D02*
X146225564Y-107877457D01*
X146225564Y-107877457D02*
X146154136Y-107591742D01*
X146154136Y-107591742D02*
X146082707Y-107448885D01*
X146082707Y-107448885D02*
X146011279Y-107377457D01*
X146011279Y-107377457D02*
X145868421Y-107306028D01*
X143939850Y-108806028D02*
X144796993Y-108806028D01*
X144368422Y-108806028D02*
X144368422Y-107306028D01*
X144368422Y-107306028D02*
X144511279Y-107520314D01*
X144511279Y-107520314D02*
X144654136Y-107663171D01*
X144654136Y-107663171D02*
X144796993Y-107734600D01*
X143296994Y-108806028D02*
X143296994Y-107306028D01*
X143296994Y-107306028D02*
X142796994Y-108377457D01*
X142796994Y-108377457D02*
X142296994Y-107306028D01*
X142296994Y-107306028D02*
X142296994Y-108806028D01*
X141082708Y-108020314D02*
X140868422Y-108091742D01*
X140868422Y-108091742D02*
X140796993Y-108163171D01*
X140796993Y-108163171D02*
X140725565Y-108306028D01*
X140725565Y-108306028D02*
X140725565Y-108520314D01*
X140725565Y-108520314D02*
X140796993Y-108663171D01*
X140796993Y-108663171D02*
X140868422Y-108734600D01*
X140868422Y-108734600D02*
X141011279Y-108806028D01*
X141011279Y-108806028D02*
X141582708Y-108806028D01*
X141582708Y-108806028D02*
X141582708Y-107306028D01*
X141582708Y-107306028D02*
X141082708Y-107306028D01*
X141082708Y-107306028D02*
X140939851Y-107377457D01*
X140939851Y-107377457D02*
X140868422Y-107448885D01*
X140868422Y-107448885D02*
X140796993Y-107591742D01*
X140796993Y-107591742D02*
X140796993Y-107734600D01*
X140796993Y-107734600D02*
X140868422Y-107877457D01*
X140868422Y-107877457D02*
X140939851Y-107948885D01*
X140939851Y-107948885D02*
X141082708Y-108020314D01*
X141082708Y-108020314D02*
X141582708Y-108020314D01*
X139082708Y-107806028D02*
X138725565Y-108806028D01*
X138725565Y-108806028D02*
X138368422Y-107806028D01*
X137011279Y-108806028D02*
X137868422Y-108806028D01*
X137439851Y-108806028D02*
X137439851Y-107306028D01*
X137439851Y-107306028D02*
X137582708Y-107520314D01*
X137582708Y-107520314D02*
X137725565Y-107663171D01*
X137725565Y-107663171D02*
X137868422Y-107734600D01*
X136368423Y-108663171D02*
X136296994Y-108734600D01*
X136296994Y-108734600D02*
X136368423Y-108806028D01*
X136368423Y-108806028D02*
X136439851Y-108734600D01*
X136439851Y-108734600D02*
X136368423Y-108663171D01*
X136368423Y-108663171D02*
X136368423Y-108806028D01*
X135368422Y-107306028D02*
X135225565Y-107306028D01*
X135225565Y-107306028D02*
X135082708Y-107377457D01*
X135082708Y-107377457D02*
X135011280Y-107448885D01*
X135011280Y-107448885D02*
X134939851Y-107591742D01*
X134939851Y-107591742D02*
X134868422Y-107877457D01*
X134868422Y-107877457D02*
X134868422Y-108234600D01*
X134868422Y-108234600D02*
X134939851Y-108520314D01*
X134939851Y-108520314D02*
X135011280Y-108663171D01*
X135011280Y-108663171D02*
X135082708Y-108734600D01*
X135082708Y-108734600D02*
X135225565Y-108806028D01*
X135225565Y-108806028D02*
X135368422Y-108806028D01*
X135368422Y-108806028D02*
X135511280Y-108734600D01*
X135511280Y-108734600D02*
X135582708Y-108663171D01*
X135582708Y-108663171D02*
X135654137Y-108520314D01*
X135654137Y-108520314D02*
X135725565Y-108234600D01*
X135725565Y-108234600D02*
X135725565Y-107877457D01*
X135725565Y-107877457D02*
X135654137Y-107591742D01*
X135654137Y-107591742D02*
X135582708Y-107448885D01*
X135582708Y-107448885D02*
X135511280Y-107377457D01*
X135511280Y-107377457D02*
X135368422Y-107306028D01*
D11*
X134239347Y-114972533D02*
X135763157Y-114972533D01*
X136715537Y-114401104D02*
X138239347Y-114972533D01*
X138239347Y-114972533D02*
X136715537Y-115543961D01*
M02*
