M48
; DRILL file {KiCad 9.0.2} date 2025-06-24T18:36:40+0200
; FORMAT={-:-/ absolute / metric / decimal}
; #@! TF.CreationDate,2025-06-24T18:36:40+02:00
; #@! TF.GenerationSoftware,Kicad,Pcbnew,9.0.2
; #@! TF.FileFunction,Plated,1,2,PTH
FMAT,2
METRIC
; #@! TA.AperFunction,Plated,PTH,ViaDrill
T1C0.300
; #@! TA.AperFunction,Plated,PTH,ComponentDrill
T2C1.100
%
G90
G05
T1
X137.5Y-124.5
X137.5Y-125.25
X137.5Y-126.0
X144.75Y-113.5
X144.75Y-114.5
X144.75Y-115.5
X144.75Y-117.75
X145.25Y-107.0
X145.25Y-109.0
X146.35Y-122.0
X146.5Y-112.5
X146.5Y-113.5
X146.5Y-114.5
X146.5Y-116.103
X146.5Y-117.0
X148.25Y-118.75
X149.231Y-117.15
X149.75Y-121.5
X150.25Y-103.85
X150.25Y-117.0
X150.75Y-110.0
X151.5Y-119.5
X152.0Y-117.25
X152.0Y-118.25
X152.75Y-119.5
X153.0Y-104.75
X153.0Y-105.5
X153.0Y-116.25
X154.5Y-112.25
X154.5Y-113.5
X154.5Y-114.75
X156.25Y-114.25
X158.25Y-105.0
X158.25Y-107.0
X158.25Y-109.0
X161.5Y-124.5
X161.5Y-125.25
X161.5Y-126.0
T2
X141.36Y-125.25
X143.9Y-125.25
X146.44Y-125.25
X148.98Y-125.25
X151.52Y-125.25
X154.06Y-125.25
X156.6Y-125.25
X159.14Y-125.25
M30
