%TF.GenerationSoftware,KiCad,Pcbnew,9.0.2*%
%TF.CreationDate,2025-06-24T18:37:00+02:00*%
%TF.ProjectId,engemil_pmw3901mb,656e6765-6d69-46c5-9f70-6d7733393031,2*%
%TF.SameCoordinates,Original*%
%TF.FileFunction,Paste,Top*%
%TF.FilePolarity,Positive*%
%FSLAX46Y46*%
G04 Gerber Fmt 4.6, Leading zero omitted, Abs format (unit mm)*
G04 Created by KiCad (PCBNEW 9.0.2) date 2025-06-24 18:37:00*
%MOMM*%
%LPD*%
G01*
G04 APERTURE LIST*
%ADD10R,1.805236X0.612132*%
%ADD11R,1.020000X1.470000*%
%ADD12R,0.406400X0.558800*%
%ADD13R,0.558800X0.406400*%
%ADD14R,2.489200X2.997200*%
%ADD15R,0.950000X1.400000*%
%ADD16R,0.200000X0.600000*%
%ADD17R,1.300000X0.500000*%
%ADD18R,0.400000X1.200000*%
%ADD19R,1.470000X1.020000*%
G04 APERTURE END LIST*
D10*
%TO.C,U4*%
X147099517Y-102900000D03*
X147099517Y-103850001D03*
X147099517Y-104800002D03*
X149400483Y-104800002D03*
X149400483Y-102900000D03*
%TD*%
D11*
%TO.C,C4*%
X154200000Y-105000000D03*
X155800000Y-105000000D03*
%TD*%
D12*
%TO.C,U1*%
X152199958Y-110896500D03*
X151549972Y-110896500D03*
X150899986Y-110896500D03*
X150250000Y-110896500D03*
X149600014Y-110896500D03*
X148950028Y-110896500D03*
X148300042Y-110896500D03*
D13*
X147646500Y-111550042D03*
X147646500Y-112200028D03*
X147646500Y-112850014D03*
X147646500Y-113500000D03*
X147646500Y-114149986D03*
X147646500Y-114799972D03*
X147646500Y-115449958D03*
D12*
X148300042Y-116103500D03*
X148950028Y-116103500D03*
X149600014Y-116103500D03*
X150250000Y-116103500D03*
X150899986Y-116103500D03*
X151549972Y-116103500D03*
X152199958Y-116103500D03*
D13*
X152853500Y-115449958D03*
X152853500Y-114799972D03*
X152853500Y-114149986D03*
X152853500Y-113500000D03*
X152853500Y-112850014D03*
X152853500Y-112200028D03*
X152853500Y-111550042D03*
D14*
X150250000Y-113500000D03*
%TD*%
D15*
%TO.C,R4*%
X153850000Y-103000000D03*
X155750000Y-103000000D03*
%TD*%
%TO.C,R3*%
X156650000Y-116250000D03*
X154750000Y-116250000D03*
%TD*%
D16*
%TO.C,U2*%
X145950000Y-119750000D03*
X146350000Y-119750000D03*
X146750000Y-119750000D03*
X147150000Y-119750000D03*
X147150000Y-118250000D03*
X146750000Y-118250000D03*
X146350000Y-118250000D03*
X145950000Y-118250000D03*
D17*
X146550000Y-119000000D03*
%TD*%
D15*
%TO.C,R2*%
X156650000Y-118250000D03*
X154750000Y-118250000D03*
%TD*%
D11*
%TO.C,C3*%
X154250000Y-107000000D03*
X155850000Y-107000000D03*
%TD*%
D15*
%TO.C,R1*%
X143800000Y-111000000D03*
X145700000Y-111000000D03*
%TD*%
D18*
%TO.C,U3*%
X142200000Y-115500000D03*
X142850000Y-115500000D03*
X143500000Y-115500000D03*
X143500000Y-113600000D03*
X142850000Y-113600000D03*
X142200000Y-113600000D03*
%TD*%
D19*
%TO.C,C2*%
X151500000Y-104500000D03*
X151500000Y-102900000D03*
%TD*%
D11*
%TO.C,C9*%
X148100000Y-108750000D03*
X146500000Y-108750000D03*
%TD*%
%TO.C,C5*%
X154250000Y-109000000D03*
X155850000Y-109000000D03*
%TD*%
%TO.C,C8*%
X148100000Y-106750000D03*
X146500000Y-106750000D03*
%TD*%
%TO.C,C7*%
X149650000Y-106750000D03*
X151250000Y-106750000D03*
%TD*%
%TO.C,C6*%
X149650000Y-108750000D03*
X151250000Y-108750000D03*
%TD*%
D19*
%TO.C,C1*%
X145000000Y-104500000D03*
X145000000Y-102900000D03*
%TD*%
M02*
