%TF.GenerationSoftware,KiCad,Pcbnew,9.0.2*%
%TF.CreationDate,2025-06-24T18:37:00+02:00*%
%TF.ProjectId,engemil_pmw3901mb,656e6765-6d69-46c5-9f70-6d7733393031,2*%
%TF.SameCoordinates,Original*%
%TF.FileFunction,Copper,L2,Bot*%
%TF.FilePolarity,Positive*%
%FSLAX46Y46*%
G04 Gerber Fmt 4.6, Leading zero omitted, Abs format (unit mm)*
G04 Created by KiCad (PCBNEW 9.0.2) date 2025-06-24 18:37:00*
%MOMM*%
%LPD*%
G01*
G04 APERTURE LIST*
%TA.AperFunction,ComponentPad*%
%ADD10C,1.650000*%
%TD*%
%TA.AperFunction,ViaPad*%
%ADD11C,0.600000*%
%TD*%
%TA.AperFunction,Conductor*%
%ADD12C,0.200000*%
%TD*%
G04 APERTURE END LIST*
D10*
%TO.P,J1,1*%
%TO.N,VCC*%
X141360000Y-125250000D03*
%TO.P,J1,2*%
%TO.N,RESET*%
X143900000Y-125250000D03*
%TO.P,J1,3*%
%TO.N,MOTION*%
X146440000Y-125250000D03*
%TO.P,J1,4*%
%TO.N,MOSI*%
X148980000Y-125250000D03*
%TO.P,J1,5*%
%TO.N,SCLK*%
X151520000Y-125250000D03*
%TO.P,J1,6*%
%TO.N,MISO*%
X154060000Y-125250000D03*
%TO.P,J1,7*%
%TO.N,CS*%
X156600000Y-125250000D03*
%TO.P,J1,8*%
%TO.N,GND*%
X159140000Y-125250000D03*
%TD*%
D11*
%TO.N,GND*%
X161500000Y-124500000D03*
X137500000Y-125250000D03*
X154500000Y-112250000D03*
X154500000Y-113500000D03*
X146500000Y-113500000D03*
X158250000Y-107000000D03*
X151500000Y-119500000D03*
X153000000Y-104750000D03*
X152750000Y-119500000D03*
X154500000Y-114750000D03*
X161500000Y-125250000D03*
X153000000Y-116250000D03*
X144750000Y-113500000D03*
X146500000Y-114500000D03*
X145250000Y-109000000D03*
X137500000Y-126000000D03*
X144750000Y-114500000D03*
X144750000Y-115500000D03*
X146500000Y-112500000D03*
X148250000Y-118750000D03*
X137500000Y-124500000D03*
X158250000Y-105000000D03*
X153000000Y-105500000D03*
X161500000Y-126000000D03*
X150250000Y-103850001D03*
X145250000Y-107000000D03*
X158250000Y-109000000D03*
%TO.N,+3.3V*%
X150750000Y-110000000D03*
X156250000Y-114250000D03*
%TO.N,SCLK*%
X149750000Y-121500000D03*
X152000000Y-118250000D03*
X149231455Y-117150000D03*
%TO.N,MOSI*%
X146500000Y-117000000D03*
%TO.N,RESET*%
X144750000Y-117750000D03*
%TO.N,MISO*%
X152000000Y-117250000D03*
X150250000Y-117000000D03*
%TO.N,MOTION*%
X146500000Y-116103500D03*
X146350000Y-122000000D03*
%TD*%
D12*
%TO.N,+3.3V*%
X156250000Y-114250000D02*
X156250000Y-112750000D01*
X153500000Y-110000000D02*
X150750000Y-110000000D01*
X156250000Y-112750000D02*
X153500000Y-110000000D01*
%TO.N,SCLK*%
X149250000Y-117168545D02*
X149250000Y-119250000D01*
X149231455Y-117150000D02*
X149250000Y-117168545D01*
X149250000Y-119250000D02*
X149750000Y-119750000D01*
X149750000Y-119750000D02*
X151250000Y-118250000D01*
X149750000Y-119750000D02*
X149750000Y-121500000D01*
X151250000Y-118250000D02*
X152000000Y-118250000D01*
%TO.N,MOSI*%
X148980000Y-123730000D02*
X148980000Y-125250000D01*
X146500000Y-117000000D02*
X147250000Y-117750000D01*
X147250000Y-117750000D02*
X147250000Y-122000000D01*
X147250000Y-122000000D02*
X148980000Y-123730000D01*
%TO.N,RESET*%
X143900000Y-125250000D02*
X143900000Y-118600000D01*
X143900000Y-118600000D02*
X144750000Y-117750000D01*
%TO.N,MISO*%
X152500000Y-117250000D02*
X154060000Y-118810000D01*
X154060000Y-118810000D02*
X154060000Y-125250000D01*
X150250000Y-117000000D02*
X150500000Y-117250000D01*
X150500000Y-117250000D02*
X152000000Y-117250000D01*
X152000000Y-117250000D02*
X152500000Y-117250000D01*
%TO.N,MOTION*%
X146350000Y-117850000D02*
X146350000Y-122000000D01*
X145500000Y-116250000D02*
X145500000Y-117000000D01*
X145646500Y-116103500D02*
X145500000Y-116250000D01*
X145500000Y-117000000D02*
X146350000Y-117850000D01*
X146500000Y-116103500D02*
X145646500Y-116103500D01*
%TD*%
%TA.AperFunction,Conductor*%
%TO.N,GND*%
G36*
X164959858Y-100520185D02*
G01*
X164999699Y-100561629D01*
X165232880Y-100958036D01*
X165250000Y-101020907D01*
X165250000Y-126208280D01*
X165233662Y-126269801D01*
X164995251Y-126687021D01*
X164944899Y-126735461D01*
X164887589Y-126749500D01*
X159595709Y-126749500D01*
X159528670Y-126729815D01*
X159482915Y-126677011D01*
X159472971Y-126607853D01*
X159501996Y-126544297D01*
X159557391Y-126507569D01*
X159648625Y-126477924D01*
X159834451Y-126383240D01*
X159883818Y-126347372D01*
X159883818Y-126347371D01*
X159310234Y-125773787D01*
X159352292Y-125762518D01*
X159477708Y-125690110D01*
X159580110Y-125587708D01*
X159652518Y-125462292D01*
X159663787Y-125420234D01*
X160237371Y-125993818D01*
X160237372Y-125993818D01*
X160273240Y-125944451D01*
X160367924Y-125758627D01*
X160432373Y-125560272D01*
X160465000Y-125354279D01*
X160465000Y-125145720D01*
X160432373Y-124939727D01*
X160367924Y-124741372D01*
X160273244Y-124555556D01*
X160273236Y-124555543D01*
X160237372Y-124506180D01*
X160237371Y-124506179D01*
X159663787Y-125079764D01*
X159652518Y-125037708D01*
X159580110Y-124912292D01*
X159477708Y-124809890D01*
X159352292Y-124737482D01*
X159310233Y-124726212D01*
X159883819Y-124152627D01*
X159834451Y-124116759D01*
X159648627Y-124022075D01*
X159450272Y-123957626D01*
X159244279Y-123925000D01*
X159035721Y-123925000D01*
X158829727Y-123957626D01*
X158631372Y-124022075D01*
X158445552Y-124116757D01*
X158396180Y-124152627D01*
X158969766Y-124726212D01*
X158927708Y-124737482D01*
X158802292Y-124809890D01*
X158699890Y-124912292D01*
X158627482Y-125037708D01*
X158616212Y-125079765D01*
X158042627Y-124506180D01*
X158006755Y-124555555D01*
X157980765Y-124606563D01*
X157932790Y-124657358D01*
X157864969Y-124674153D01*
X157798834Y-124651615D01*
X157759796Y-124606561D01*
X157733671Y-124555287D01*
X157692791Y-124499022D01*
X157611035Y-124386495D01*
X157463505Y-124238965D01*
X157294714Y-124116330D01*
X157268199Y-124102820D01*
X157108820Y-124021612D01*
X156910389Y-123957137D01*
X156704324Y-123924500D01*
X156704319Y-123924500D01*
X156495681Y-123924500D01*
X156495676Y-123924500D01*
X156289610Y-123957137D01*
X156091179Y-124021612D01*
X155905285Y-124116330D01*
X155736493Y-124238966D01*
X155588966Y-124386493D01*
X155466330Y-124555285D01*
X155440485Y-124606010D01*
X155392510Y-124656806D01*
X155324690Y-124673601D01*
X155258555Y-124651064D01*
X155219515Y-124606010D01*
X155217610Y-124602271D01*
X155193670Y-124555286D01*
X155071035Y-124386495D01*
X154923505Y-124238965D01*
X154754714Y-124116330D01*
X154754705Y-124116325D01*
X154754700Y-124116322D01*
X154728202Y-124102820D01*
X154677407Y-124054844D01*
X154660500Y-123992337D01*
X154660500Y-118730945D01*
X154660500Y-118730943D01*
X154638677Y-118649499D01*
X154619577Y-118578215D01*
X154563902Y-118481784D01*
X154540520Y-118441284D01*
X154428716Y-118329480D01*
X154428713Y-118329478D01*
X152987590Y-116888355D01*
X152987588Y-116888352D01*
X152868717Y-116769481D01*
X152868716Y-116769480D01*
X152781904Y-116719360D01*
X152781904Y-116719359D01*
X152781900Y-116719358D01*
X152731785Y-116690423D01*
X152579061Y-116649500D01*
X152579054Y-116649498D01*
X152570997Y-116648438D01*
X152571188Y-116646981D01*
X152512725Y-116629814D01*
X152510873Y-116628601D01*
X152379185Y-116540609D01*
X152379172Y-116540602D01*
X152233501Y-116480264D01*
X152233489Y-116480261D01*
X152078845Y-116449500D01*
X152078842Y-116449500D01*
X151921158Y-116449500D01*
X151921155Y-116449500D01*
X151766510Y-116480261D01*
X151766498Y-116480264D01*
X151620827Y-116540602D01*
X151620814Y-116540609D01*
X151489125Y-116628602D01*
X151422447Y-116649480D01*
X151420234Y-116649500D01*
X151044836Y-116649500D01*
X150977797Y-116629815D01*
X150941734Y-116594391D01*
X150871789Y-116489710D01*
X150760292Y-116378213D01*
X150760288Y-116378210D01*
X150629185Y-116290609D01*
X150629172Y-116290602D01*
X150483501Y-116230264D01*
X150483489Y-116230261D01*
X150328845Y-116199500D01*
X150328842Y-116199500D01*
X150171158Y-116199500D01*
X150171155Y-116199500D01*
X150016510Y-116230261D01*
X150016498Y-116230264D01*
X149870827Y-116290602D01*
X149870814Y-116290609D01*
X149739714Y-116378208D01*
X149739708Y-116378213D01*
X149716368Y-116401552D01*
X149655044Y-116435035D01*
X149585352Y-116430048D01*
X149581238Y-116428429D01*
X149464956Y-116380264D01*
X149464944Y-116380261D01*
X149310300Y-116349500D01*
X149310297Y-116349500D01*
X149152613Y-116349500D01*
X149152610Y-116349500D01*
X148997965Y-116380261D01*
X148997953Y-116380264D01*
X148852282Y-116440602D01*
X148852269Y-116440609D01*
X148721166Y-116528210D01*
X148721162Y-116528213D01*
X148609668Y-116639707D01*
X148609665Y-116639711D01*
X148522064Y-116770814D01*
X148522057Y-116770827D01*
X148461719Y-116916498D01*
X148461716Y-116916510D01*
X148430955Y-117071153D01*
X148430955Y-117228846D01*
X148461716Y-117383489D01*
X148461719Y-117383501D01*
X148522057Y-117529172D01*
X148522064Y-117529185D01*
X148609663Y-117660286D01*
X148609665Y-117660288D01*
X148609666Y-117660289D01*
X148613177Y-117663800D01*
X148646665Y-117725119D01*
X148649500Y-117751485D01*
X148649500Y-119163330D01*
X148649499Y-119163348D01*
X148649499Y-119329054D01*
X148649498Y-119329054D01*
X148690424Y-119481789D01*
X148690425Y-119481790D01*
X148711455Y-119518214D01*
X148711456Y-119518216D01*
X148769475Y-119618709D01*
X148769481Y-119618717D01*
X148881285Y-119730521D01*
X149113181Y-119962416D01*
X149146666Y-120023739D01*
X149149500Y-120050097D01*
X149149500Y-120920234D01*
X149129815Y-120987273D01*
X149128602Y-120989125D01*
X149040609Y-121120814D01*
X149040602Y-121120827D01*
X148980264Y-121266498D01*
X148980261Y-121266510D01*
X148949500Y-121421153D01*
X148949500Y-121578846D01*
X148980261Y-121733489D01*
X148980264Y-121733501D01*
X149040602Y-121879172D01*
X149040609Y-121879185D01*
X149128210Y-122010288D01*
X149128213Y-122010292D01*
X149239707Y-122121786D01*
X149239711Y-122121789D01*
X149370814Y-122209390D01*
X149370827Y-122209397D01*
X149516498Y-122269735D01*
X149516503Y-122269737D01*
X149671153Y-122300499D01*
X149671156Y-122300500D01*
X149671158Y-122300500D01*
X149828844Y-122300500D01*
X149828845Y-122300499D01*
X149983497Y-122269737D01*
X150129179Y-122209394D01*
X150260289Y-122121789D01*
X150371789Y-122010289D01*
X150459394Y-121879179D01*
X150519737Y-121733497D01*
X150550500Y-121578842D01*
X150550500Y-121421158D01*
X150550500Y-121421155D01*
X150550499Y-121421153D01*
X150519738Y-121266510D01*
X150519737Y-121266503D01*
X150519735Y-121266498D01*
X150459397Y-121120827D01*
X150459390Y-121120814D01*
X150371398Y-120989125D01*
X150350520Y-120922447D01*
X150350500Y-120920234D01*
X150350500Y-120050096D01*
X150370185Y-119983057D01*
X150386814Y-119962419D01*
X151410401Y-118938832D01*
X151471722Y-118905349D01*
X151541414Y-118910333D01*
X151566971Y-118923413D01*
X151620814Y-118959390D01*
X151620827Y-118959397D01*
X151766498Y-119019735D01*
X151766503Y-119019737D01*
X151921153Y-119050499D01*
X151921156Y-119050500D01*
X151921158Y-119050500D01*
X152078844Y-119050500D01*
X152078845Y-119050499D01*
X152233497Y-119019737D01*
X152379179Y-118959394D01*
X152510289Y-118871789D01*
X152621789Y-118760289D01*
X152709394Y-118629179D01*
X152709397Y-118629172D01*
X152732263Y-118573969D01*
X152776104Y-118519565D01*
X152842398Y-118497500D01*
X152910097Y-118514779D01*
X152934505Y-118533740D01*
X153423181Y-119022416D01*
X153456666Y-119083739D01*
X153459500Y-119110097D01*
X153459500Y-123992337D01*
X153439815Y-124059376D01*
X153391798Y-124102820D01*
X153365299Y-124116322D01*
X153365290Y-124116327D01*
X153365286Y-124116330D01*
X153196495Y-124238965D01*
X153196493Y-124238967D01*
X153196492Y-124238967D01*
X153048966Y-124386493D01*
X152926330Y-124555285D01*
X152900485Y-124606010D01*
X152852510Y-124656806D01*
X152784690Y-124673601D01*
X152718555Y-124651064D01*
X152679515Y-124606010D01*
X152677610Y-124602271D01*
X152653670Y-124555286D01*
X152531035Y-124386495D01*
X152383505Y-124238965D01*
X152214714Y-124116330D01*
X152188199Y-124102820D01*
X152028820Y-124021612D01*
X151830389Y-123957137D01*
X151624324Y-123924500D01*
X151624319Y-123924500D01*
X151415681Y-123924500D01*
X151415676Y-123924500D01*
X151209610Y-123957137D01*
X151011179Y-124021612D01*
X150825285Y-124116330D01*
X150656493Y-124238966D01*
X150508966Y-124386493D01*
X150386330Y-124555285D01*
X150360485Y-124606010D01*
X150312510Y-124656806D01*
X150244690Y-124673601D01*
X150178555Y-124651064D01*
X150139515Y-124606010D01*
X150137610Y-124602271D01*
X150113670Y-124555286D01*
X149991035Y-124386495D01*
X149843505Y-124238965D01*
X149674714Y-124116330D01*
X149674705Y-124116325D01*
X149674700Y-124116322D01*
X149648202Y-124102820D01*
X149597407Y-124054844D01*
X149580500Y-123992337D01*
X149580500Y-123650945D01*
X149580500Y-123650943D01*
X149539577Y-123498216D01*
X149539573Y-123498209D01*
X149460524Y-123361290D01*
X149460521Y-123361286D01*
X149460520Y-123361284D01*
X149348716Y-123249480D01*
X149348715Y-123249479D01*
X149344385Y-123245149D01*
X149344374Y-123245139D01*
X147886819Y-121787584D01*
X147853334Y-121726261D01*
X147850500Y-121699903D01*
X147850500Y-117670945D01*
X147850500Y-117670943D01*
X147820271Y-117558127D01*
X147809577Y-117518215D01*
X147769904Y-117449500D01*
X147730520Y-117381284D01*
X147618716Y-117269480D01*
X147614385Y-117265149D01*
X147614374Y-117265139D01*
X147334574Y-116985339D01*
X147301089Y-116924016D01*
X147300638Y-116921849D01*
X147270596Y-116770821D01*
X147269737Y-116766503D01*
X147250210Y-116719360D01*
X147209397Y-116620827D01*
X147209393Y-116620820D01*
X147209277Y-116620646D01*
X147209244Y-116620540D01*
X147206521Y-116615446D01*
X147207486Y-116614929D01*
X147188396Y-116553970D01*
X147206877Y-116486589D01*
X147209277Y-116482854D01*
X147209394Y-116482679D01*
X147269737Y-116336997D01*
X147300500Y-116182342D01*
X147300500Y-116024658D01*
X147300500Y-116024655D01*
X147300499Y-116024653D01*
X147289249Y-115968095D01*
X147269737Y-115870003D01*
X147269735Y-115869998D01*
X147209397Y-115724327D01*
X147209390Y-115724314D01*
X147121789Y-115593211D01*
X147121786Y-115593207D01*
X147010292Y-115481713D01*
X147010288Y-115481710D01*
X146879185Y-115394109D01*
X146879172Y-115394102D01*
X146733501Y-115333764D01*
X146733489Y-115333761D01*
X146578845Y-115303000D01*
X146578842Y-115303000D01*
X146421158Y-115303000D01*
X146421155Y-115303000D01*
X146266510Y-115333761D01*
X146266498Y-115333764D01*
X146120827Y-115394102D01*
X146120814Y-115394109D01*
X145989125Y-115482102D01*
X145922447Y-115502980D01*
X145920234Y-115503000D01*
X145725557Y-115503000D01*
X145567442Y-115503000D01*
X145414715Y-115543923D01*
X145414714Y-115543923D01*
X145414712Y-115543924D01*
X145414709Y-115543925D01*
X145364596Y-115572859D01*
X145364595Y-115572860D01*
X145329353Y-115593207D01*
X145277785Y-115622979D01*
X145277782Y-115622981D01*
X145019481Y-115881282D01*
X145019479Y-115881285D01*
X144969361Y-115968094D01*
X144969359Y-115968096D01*
X144940425Y-116018209D01*
X144940424Y-116018210D01*
X144924544Y-116077472D01*
X144899499Y-116170943D01*
X144899499Y-116170945D01*
X144899499Y-116339046D01*
X144899500Y-116339059D01*
X144899500Y-116825500D01*
X144879815Y-116892539D01*
X144827011Y-116938294D01*
X144775500Y-116949500D01*
X144671155Y-116949500D01*
X144516510Y-116980261D01*
X144516498Y-116980264D01*
X144370827Y-117040602D01*
X144370814Y-117040609D01*
X144239711Y-117128210D01*
X144239707Y-117128213D01*
X144128213Y-117239707D01*
X144128210Y-117239711D01*
X144040609Y-117370814D01*
X144040602Y-117370827D01*
X143980264Y-117516498D01*
X143980261Y-117516508D01*
X143949362Y-117671848D01*
X143916977Y-117733759D01*
X143915426Y-117735337D01*
X143531286Y-118119478D01*
X143419481Y-118231282D01*
X143419479Y-118231285D01*
X143369361Y-118318094D01*
X143369359Y-118318096D01*
X143340425Y-118368209D01*
X143340424Y-118368210D01*
X143340423Y-118368215D01*
X143299499Y-118520943D01*
X143299499Y-118520945D01*
X143299499Y-118689046D01*
X143299500Y-118689059D01*
X143299500Y-123992337D01*
X143279815Y-124059376D01*
X143231798Y-124102820D01*
X143205299Y-124116322D01*
X143205290Y-124116327D01*
X143205286Y-124116330D01*
X143036495Y-124238965D01*
X143036493Y-124238967D01*
X143036492Y-124238967D01*
X142888966Y-124386493D01*
X142766330Y-124555285D01*
X142740485Y-124606010D01*
X142692510Y-124656806D01*
X142624690Y-124673601D01*
X142558555Y-124651064D01*
X142519515Y-124606010D01*
X142517610Y-124602271D01*
X142493670Y-124555286D01*
X142371035Y-124386495D01*
X142223505Y-124238965D01*
X142054714Y-124116330D01*
X142028199Y-124102820D01*
X141868820Y-124021612D01*
X141670389Y-123957137D01*
X141464324Y-123924500D01*
X141464319Y-123924500D01*
X141255681Y-123924500D01*
X141255676Y-123924500D01*
X141049610Y-123957137D01*
X140851179Y-124021612D01*
X140665285Y-124116330D01*
X140496493Y-124238966D01*
X140348966Y-124386493D01*
X140226330Y-124555285D01*
X140131612Y-124741179D01*
X140067137Y-124939610D01*
X140034500Y-125145675D01*
X140034500Y-125354324D01*
X140067137Y-125560389D01*
X140131612Y-125758820D01*
X140200485Y-125893990D01*
X140226330Y-125944714D01*
X140348965Y-126113505D01*
X140496495Y-126261035D01*
X140665286Y-126383670D01*
X140753116Y-126428421D01*
X140851179Y-126478387D01*
X140851181Y-126478387D01*
X140851184Y-126478389D01*
X140940991Y-126507569D01*
X140998666Y-126547007D01*
X141025864Y-126611366D01*
X141013949Y-126680212D01*
X140966705Y-126731688D01*
X140902672Y-126749500D01*
X135612411Y-126749500D01*
X135545372Y-126729815D01*
X135504749Y-126687021D01*
X135266338Y-126269801D01*
X135250000Y-126208280D01*
X135250000Y-109921153D01*
X149949500Y-109921153D01*
X149949500Y-110078846D01*
X149980261Y-110233489D01*
X149980264Y-110233501D01*
X150040602Y-110379172D01*
X150040609Y-110379185D01*
X150128210Y-110510288D01*
X150128213Y-110510292D01*
X150239707Y-110621786D01*
X150239711Y-110621789D01*
X150370814Y-110709390D01*
X150370827Y-110709397D01*
X150516498Y-110769735D01*
X150516503Y-110769737D01*
X150671153Y-110800499D01*
X150671156Y-110800500D01*
X150671158Y-110800500D01*
X150828844Y-110800500D01*
X150828845Y-110800499D01*
X150983497Y-110769737D01*
X151129179Y-110709394D01*
X151129185Y-110709390D01*
X151260875Y-110621398D01*
X151327553Y-110600520D01*
X151329766Y-110600500D01*
X153199903Y-110600500D01*
X153266942Y-110620185D01*
X153287584Y-110636819D01*
X155613181Y-112962416D01*
X155646666Y-113023739D01*
X155649500Y-113050097D01*
X155649500Y-113670234D01*
X155629815Y-113737273D01*
X155628602Y-113739125D01*
X155540609Y-113870814D01*
X155540602Y-113870827D01*
X155480264Y-114016498D01*
X155480261Y-114016510D01*
X155449500Y-114171153D01*
X155449500Y-114328846D01*
X155480261Y-114483489D01*
X155480264Y-114483501D01*
X155540602Y-114629172D01*
X155540609Y-114629185D01*
X155628210Y-114760288D01*
X155628213Y-114760292D01*
X155739707Y-114871786D01*
X155739711Y-114871789D01*
X155870814Y-114959390D01*
X155870827Y-114959397D01*
X156016498Y-115019735D01*
X156016503Y-115019737D01*
X156171153Y-115050499D01*
X156171156Y-115050500D01*
X156171158Y-115050500D01*
X156328844Y-115050500D01*
X156328845Y-115050499D01*
X156483497Y-115019737D01*
X156629179Y-114959394D01*
X156760289Y-114871789D01*
X156871789Y-114760289D01*
X156959394Y-114629179D01*
X157019737Y-114483497D01*
X157050500Y-114328842D01*
X157050500Y-114171158D01*
X157050500Y-114171155D01*
X157050499Y-114171153D01*
X157019738Y-114016510D01*
X157019737Y-114016503D01*
X157019735Y-114016498D01*
X156959397Y-113870827D01*
X156959390Y-113870814D01*
X156871398Y-113739125D01*
X156850520Y-113672447D01*
X156850500Y-113670234D01*
X156850500Y-112670945D01*
X156850500Y-112670943D01*
X156809577Y-112518216D01*
X156809577Y-112518215D01*
X156809577Y-112518214D01*
X156780639Y-112468095D01*
X156780637Y-112468092D01*
X156730520Y-112381284D01*
X156618716Y-112269480D01*
X156618715Y-112269479D01*
X156614385Y-112265149D01*
X156614374Y-112265139D01*
X153987590Y-109638355D01*
X153987588Y-109638352D01*
X153868717Y-109519481D01*
X153868716Y-109519480D01*
X153781904Y-109469360D01*
X153781904Y-109469359D01*
X153781900Y-109469358D01*
X153731785Y-109440423D01*
X153579057Y-109399499D01*
X153420943Y-109399499D01*
X153413347Y-109399499D01*
X153413331Y-109399500D01*
X151329766Y-109399500D01*
X151262727Y-109379815D01*
X151260875Y-109378602D01*
X151129185Y-109290609D01*
X151129172Y-109290602D01*
X150983501Y-109230264D01*
X150983489Y-109230261D01*
X150828845Y-109199500D01*
X150828842Y-109199500D01*
X150671158Y-109199500D01*
X150671155Y-109199500D01*
X150516510Y-109230261D01*
X150516498Y-109230264D01*
X150370827Y-109290602D01*
X150370814Y-109290609D01*
X150239711Y-109378210D01*
X150239707Y-109378213D01*
X150128213Y-109489707D01*
X150128210Y-109489711D01*
X150040609Y-109620814D01*
X150040602Y-109620827D01*
X149980264Y-109766498D01*
X149980261Y-109766510D01*
X149949500Y-109921153D01*
X135250000Y-109921153D01*
X135250000Y-101020905D01*
X135267120Y-100958034D01*
X135500300Y-100561629D01*
X135551257Y-100513826D01*
X135607180Y-100500500D01*
X164892819Y-100500500D01*
X164959858Y-100520185D01*
G37*
%TD.AperFunction*%
%TA.AperFunction,Conductor*%
G36*
X158627482Y-125462292D02*
G01*
X158699890Y-125587708D01*
X158802292Y-125690110D01*
X158927708Y-125762518D01*
X158969765Y-125773787D01*
X158396179Y-126347371D01*
X158396180Y-126347372D01*
X158445543Y-126383236D01*
X158445556Y-126383244D01*
X158631374Y-126477924D01*
X158722609Y-126507569D01*
X158780285Y-126547007D01*
X158807483Y-126611365D01*
X158795568Y-126680212D01*
X158748324Y-126731687D01*
X158684291Y-126749500D01*
X157057328Y-126749500D01*
X156990289Y-126729815D01*
X156944534Y-126677011D01*
X156934590Y-126607853D01*
X156963615Y-126544297D01*
X157019009Y-126507569D01*
X157108816Y-126478389D01*
X157294714Y-126383670D01*
X157463505Y-126261035D01*
X157611035Y-126113505D01*
X157733670Y-125944714D01*
X157759796Y-125893437D01*
X157807769Y-125842642D01*
X157875590Y-125825846D01*
X157941725Y-125848383D01*
X157980766Y-125893437D01*
X158006759Y-125944451D01*
X158042627Y-125993818D01*
X158042627Y-125993819D01*
X158616212Y-125420234D01*
X158627482Y-125462292D01*
G37*
%TD.AperFunction*%
%TD*%
M02*
