%TF.GenerationSoftware,KiCad,Pcbnew,9.0.2*%
%TF.CreationDate,2025-06-12T16:07:02+02:00*%
%TF.ProjectId,engemil_pmw3901mb,656e6765-6d69-46c5-9f70-6d7733393031,1*%
%TF.SameCoordinates,Original*%
%TF.FileFunction,Copper,L2,Bot*%
%TF.FilePolarity,Positive*%
%FSLAX46Y46*%
G04 Gerber Fmt 4.6, Leading zero omitted, Abs format (unit mm)*
G04 Created by KiCad (PCBNEW 9.0.2) date 2025-06-12 16:07:02*
%MOMM*%
%LPD*%
G01*
G04 APERTURE LIST*
%TA.AperFunction,ComponentPad*%
%ADD10C,1.650000*%
%TD*%
%TA.AperFunction,ViaPad*%
%ADD11C,0.600000*%
%TD*%
G04 APERTURE END LIST*
D10*
%TO.P,J1,1*%
%TO.N,VCC*%
X140938445Y-127500000D03*
%TO.P,J1,2*%
%TO.N,RESET*%
X143478445Y-127500000D03*
%TO.P,J1,3*%
%TO.N,MOTION*%
X146018445Y-127500000D03*
%TO.P,J1,4*%
%TO.N,MOSI*%
X148558445Y-127500000D03*
%TO.P,J1,5*%
%TO.N,SCLK*%
X151098445Y-127500000D03*
%TO.P,J1,6*%
%TO.N,MISO*%
X153638445Y-127500000D03*
%TO.P,J1,7*%
%TO.N,CS*%
X156178445Y-127500000D03*
%TO.P,J1,8*%
%TO.N,GND*%
X158718445Y-127500000D03*
%TD*%
D11*
%TO.N,GND*%
X158500000Y-106500000D03*
X143500000Y-116000000D03*
X147000000Y-108500000D03*
X159000000Y-114000000D03*
X143500000Y-120000000D03*
X146500000Y-111000000D03*
X143500000Y-105000000D03*
X155500000Y-104500000D03*
X141500000Y-120000000D03*
X158500000Y-105500000D03*
X143500000Y-110500000D03*
X137000000Y-128500000D03*
X154000000Y-119000000D03*
X155500000Y-105500000D03*
X152000000Y-119000000D03*
X154000000Y-113500000D03*
X142500000Y-120000000D03*
X146000000Y-108500000D03*
X143500000Y-109000000D03*
X152500000Y-105500000D03*
X161000000Y-127500000D03*
X137000000Y-127500000D03*
X160000000Y-114000000D03*
X160000000Y-116500000D03*
X158500000Y-104500000D03*
X161000000Y-128500000D03*
X137000000Y-126500000D03*
X146000000Y-119000000D03*
X156000000Y-108500000D03*
X142000000Y-105000000D03*
X146000000Y-117000000D03*
X154000000Y-116500000D03*
X161000000Y-126500000D03*
X146000000Y-120000000D03*
X159000000Y-116500000D03*
X153000000Y-119000000D03*
X152500000Y-103500000D03*
X141000000Y-110500000D03*
X147500000Y-111000000D03*
X146000000Y-118000000D03*
X154000000Y-115000000D03*
%TD*%
%TA.AperFunction,Conductor*%
%TO.N,GND*%
G36*
X159808363Y-100520185D02*
G01*
X159829005Y-100536819D01*
X169599500Y-110307314D01*
X169692686Y-110400500D01*
X169806814Y-110466392D01*
X169934108Y-110500500D01*
X169997128Y-110500500D01*
X170002855Y-110500632D01*
X170409440Y-110519429D01*
X170420837Y-110520485D01*
X170821117Y-110576322D01*
X170832353Y-110578423D01*
X171225776Y-110670955D01*
X171236766Y-110674082D01*
X171619989Y-110802525D01*
X171630643Y-110806653D01*
X172000365Y-110969901D01*
X172010592Y-110974993D01*
X172248010Y-111107234D01*
X172363669Y-111171656D01*
X172373407Y-111177685D01*
X172706830Y-111406084D01*
X172715970Y-111412987D01*
X173026883Y-111671166D01*
X173035347Y-111678882D01*
X173321117Y-111964652D01*
X173328833Y-111973116D01*
X173587012Y-112284029D01*
X173593915Y-112293169D01*
X173822314Y-112626592D01*
X173828343Y-112636330D01*
X174024999Y-112989394D01*
X174030102Y-112999643D01*
X174110250Y-113181161D01*
X174193341Y-113369343D01*
X174197479Y-113380023D01*
X174325913Y-113763220D01*
X174329047Y-113774236D01*
X174421573Y-114167633D01*
X174423678Y-114178892D01*
X174479513Y-114579160D01*
X174480570Y-114590564D01*
X174499235Y-114994273D01*
X174499235Y-115005727D01*
X174480570Y-115409435D01*
X174479513Y-115420839D01*
X174423678Y-115821107D01*
X174421573Y-115832366D01*
X174329047Y-116225763D01*
X174325913Y-116236779D01*
X174197479Y-116619976D01*
X174193341Y-116630656D01*
X174030104Y-117000352D01*
X174024999Y-117010605D01*
X173828343Y-117363669D01*
X173822314Y-117373407D01*
X173593915Y-117706830D01*
X173587012Y-117715970D01*
X173328833Y-118026883D01*
X173321117Y-118035347D01*
X173035347Y-118321117D01*
X173026883Y-118328833D01*
X172715970Y-118587012D01*
X172706830Y-118593915D01*
X172373407Y-118822314D01*
X172363669Y-118828343D01*
X172010605Y-119024999D01*
X172000352Y-119030104D01*
X171630656Y-119193341D01*
X171619976Y-119197479D01*
X171236779Y-119325913D01*
X171225763Y-119329047D01*
X170832366Y-119421573D01*
X170821107Y-119423678D01*
X170420839Y-119479513D01*
X170409435Y-119480570D01*
X170054934Y-119496959D01*
X170053602Y-119497013D01*
X170040759Y-119497468D01*
X170035786Y-119496451D01*
X169987183Y-119499368D01*
X169985670Y-119499422D01*
X169985481Y-119499373D01*
X169981275Y-119499500D01*
X169934107Y-119499500D01*
X169931534Y-119500189D01*
X169931533Y-119500188D01*
X169919413Y-119503435D01*
X169904239Y-119504347D01*
X169855995Y-119520427D01*
X169852407Y-119521389D01*
X169852389Y-119521395D01*
X169816178Y-119531098D01*
X169806814Y-119533608D01*
X169806813Y-119533608D01*
X169806811Y-119533609D01*
X169806804Y-119533612D01*
X169804514Y-119534933D01*
X169804515Y-119534934D01*
X169793639Y-119541212D01*
X169779217Y-119546021D01*
X169736771Y-119574044D01*
X169733539Y-119575911D01*
X169733532Y-119575916D01*
X169692684Y-119599501D01*
X169690802Y-119601383D01*
X169671471Y-119617159D01*
X169669244Y-119618629D01*
X169637947Y-119653921D01*
X169635480Y-119656705D01*
X169599500Y-119692686D01*
X169591896Y-119705855D01*
X169583564Y-119715252D01*
X169583562Y-119715253D01*
X169581809Y-119717229D01*
X169581804Y-119717237D01*
X169560713Y-119759419D01*
X169557193Y-119765961D01*
X169533607Y-119806813D01*
X169533606Y-119806816D01*
X169532919Y-119809382D01*
X169524056Y-119832733D01*
X164724947Y-129430954D01*
X164677360Y-129482113D01*
X164614038Y-129499500D01*
X135385962Y-129499500D01*
X135318923Y-129479815D01*
X135275054Y-129430956D01*
X134257413Y-127395675D01*
X139612945Y-127395675D01*
X139612945Y-127604324D01*
X139645582Y-127810389D01*
X139710057Y-128008820D01*
X139778930Y-128143990D01*
X139804775Y-128194714D01*
X139927410Y-128363505D01*
X140074940Y-128511035D01*
X140243731Y-128633670D01*
X140331561Y-128678421D01*
X140429624Y-128728387D01*
X140429626Y-128728387D01*
X140429629Y-128728389D01*
X140535990Y-128762948D01*
X140628055Y-128792862D01*
X140834121Y-128825500D01*
X140834126Y-128825500D01*
X141042769Y-128825500D01*
X141248834Y-128792862D01*
X141250339Y-128792373D01*
X141447261Y-128728389D01*
X141633159Y-128633670D01*
X141801950Y-128511035D01*
X141949480Y-128363505D01*
X142072115Y-128194714D01*
X142097960Y-128143990D01*
X142145934Y-128093194D01*
X142213755Y-128076398D01*
X142279890Y-128098935D01*
X142318930Y-128143990D01*
X142344773Y-128194712D01*
X142380451Y-128243818D01*
X142467410Y-128363505D01*
X142614940Y-128511035D01*
X142783731Y-128633670D01*
X142871561Y-128678421D01*
X142969624Y-128728387D01*
X142969626Y-128728387D01*
X142969629Y-128728389D01*
X143075990Y-128762948D01*
X143168055Y-128792862D01*
X143374121Y-128825500D01*
X143374126Y-128825500D01*
X143582769Y-128825500D01*
X143788834Y-128792862D01*
X143790339Y-128792373D01*
X143987261Y-128728389D01*
X144173159Y-128633670D01*
X144341950Y-128511035D01*
X144489480Y-128363505D01*
X144612115Y-128194714D01*
X144637960Y-128143990D01*
X144685934Y-128093194D01*
X144753755Y-128076398D01*
X144819890Y-128098935D01*
X144858930Y-128143990D01*
X144884773Y-128194712D01*
X144920451Y-128243818D01*
X145007410Y-128363505D01*
X145154940Y-128511035D01*
X145323731Y-128633670D01*
X145411561Y-128678421D01*
X145509624Y-128728387D01*
X145509626Y-128728387D01*
X145509629Y-128728389D01*
X145615990Y-128762948D01*
X145708055Y-128792862D01*
X145914121Y-128825500D01*
X145914126Y-128825500D01*
X146122769Y-128825500D01*
X146328834Y-128792862D01*
X146330339Y-128792373D01*
X146527261Y-128728389D01*
X146713159Y-128633670D01*
X146881950Y-128511035D01*
X147029480Y-128363505D01*
X147152115Y-128194714D01*
X147177960Y-128143990D01*
X147225934Y-128093194D01*
X147293755Y-128076398D01*
X147359890Y-128098935D01*
X147398930Y-128143990D01*
X147424773Y-128194712D01*
X147460451Y-128243818D01*
X147547410Y-128363505D01*
X147694940Y-128511035D01*
X147863731Y-128633670D01*
X147951561Y-128678421D01*
X148049624Y-128728387D01*
X148049626Y-128728387D01*
X148049629Y-128728389D01*
X148155990Y-128762948D01*
X148248055Y-128792862D01*
X148454121Y-128825500D01*
X148454126Y-128825500D01*
X148662769Y-128825500D01*
X148868834Y-128792862D01*
X148870339Y-128792373D01*
X149067261Y-128728389D01*
X149253159Y-128633670D01*
X149421950Y-128511035D01*
X149569480Y-128363505D01*
X149692115Y-128194714D01*
X149717960Y-128143990D01*
X149765934Y-128093194D01*
X149833755Y-128076398D01*
X149899890Y-128098935D01*
X149938930Y-128143990D01*
X149964773Y-128194712D01*
X150000451Y-128243818D01*
X150087410Y-128363505D01*
X150234940Y-128511035D01*
X150403731Y-128633670D01*
X150491561Y-128678421D01*
X150589624Y-128728387D01*
X150589626Y-128728387D01*
X150589629Y-128728389D01*
X150695990Y-128762948D01*
X150788055Y-128792862D01*
X150994121Y-128825500D01*
X150994126Y-128825500D01*
X151202769Y-128825500D01*
X151408834Y-128792862D01*
X151410339Y-128792373D01*
X151607261Y-128728389D01*
X151793159Y-128633670D01*
X151961950Y-128511035D01*
X152109480Y-128363505D01*
X152232115Y-128194714D01*
X152257960Y-128143990D01*
X152305934Y-128093194D01*
X152373755Y-128076398D01*
X152439890Y-128098935D01*
X152478930Y-128143990D01*
X152504773Y-128194712D01*
X152540451Y-128243818D01*
X152627410Y-128363505D01*
X152774940Y-128511035D01*
X152943731Y-128633670D01*
X153031561Y-128678421D01*
X153129624Y-128728387D01*
X153129626Y-128728387D01*
X153129629Y-128728389D01*
X153235990Y-128762948D01*
X153328055Y-128792862D01*
X153534121Y-128825500D01*
X153534126Y-128825500D01*
X153742769Y-128825500D01*
X153948834Y-128792862D01*
X153950339Y-128792373D01*
X154147261Y-128728389D01*
X154333159Y-128633670D01*
X154501950Y-128511035D01*
X154649480Y-128363505D01*
X154772115Y-128194714D01*
X154797960Y-128143990D01*
X154845934Y-128093194D01*
X154913755Y-128076398D01*
X154979890Y-128098935D01*
X155018930Y-128143990D01*
X155044773Y-128194712D01*
X155080451Y-128243818D01*
X155167410Y-128363505D01*
X155314940Y-128511035D01*
X155483731Y-128633670D01*
X155571561Y-128678421D01*
X155669624Y-128728387D01*
X155669626Y-128728387D01*
X155669629Y-128728389D01*
X155775990Y-128762948D01*
X155868055Y-128792862D01*
X156074121Y-128825500D01*
X156074126Y-128825500D01*
X156282769Y-128825500D01*
X156488834Y-128792862D01*
X156490339Y-128792373D01*
X156687261Y-128728389D01*
X156873159Y-128633670D01*
X157041950Y-128511035D01*
X157189480Y-128363505D01*
X157312115Y-128194714D01*
X157338241Y-128143437D01*
X157386214Y-128092642D01*
X157454035Y-128075846D01*
X157520170Y-128098383D01*
X157559211Y-128143437D01*
X157585204Y-128194451D01*
X157621072Y-128243818D01*
X157621072Y-128243819D01*
X158194657Y-127670234D01*
X158205927Y-127712292D01*
X158278335Y-127837708D01*
X158380737Y-127940110D01*
X158506153Y-128012518D01*
X158548210Y-128023787D01*
X157974624Y-128597371D01*
X157974625Y-128597372D01*
X158023988Y-128633236D01*
X158024001Y-128633244D01*
X158209817Y-128727924D01*
X158408172Y-128792373D01*
X158614166Y-128825000D01*
X158822724Y-128825000D01*
X159028717Y-128792373D01*
X159227072Y-128727924D01*
X159412896Y-128633240D01*
X159462263Y-128597372D01*
X159462263Y-128597371D01*
X158888679Y-128023787D01*
X158930737Y-128012518D01*
X159056153Y-127940110D01*
X159158555Y-127837708D01*
X159230963Y-127712292D01*
X159242232Y-127670234D01*
X159815816Y-128243818D01*
X159815817Y-128243818D01*
X159851685Y-128194451D01*
X159946369Y-128008627D01*
X160010818Y-127810272D01*
X160043445Y-127604279D01*
X160043445Y-127395720D01*
X160010818Y-127189727D01*
X159946369Y-126991372D01*
X159851689Y-126805556D01*
X159851681Y-126805543D01*
X159815817Y-126756180D01*
X159815816Y-126756179D01*
X159242232Y-127329764D01*
X159230963Y-127287708D01*
X159158555Y-127162292D01*
X159056153Y-127059890D01*
X158930737Y-126987482D01*
X158888678Y-126976212D01*
X159462264Y-126402627D01*
X159412896Y-126366759D01*
X159227072Y-126272075D01*
X159028717Y-126207626D01*
X158822724Y-126175000D01*
X158614166Y-126175000D01*
X158408172Y-126207626D01*
X158209817Y-126272075D01*
X158023997Y-126366757D01*
X157974625Y-126402627D01*
X158548211Y-126976212D01*
X158506153Y-126987482D01*
X158380737Y-127059890D01*
X158278335Y-127162292D01*
X158205927Y-127287708D01*
X158194657Y-127329765D01*
X157621072Y-126756180D01*
X157585200Y-126805555D01*
X157559210Y-126856563D01*
X157511235Y-126907358D01*
X157443414Y-126924153D01*
X157377279Y-126901615D01*
X157338241Y-126856561D01*
X157312116Y-126805287D01*
X157271236Y-126749022D01*
X157189480Y-126636495D01*
X157041950Y-126488965D01*
X156873159Y-126366330D01*
X156687265Y-126271612D01*
X156488834Y-126207137D01*
X156282769Y-126174500D01*
X156282764Y-126174500D01*
X156074126Y-126174500D01*
X156074121Y-126174500D01*
X155868055Y-126207137D01*
X155669624Y-126271612D01*
X155483730Y-126366330D01*
X155314938Y-126488966D01*
X155167411Y-126636493D01*
X155044775Y-126805285D01*
X155018930Y-126856010D01*
X154970955Y-126906806D01*
X154903135Y-126923601D01*
X154837000Y-126901064D01*
X154797960Y-126856010D01*
X154796055Y-126852271D01*
X154772115Y-126805286D01*
X154649480Y-126636495D01*
X154501950Y-126488965D01*
X154333159Y-126366330D01*
X154147265Y-126271612D01*
X153948834Y-126207137D01*
X153742769Y-126174500D01*
X153742764Y-126174500D01*
X153534126Y-126174500D01*
X153534121Y-126174500D01*
X153328055Y-126207137D01*
X153129624Y-126271612D01*
X152943730Y-126366330D01*
X152774938Y-126488966D01*
X152627411Y-126636493D01*
X152504775Y-126805285D01*
X152478930Y-126856010D01*
X152430955Y-126906806D01*
X152363135Y-126923601D01*
X152297000Y-126901064D01*
X152257960Y-126856010D01*
X152256055Y-126852271D01*
X152232115Y-126805286D01*
X152109480Y-126636495D01*
X151961950Y-126488965D01*
X151793159Y-126366330D01*
X151607265Y-126271612D01*
X151408834Y-126207137D01*
X151202769Y-126174500D01*
X151202764Y-126174500D01*
X150994126Y-126174500D01*
X150994121Y-126174500D01*
X150788055Y-126207137D01*
X150589624Y-126271612D01*
X150403730Y-126366330D01*
X150234938Y-126488966D01*
X150087411Y-126636493D01*
X149964775Y-126805285D01*
X149938930Y-126856010D01*
X149890955Y-126906806D01*
X149823135Y-126923601D01*
X149757000Y-126901064D01*
X149717960Y-126856010D01*
X149716055Y-126852271D01*
X149692115Y-126805286D01*
X149569480Y-126636495D01*
X149421950Y-126488965D01*
X149253159Y-126366330D01*
X149067265Y-126271612D01*
X148868834Y-126207137D01*
X148662769Y-126174500D01*
X148662764Y-126174500D01*
X148454126Y-126174500D01*
X148454121Y-126174500D01*
X148248055Y-126207137D01*
X148049624Y-126271612D01*
X147863730Y-126366330D01*
X147694938Y-126488966D01*
X147547411Y-126636493D01*
X147424775Y-126805285D01*
X147398930Y-126856010D01*
X147350955Y-126906806D01*
X147283135Y-126923601D01*
X147217000Y-126901064D01*
X147177960Y-126856010D01*
X147176055Y-126852271D01*
X147152115Y-126805286D01*
X147029480Y-126636495D01*
X146881950Y-126488965D01*
X146713159Y-126366330D01*
X146527265Y-126271612D01*
X146328834Y-126207137D01*
X146122769Y-126174500D01*
X146122764Y-126174500D01*
X145914126Y-126174500D01*
X145914121Y-126174500D01*
X145708055Y-126207137D01*
X145509624Y-126271612D01*
X145323730Y-126366330D01*
X145154938Y-126488966D01*
X145007411Y-126636493D01*
X144884775Y-126805285D01*
X144858930Y-126856010D01*
X144810955Y-126906806D01*
X144743135Y-126923601D01*
X144677000Y-126901064D01*
X144637960Y-126856010D01*
X144636055Y-126852271D01*
X144612115Y-126805286D01*
X144489480Y-126636495D01*
X144341950Y-126488965D01*
X144173159Y-126366330D01*
X143987265Y-126271612D01*
X143788834Y-126207137D01*
X143582769Y-126174500D01*
X143582764Y-126174500D01*
X143374126Y-126174500D01*
X143374121Y-126174500D01*
X143168055Y-126207137D01*
X142969624Y-126271612D01*
X142783730Y-126366330D01*
X142614938Y-126488966D01*
X142467411Y-126636493D01*
X142344775Y-126805285D01*
X142318930Y-126856010D01*
X142270955Y-126906806D01*
X142203135Y-126923601D01*
X142137000Y-126901064D01*
X142097960Y-126856010D01*
X142096055Y-126852271D01*
X142072115Y-126805286D01*
X141949480Y-126636495D01*
X141801950Y-126488965D01*
X141633159Y-126366330D01*
X141447265Y-126271612D01*
X141248834Y-126207137D01*
X141042769Y-126174500D01*
X141042764Y-126174500D01*
X140834126Y-126174500D01*
X140834121Y-126174500D01*
X140628055Y-126207137D01*
X140429624Y-126271612D01*
X140243730Y-126366330D01*
X140074938Y-126488966D01*
X139927411Y-126636493D01*
X139804775Y-126805285D01*
X139710057Y-126991179D01*
X139645582Y-127189610D01*
X139612945Y-127395675D01*
X134257413Y-127395675D01*
X130470328Y-119821504D01*
X130466392Y-119806814D01*
X130440947Y-119762742D01*
X130418193Y-119717234D01*
X130408103Y-119705856D01*
X130400500Y-119692686D01*
X130364519Y-119656705D01*
X130330758Y-119618632D01*
X130318066Y-119610252D01*
X130307314Y-119599500D01*
X130263259Y-119574064D01*
X130260155Y-119572015D01*
X130260142Y-119572008D01*
X130220783Y-119546021D01*
X130220779Y-119546019D01*
X130220771Y-119546016D01*
X130218257Y-119545178D01*
X130195489Y-119534937D01*
X130193193Y-119533611D01*
X130193187Y-119533608D01*
X130193186Y-119533608D01*
X130193183Y-119533607D01*
X130193180Y-119533606D01*
X130147618Y-119521397D01*
X130147618Y-119521396D01*
X130144004Y-119520427D01*
X130095761Y-119504347D01*
X130080581Y-119503435D01*
X130068451Y-119500185D01*
X130068450Y-119500184D01*
X130065894Y-119499500D01*
X130065892Y-119499500D01*
X130018725Y-119499500D01*
X130014330Y-119499422D01*
X130012816Y-119499368D01*
X129964214Y-119496451D01*
X129959239Y-119497468D01*
X129946398Y-119497013D01*
X129946193Y-119496945D01*
X129945066Y-119496959D01*
X129590564Y-119480570D01*
X129579160Y-119479513D01*
X129178892Y-119423678D01*
X129167633Y-119421573D01*
X128774236Y-119329047D01*
X128763220Y-119325913D01*
X128581560Y-119265027D01*
X128380021Y-119197478D01*
X128369343Y-119193341D01*
X127999647Y-119030104D01*
X127989399Y-119025001D01*
X127874474Y-118960989D01*
X127636330Y-118828343D01*
X127626592Y-118822314D01*
X127293169Y-118593915D01*
X127284029Y-118587012D01*
X126973116Y-118328833D01*
X126964652Y-118321117D01*
X126678882Y-118035347D01*
X126671166Y-118026883D01*
X126412985Y-117715967D01*
X126406084Y-117706830D01*
X126177685Y-117373407D01*
X126171656Y-117363669D01*
X126127924Y-117285155D01*
X125974993Y-117010592D01*
X125969901Y-117000365D01*
X125806653Y-116630643D01*
X125802525Y-116619989D01*
X125674082Y-116236766D01*
X125670955Y-116225776D01*
X125578423Y-115832353D01*
X125576322Y-115821117D01*
X125520485Y-115420837D01*
X125519429Y-115409435D01*
X125506107Y-115121288D01*
X125500764Y-115005710D01*
X125500764Y-114994289D01*
X125506107Y-114878711D01*
X128149500Y-114878711D01*
X128149500Y-115121288D01*
X128181161Y-115361785D01*
X128243947Y-115596104D01*
X128336773Y-115820205D01*
X128336777Y-115820214D01*
X128343793Y-115832366D01*
X128458064Y-116030289D01*
X128458066Y-116030292D01*
X128458067Y-116030293D01*
X128605733Y-116222736D01*
X128605739Y-116222743D01*
X128777256Y-116394260D01*
X128777262Y-116394265D01*
X128969711Y-116541936D01*
X129179788Y-116663224D01*
X129403900Y-116756054D01*
X129638211Y-116818838D01*
X129818586Y-116842584D01*
X129878711Y-116850500D01*
X129878712Y-116850500D01*
X130121289Y-116850500D01*
X130169388Y-116844167D01*
X130361789Y-116818838D01*
X130596100Y-116756054D01*
X130820212Y-116663224D01*
X131030289Y-116541936D01*
X131222738Y-116394265D01*
X131394265Y-116222738D01*
X131541936Y-116030289D01*
X131663224Y-115820212D01*
X131756054Y-115596100D01*
X131818838Y-115361789D01*
X131850500Y-115121288D01*
X131850500Y-114878712D01*
X131850500Y-114878711D01*
X168149500Y-114878711D01*
X168149500Y-115121288D01*
X168181161Y-115361785D01*
X168243947Y-115596104D01*
X168336773Y-115820205D01*
X168336777Y-115820214D01*
X168343793Y-115832366D01*
X168458064Y-116030289D01*
X168458066Y-116030292D01*
X168458067Y-116030293D01*
X168605733Y-116222736D01*
X168605739Y-116222743D01*
X168777256Y-116394260D01*
X168777262Y-116394265D01*
X168969711Y-116541936D01*
X169179788Y-116663224D01*
X169403900Y-116756054D01*
X169638211Y-116818838D01*
X169818586Y-116842584D01*
X169878711Y-116850500D01*
X169878712Y-116850500D01*
X170121289Y-116850500D01*
X170169388Y-116844167D01*
X170361789Y-116818838D01*
X170596100Y-116756054D01*
X170820212Y-116663224D01*
X171030289Y-116541936D01*
X171222738Y-116394265D01*
X171394265Y-116222738D01*
X171541936Y-116030289D01*
X171663224Y-115820212D01*
X171756054Y-115596100D01*
X171818838Y-115361789D01*
X171850500Y-115121288D01*
X171850500Y-114878712D01*
X171818838Y-114638211D01*
X171756054Y-114403900D01*
X171663224Y-114179788D01*
X171541936Y-113969711D01*
X171394265Y-113777262D01*
X171394260Y-113777256D01*
X171222743Y-113605739D01*
X171222736Y-113605733D01*
X171030293Y-113458067D01*
X171030292Y-113458066D01*
X171030289Y-113458064D01*
X170820212Y-113336776D01*
X170820205Y-113336773D01*
X170596104Y-113243947D01*
X170361785Y-113181161D01*
X170121289Y-113149500D01*
X170121288Y-113149500D01*
X169878712Y-113149500D01*
X169878711Y-113149500D01*
X169638214Y-113181161D01*
X169403895Y-113243947D01*
X169179794Y-113336773D01*
X169179785Y-113336777D01*
X168969706Y-113458067D01*
X168777263Y-113605733D01*
X168777256Y-113605739D01*
X168605739Y-113777256D01*
X168605733Y-113777263D01*
X168458067Y-113969706D01*
X168336777Y-114179785D01*
X168336773Y-114179794D01*
X168243947Y-114403895D01*
X168181161Y-114638214D01*
X168149500Y-114878711D01*
X131850500Y-114878711D01*
X131818838Y-114638211D01*
X131756054Y-114403900D01*
X131663224Y-114179788D01*
X131541936Y-113969711D01*
X131394265Y-113777262D01*
X131394260Y-113777256D01*
X131222743Y-113605739D01*
X131222736Y-113605733D01*
X131030293Y-113458067D01*
X131030292Y-113458066D01*
X131030289Y-113458064D01*
X130820212Y-113336776D01*
X130820205Y-113336773D01*
X130596104Y-113243947D01*
X130361785Y-113181161D01*
X130121289Y-113149500D01*
X130121288Y-113149500D01*
X129878712Y-113149500D01*
X129878711Y-113149500D01*
X129638214Y-113181161D01*
X129403895Y-113243947D01*
X129179794Y-113336773D01*
X129179785Y-113336777D01*
X128969706Y-113458067D01*
X128777263Y-113605733D01*
X128777256Y-113605739D01*
X128605739Y-113777256D01*
X128605733Y-113777263D01*
X128458067Y-113969706D01*
X128336777Y-114179785D01*
X128336773Y-114179794D01*
X128243947Y-114403895D01*
X128181161Y-114638214D01*
X128149500Y-114878711D01*
X125506107Y-114878711D01*
X125519429Y-114590557D01*
X125520486Y-114579160D01*
X125544934Y-114403900D01*
X125576323Y-114178878D01*
X125578422Y-114167649D01*
X125670957Y-113774217D01*
X125674080Y-113763238D01*
X125802527Y-113380002D01*
X125806650Y-113369363D01*
X125969905Y-112999625D01*
X125974988Y-112989416D01*
X126171659Y-112636324D01*
X126177685Y-112626592D01*
X126406094Y-112293154D01*
X126412976Y-112284042D01*
X126671177Y-111973103D01*
X126678871Y-111964663D01*
X126964663Y-111678871D01*
X126973103Y-111671177D01*
X127284042Y-111412976D01*
X127293154Y-111406094D01*
X127626597Y-111177681D01*
X127636324Y-111171659D01*
X127989416Y-110974988D01*
X127999625Y-110969905D01*
X128369363Y-110806650D01*
X128380002Y-110802527D01*
X128763238Y-110674080D01*
X128774217Y-110670957D01*
X129167649Y-110578422D01*
X129178878Y-110576323D01*
X129579164Y-110520485D01*
X129590557Y-110519429D01*
X129997145Y-110500632D01*
X130002872Y-110500500D01*
X130065890Y-110500500D01*
X130065892Y-110500500D01*
X130193186Y-110466392D01*
X130307314Y-110400500D01*
X130400500Y-110307314D01*
X140170995Y-100536819D01*
X140232318Y-100503334D01*
X140258676Y-100500500D01*
X159741324Y-100500500D01*
X159808363Y-100520185D01*
G37*
%TD.AperFunction*%
%TD*%
M02*
