%TF.GenerationSoftware,KiCad,Pcbnew,9.0.2*%
%TF.CreationDate,2025-06-12T16:07:02+02:00*%
%TF.ProjectId,engemil_pmw3901mb,656e6765-6d69-46c5-9f70-6d7733393031,1*%
%TF.SameCoordinates,Original*%
%TF.FileFunction,Copper,L1,Top*%
%TF.FilePolarity,Positive*%
%FSLAX46Y46*%
G04 Gerber Fmt 4.6, Leading zero omitted, Abs format (unit mm)*
G04 Created by KiCad (PCBNEW 9.0.2) date 2025-06-12 16:07:02*
%MOMM*%
%LPD*%
G01*
G04 APERTURE LIST*
%TA.AperFunction,SMDPad,CuDef*%
%ADD10R,0.612132X1.805236*%
%TD*%
%TA.AperFunction,SMDPad,CuDef*%
%ADD11R,1.020000X1.470000*%
%TD*%
%TA.AperFunction,SMDPad,CuDef*%
%ADD12R,1.450000X1.150000*%
%TD*%
%TA.AperFunction,SMDPad,CuDef*%
%ADD13R,1.150000X1.450000*%
%TD*%
%TA.AperFunction,ComponentPad*%
%ADD14C,1.650000*%
%TD*%
%TA.AperFunction,SMDPad,CuDef*%
%ADD15R,1.400000X0.950000*%
%TD*%
%TA.AperFunction,SMDPad,CuDef*%
%ADD16R,1.805236X0.612132*%
%TD*%
%TA.AperFunction,SMDPad,CuDef*%
%ADD17R,0.406400X0.558800*%
%TD*%
%TA.AperFunction,SMDPad,CuDef*%
%ADD18R,0.558800X0.406400*%
%TD*%
%TA.AperFunction,SMDPad,CuDef*%
%ADD19R,2.489200X2.997200*%
%TD*%
%TA.AperFunction,ViaPad*%
%ADD20C,0.600000*%
%TD*%
%TA.AperFunction,Conductor*%
%ADD21C,0.400000*%
%TD*%
%TA.AperFunction,Conductor*%
%ADD22C,0.800000*%
%TD*%
%TA.AperFunction,Conductor*%
%ADD23C,1.200000*%
%TD*%
%TA.AperFunction,Conductor*%
%ADD24C,0.254000*%
%TD*%
G04 APERTURE END LIST*
D10*
%TO.P,U2,1,IN*%
%TO.N,VCC*%
X140199998Y-114304811D03*
%TO.P,U2,2,GND*%
%TO.N,GND*%
X141149999Y-114304811D03*
%TO.P,U2,3,EN*%
%TO.N,VCC*%
X142100000Y-114304811D03*
%TO.P,U2,4,NC*%
%TO.N,GND*%
X142100000Y-112003845D03*
%TO.P,U2,5,OUT*%
%TO.N,+3.3V*%
X140199998Y-112003845D03*
%TD*%
D11*
%TO.P,C7,1,1*%
%TO.N,+1V8*%
X155728445Y-118000000D03*
%TO.P,C7,2,2*%
%TO.N,GND*%
X157328445Y-118000000D03*
%TD*%
D12*
%TO.P,C3,1,1*%
%TO.N,GND*%
X145822038Y-104696155D03*
%TO.P,C3,2,2*%
%TO.N,+3.3V*%
X145822038Y-102896155D03*
%TD*%
%TO.P,C4,1,1*%
%TO.N,GND*%
X154000000Y-104500000D03*
%TO.P,C4,2,2*%
%TO.N,+1V8*%
X154000000Y-102700000D03*
%TD*%
D13*
%TO.P,C11,1,1*%
%TO.N,Net-(U1-VREG)*%
X150493593Y-107200000D03*
%TO.P,C11,2,2*%
%TO.N,GND*%
X148693593Y-107200000D03*
%TD*%
D11*
%TO.P,C10,1,1*%
%TO.N,Net-(U1-VREG)*%
X150300000Y-109500000D03*
%TO.P,C10,2,2*%
%TO.N,GND*%
X148700000Y-109500000D03*
%TD*%
D13*
%TO.P,C5,1,1*%
%TO.N,+1V8*%
X155700000Y-115496155D03*
%TO.P,C5,2,2*%
%TO.N,GND*%
X157500000Y-115496155D03*
%TD*%
%TO.P,C6,1,1*%
%TO.N,+1V8*%
X155700000Y-113000000D03*
%TO.P,C6,2,2*%
%TO.N,GND*%
X157500000Y-113000000D03*
%TD*%
D14*
%TO.P,J1,1*%
%TO.N,VCC*%
X140938445Y-127500000D03*
%TO.P,J1,2*%
%TO.N,RESET*%
X143478445Y-127500000D03*
%TO.P,J1,3*%
%TO.N,MOTION*%
X146018445Y-127500000D03*
%TO.P,J1,4*%
%TO.N,MOSI*%
X148558445Y-127500000D03*
%TO.P,J1,5*%
%TO.N,SCLK*%
X151098445Y-127500000D03*
%TO.P,J1,6*%
%TO.N,MISO*%
X153638445Y-127500000D03*
%TO.P,J1,7*%
%TO.N,CS*%
X156178445Y-127500000D03*
%TO.P,J1,8*%
%TO.N,GND*%
X158718445Y-127500000D03*
%TD*%
D13*
%TO.P,C1,1,1*%
%TO.N,GND*%
X142100000Y-117804811D03*
%TO.P,C1,2,2*%
%TO.N,VCC*%
X140300000Y-117804811D03*
%TD*%
%TO.P,C9,1,1*%
%TO.N,+3.3V*%
X153022038Y-107200000D03*
%TO.P,C9,2,2*%
%TO.N,GND*%
X154822038Y-107200000D03*
%TD*%
%TO.P,C2,1,1*%
%TO.N,GND*%
X142000000Y-109003845D03*
%TO.P,C2,2,2*%
%TO.N,+3.3V*%
X140200000Y-109003845D03*
%TD*%
D15*
%TO.P,R1,1,1*%
%TO.N,+3.3V*%
X144500000Y-112003845D03*
%TO.P,R1,2,2*%
%TO.N,RESET*%
X144500000Y-113903845D03*
%TD*%
D16*
%TO.P,U3,1,IN*%
%TO.N,+3.3V*%
X148870589Y-102500000D03*
%TO.P,U3,2,GND*%
%TO.N,GND*%
X148870589Y-103450001D03*
%TO.P,U3,3,EN*%
%TO.N,+3.3V*%
X148870589Y-104400002D03*
%TO.P,U3,4,NC*%
%TO.N,GND*%
X151171555Y-104400002D03*
%TO.P,U3,5,OUT*%
%TO.N,+1V8*%
X151171555Y-102500000D03*
%TD*%
D11*
%TO.P,C8,1,1*%
%TO.N,+3.3V*%
X153222038Y-109500000D03*
%TO.P,C8,2,2*%
%TO.N,GND*%
X154822038Y-109500000D03*
%TD*%
D17*
%TO.P,U1,1,GND*%
%TO.N,GND*%
X151949958Y-112396500D03*
%TO.P,U1,2,VDD*%
%TO.N,+1V8*%
X151299972Y-112396500D03*
%TO.P,U1,3,VDDIO*%
%TO.N,+3.3V*%
X150649986Y-112396500D03*
%TO.P,U1,4,VREG*%
%TO.N,Net-(U1-VREG)*%
X150000000Y-112396500D03*
%TO.P,U1,5,NC*%
%TO.N,GND*%
X149350014Y-112396500D03*
%TO.P,U1,6,NC*%
X148700028Y-112396500D03*
%TO.P,U1,7,NRESET*%
%TO.N,RESET*%
X148050042Y-112396500D03*
D18*
%TO.P,U1,8,NC*%
%TO.N,GND*%
X147396500Y-113050042D03*
%TO.P,U1,9,NC*%
X147396500Y-113700028D03*
%TO.P,U1,10,NC*%
X147396500Y-114350014D03*
%TO.P,U1,11,NC*%
X147396500Y-115000000D03*
%TO.P,U1,12,NC*%
X147396500Y-115649986D03*
%TO.P,U1,13,NC*%
X147396500Y-116299972D03*
%TO.P,U1,14,NC*%
X147396500Y-116949958D03*
D17*
%TO.P,U1,15,MOTION*%
%TO.N,MOTION*%
X148050042Y-117603500D03*
%TO.P,U1,16,MOSI*%
%TO.N,MOSI*%
X148700028Y-117603500D03*
%TO.P,U1,17,SCLK*%
%TO.N,SCLK*%
X149350014Y-117603500D03*
%TO.P,U1,18,MISO*%
%TO.N,MISO*%
X150000000Y-117603500D03*
%TO.P,U1,19,NCS*%
%TO.N,CS*%
X150649986Y-117603500D03*
%TO.P,U1,20,NC*%
%TO.N,GND*%
X151299972Y-117603500D03*
%TO.P,U1,21,GND*%
X151949958Y-117603500D03*
D18*
%TO.P,U1,22,NC*%
X152603500Y-116949958D03*
%TO.P,U1,23,NC*%
X152603500Y-116299972D03*
%TO.P,U1,24,NC*%
X152603500Y-115649986D03*
%TO.P,U1,25,NC*%
X152603500Y-115000000D03*
%TO.P,U1,26,NC*%
X152603500Y-114350014D03*
%TO.P,U1,27,NC*%
X152603500Y-113700028D03*
%TO.P,U1,28,NC*%
X152603500Y-113050042D03*
D19*
%TO.P,U1,29,GND*%
X150000000Y-115000000D03*
%TD*%
D20*
%TO.N,GND*%
X158500000Y-106500000D03*
X143500000Y-116000000D03*
X147000000Y-108500000D03*
X159000000Y-114000000D03*
X143500000Y-120000000D03*
X146500000Y-111000000D03*
X143500000Y-105000000D03*
X155500000Y-104500000D03*
X141500000Y-120000000D03*
X158500000Y-105500000D03*
X143500000Y-110500000D03*
X137000000Y-128500000D03*
X154000000Y-119000000D03*
X155500000Y-105500000D03*
X152000000Y-119000000D03*
X154000000Y-113500000D03*
X142500000Y-120000000D03*
X146000000Y-108500000D03*
X143500000Y-109000000D03*
X152500000Y-105500000D03*
X161000000Y-127500000D03*
X137000000Y-127500000D03*
X160000000Y-114000000D03*
X160000000Y-116500000D03*
X158500000Y-104500000D03*
X161000000Y-128500000D03*
X137000000Y-126500000D03*
X146000000Y-119000000D03*
X156000000Y-108500000D03*
X142000000Y-105000000D03*
X146000000Y-117000000D03*
X154000000Y-116500000D03*
X161000000Y-126500000D03*
X146000000Y-120000000D03*
X159000000Y-116500000D03*
X153000000Y-119000000D03*
X152500000Y-103500000D03*
X141000000Y-110500000D03*
X147500000Y-111000000D03*
X146000000Y-118000000D03*
X154000000Y-115000000D03*
%TD*%
D21*
%TO.N,VCC*%
X140300000Y-114404813D02*
X140199998Y-114304811D01*
X140199998Y-114800002D02*
X140199998Y-114304811D01*
X142100000Y-114304811D02*
X142100000Y-115854811D01*
X140300000Y-125800000D02*
X140300000Y-117804811D01*
X140199998Y-115800002D02*
X140199998Y-114304811D01*
X139500000Y-117000000D02*
X139500000Y-116500000D01*
X142100000Y-115854811D02*
X140300000Y-117654811D01*
X140938445Y-127500000D02*
X140938445Y-126438445D01*
X140300000Y-117804811D02*
X140300000Y-117800000D01*
X140938445Y-126438445D02*
X140300000Y-125800000D01*
X139500000Y-116500000D02*
X140199998Y-115800002D01*
X140300000Y-117654811D02*
X140300000Y-117804811D01*
X140300000Y-117800000D02*
X139500000Y-117000000D01*
D22*
%TO.N,GND*%
X151354825Y-104400002D02*
X151171555Y-104400002D01*
D21*
X151171555Y-104400002D02*
X151171555Y-103671555D01*
X151923100Y-117576642D02*
X151949958Y-117603500D01*
X147396500Y-116949958D02*
X147423358Y-116923100D01*
X151923100Y-113076900D02*
X151923100Y-112423358D01*
X150000000Y-115000000D02*
X151923100Y-113076900D01*
X150000000Y-115000000D02*
X151923100Y-116923100D01*
D23*
X153599998Y-105500000D02*
X154000000Y-105500000D01*
X154000000Y-105500000D02*
X154000000Y-104500000D01*
D21*
X152603500Y-113050042D02*
X152576642Y-113076900D01*
D23*
X152500000Y-104400002D02*
X153599998Y-105500000D01*
D21*
X149062064Y-113437936D02*
X150000000Y-114375872D01*
X147423358Y-113076900D02*
X148699028Y-113076900D01*
X147396500Y-115000000D02*
X150000000Y-115000000D01*
X151171555Y-103671555D02*
X150950001Y-103450001D01*
X149350014Y-113149986D02*
X149062064Y-113437936D01*
X152546228Y-116299972D02*
X151923100Y-116923100D01*
X147396500Y-113700028D02*
X148700028Y-113700028D01*
X148700028Y-113075900D02*
X148700028Y-112396500D01*
X149350014Y-114350014D02*
X150000000Y-115000000D01*
D24*
X148700028Y-111700028D02*
X148500000Y-111500000D01*
X148700028Y-112396500D02*
X148700028Y-111700028D01*
D21*
X152603500Y-115000000D02*
X150000000Y-115000000D01*
X154000000Y-105500000D02*
X154250000Y-105750000D01*
X152603500Y-115649986D02*
X150649986Y-115649986D01*
X147396500Y-114350014D02*
X149350014Y-114350014D01*
D24*
X149350014Y-112396500D02*
X149350014Y-111850014D01*
D21*
X152603500Y-116299972D02*
X152546228Y-116299972D01*
X151949958Y-116949958D02*
X151923100Y-116923100D01*
X151299972Y-117603500D02*
X151299972Y-116299972D01*
D22*
X152500000Y-105500000D02*
X152454824Y-105500000D01*
D21*
X150000000Y-114375872D02*
X150000000Y-115000000D01*
D22*
X152454824Y-105500000D02*
X151354825Y-104400002D01*
D21*
X152603500Y-116949958D02*
X151949958Y-116949958D01*
X148076900Y-116923100D02*
X150000000Y-115000000D01*
X148700028Y-116299972D02*
X150000000Y-115000000D01*
X147423358Y-116923100D02*
X148076900Y-116923100D01*
X150950001Y-103450001D02*
X148870589Y-103450001D01*
X149350014Y-112396500D02*
X149350014Y-113149986D01*
X149350014Y-115649986D02*
X150000000Y-115000000D01*
X151949958Y-112396500D02*
X152603500Y-112396500D01*
D23*
X152599998Y-104500000D02*
X152500000Y-104400002D01*
D21*
X154250000Y-105750000D02*
X154822038Y-106322038D01*
D22*
X153500000Y-105500000D02*
X152500000Y-105500000D01*
D21*
X147396500Y-116299972D02*
X148700028Y-116299972D01*
X151299972Y-117603500D02*
X151299972Y-118299972D01*
X152576642Y-113076900D02*
X151923100Y-113076900D01*
D23*
X154000000Y-104500000D02*
X152599998Y-104500000D01*
D24*
X149350014Y-111850014D02*
X149000000Y-111500000D01*
D21*
X147396500Y-113050042D02*
X147423358Y-113076900D01*
X151923100Y-116923100D02*
X151923100Y-117576642D01*
X154822038Y-107200000D02*
X154822038Y-109500000D01*
X148699028Y-113076900D02*
X148700028Y-113075900D01*
X150649986Y-115649986D02*
X150000000Y-115000000D01*
X149000000Y-111500000D02*
X148500000Y-111500000D01*
X150649986Y-114350014D02*
X150000000Y-115000000D01*
D22*
X154000000Y-105500000D02*
X153500000Y-105500000D01*
D21*
X152603500Y-114350014D02*
X150649986Y-114350014D01*
X151923100Y-112423358D02*
X151949958Y-112396500D01*
X148700028Y-113700028D02*
X150000000Y-115000000D01*
X151171555Y-104400002D02*
X152500000Y-104400002D01*
X152603500Y-112396500D02*
X153000000Y-112000000D01*
X148700028Y-113075900D02*
X149062064Y-113437936D01*
X147396500Y-115649986D02*
X149350014Y-115649986D01*
X153500000Y-104500000D02*
X154000000Y-104500000D01*
D23*
X152500000Y-104400002D02*
X152500000Y-103500000D01*
D21*
X154822038Y-106322038D02*
X154822038Y-107200000D01*
X151299972Y-116299972D02*
X150000000Y-115000000D01*
X151299972Y-118299972D02*
X151500000Y-118500000D01*
%TO.N,+3.3V*%
X153022038Y-109300000D02*
X153222038Y-109500000D01*
X140200000Y-107200000D02*
X140300000Y-107200000D01*
X144500000Y-108000000D02*
X144500000Y-112003845D01*
X153222038Y-109500000D02*
X152500000Y-109500000D01*
X140199998Y-112003845D02*
X140199998Y-109003847D01*
X147809906Y-104400002D02*
X147500000Y-104090096D01*
X147500000Y-104090096D02*
X147500000Y-103292310D01*
X147500000Y-103292310D02*
X147103845Y-102896155D01*
X148870589Y-104400002D02*
X147809906Y-104400002D01*
X139500000Y-106500000D02*
X139500000Y-105500000D01*
X153022038Y-107200000D02*
X153022038Y-109300000D01*
X141000000Y-106500000D02*
X143000000Y-106500000D01*
X147103845Y-102896155D02*
X147500000Y-102500000D01*
X147500000Y-102500000D02*
X148870589Y-102500000D01*
X143000000Y-106500000D02*
X144500000Y-108000000D01*
X140200000Y-107200000D02*
X139500000Y-106500000D01*
X140200000Y-109003845D02*
X140200000Y-107200000D01*
X149000000Y-105500000D02*
X151322038Y-105500000D01*
X145822038Y-102896155D02*
X147103845Y-102896155D01*
X148870589Y-105370589D02*
X149000000Y-105500000D01*
X140300000Y-107200000D02*
X141000000Y-106500000D01*
X150649986Y-111350014D02*
X150649986Y-112396500D01*
X140199998Y-109003847D02*
X140200000Y-109003845D01*
X139500000Y-105500000D02*
X142103845Y-102896155D01*
X148870589Y-104400002D02*
X148870589Y-105370589D01*
X151322038Y-105500000D02*
X153022038Y-107200000D01*
X152500000Y-109500000D02*
X150649986Y-111350014D01*
X142103845Y-102896155D02*
X145822038Y-102896155D01*
D24*
%TO.N,+1V8*%
X153800000Y-102500000D02*
X154000000Y-102700000D01*
X152261858Y-111000000D02*
X151299972Y-111961886D01*
X155728445Y-115728445D02*
X155728445Y-118000000D01*
X155700000Y-113000000D02*
X155700000Y-115496155D01*
X151299972Y-111961886D02*
X151299972Y-112396500D01*
X155700000Y-115496155D02*
X155700000Y-115700000D01*
X155500000Y-111000000D02*
X152261858Y-111000000D01*
X157000000Y-104000000D02*
X157000000Y-109500000D01*
X155500000Y-111500000D02*
X155700000Y-111700000D01*
X155700000Y-102700000D02*
X157000000Y-104000000D01*
X155500000Y-111000000D02*
X155500000Y-111500000D01*
X157000000Y-109500000D02*
X155500000Y-111000000D01*
X151171555Y-102500000D02*
X153800000Y-102500000D01*
X155700000Y-115700000D02*
X155728445Y-115728445D01*
X155700000Y-111700000D02*
X155700000Y-113000000D01*
X154000000Y-102700000D02*
X155700000Y-102700000D01*
%TO.N,Net-(U1-VREG)*%
X150300000Y-109200000D02*
X150493593Y-109006407D01*
X150300000Y-109500000D02*
X150300000Y-110700000D01*
X150000000Y-111000000D02*
X150000000Y-112396500D01*
X150300000Y-110700000D02*
X150000000Y-111000000D01*
X150300000Y-109500000D02*
X150300000Y-109200000D01*
X150493593Y-109006407D02*
X150493593Y-107200000D01*
%TO.N,CS*%
X150649986Y-121971541D02*
X156178445Y-127500000D01*
X150649986Y-117603500D02*
X150649986Y-121971541D01*
%TO.N,SCLK*%
X149350014Y-125751569D02*
X151098445Y-127500000D01*
X149350014Y-117603500D02*
X149350014Y-125751569D01*
%TO.N,MOSI*%
X148700028Y-118200028D02*
X148558445Y-118341611D01*
X148558445Y-118341611D02*
X148558445Y-127500000D01*
X148700028Y-117603500D02*
X148700028Y-118200028D01*
%TO.N,RESET*%
X143478445Y-126021555D02*
X144500000Y-125000000D01*
X146000000Y-113000000D02*
X146603500Y-112396500D01*
X143478445Y-127500000D02*
X143478445Y-126021555D01*
X146603500Y-112396500D02*
X148050042Y-112396500D01*
X144500000Y-113903845D02*
X145596155Y-113903845D01*
X145596155Y-113903845D02*
X146000000Y-113500000D01*
X146000000Y-113500000D02*
X146000000Y-113000000D01*
X144500000Y-125000000D02*
X144500000Y-113903845D01*
%TO.N,MISO*%
X150000000Y-123861555D02*
X153638445Y-127500000D01*
X150000000Y-117603500D02*
X150000000Y-123861555D01*
%TO.N,MOTION*%
X148050042Y-123949958D02*
X148050042Y-117603500D01*
X146018445Y-127500000D02*
X146018445Y-126018445D01*
X146000000Y-126000000D02*
X148050042Y-123949958D01*
X146018445Y-126018445D02*
X146000000Y-126000000D01*
%TD*%
%TA.AperFunction,Conductor*%
%TO.N,GND*%
G36*
X142725520Y-107220185D02*
G01*
X142746162Y-107236819D01*
X143763181Y-108253837D01*
X143796666Y-108315160D01*
X143799500Y-108341518D01*
X143799500Y-110911868D01*
X143779815Y-110978907D01*
X143727011Y-111024662D01*
X143699865Y-111032111D01*
X143700068Y-111032969D01*
X143692520Y-111034752D01*
X143557671Y-111085047D01*
X143557664Y-111085051D01*
X143442455Y-111171297D01*
X143442452Y-111171300D01*
X143356206Y-111286509D01*
X143356202Y-111286516D01*
X143305908Y-111421362D01*
X143299501Y-111480961D01*
X143299501Y-111480968D01*
X143299500Y-111480980D01*
X143299500Y-112526715D01*
X143299501Y-112526721D01*
X143305908Y-112586328D01*
X143356202Y-112721173D01*
X143356206Y-112721180D01*
X143442452Y-112836389D01*
X143442453Y-112836389D01*
X143442454Y-112836391D01*
X143456415Y-112846842D01*
X143466750Y-112854579D01*
X143508620Y-112910513D01*
X143513604Y-112980205D01*
X143480118Y-113041528D01*
X143466750Y-113053111D01*
X143442452Y-113071300D01*
X143356206Y-113186509D01*
X143356202Y-113186516D01*
X143305908Y-113321362D01*
X143299501Y-113380961D01*
X143299500Y-113380980D01*
X143299500Y-114426715D01*
X143299501Y-114426721D01*
X143305908Y-114486328D01*
X143356202Y-114621173D01*
X143356206Y-114621180D01*
X143442452Y-114736389D01*
X143442455Y-114736392D01*
X143557664Y-114822638D01*
X143557671Y-114822642D01*
X143692516Y-114872936D01*
X143738329Y-114877861D01*
X143752127Y-114879345D01*
X143752136Y-114879344D01*
X143755116Y-114879505D01*
X143821010Y-114902738D01*
X143863882Y-114957908D01*
X143872500Y-115003328D01*
X143872500Y-124688719D01*
X143852815Y-124755758D01*
X143836181Y-124776400D01*
X143078437Y-125534144D01*
X143012589Y-125599992D01*
X142991034Y-125621547D01*
X142922361Y-125724323D01*
X142916717Y-125737949D01*
X142875060Y-125838517D01*
X142875057Y-125838527D01*
X142851566Y-125956627D01*
X142851566Y-125956628D01*
X142850946Y-125959743D01*
X142850945Y-125959756D01*
X142850945Y-126256095D01*
X142831260Y-126323134D01*
X142787329Y-126362882D01*
X142787883Y-126363785D01*
X142783738Y-126366324D01*
X142614938Y-126488966D01*
X142467411Y-126636493D01*
X142344775Y-126805285D01*
X142318930Y-126856010D01*
X142270955Y-126906806D01*
X142203135Y-126923601D01*
X142137000Y-126901064D01*
X142097960Y-126856010D01*
X142096055Y-126852271D01*
X142072115Y-126805286D01*
X141949480Y-126636495D01*
X141801950Y-126488965D01*
X141678456Y-126399240D01*
X141635793Y-126343911D01*
X141629728Y-126323118D01*
X141628248Y-126315677D01*
X141612025Y-126234117D01*
X141610505Y-126230448D01*
X141559222Y-126106637D01*
X141482557Y-125991899D01*
X141036819Y-125546161D01*
X141003334Y-125484838D01*
X141000500Y-125458480D01*
X141000500Y-119103277D01*
X141005097Y-119087618D01*
X141004693Y-119071305D01*
X141014738Y-119054786D01*
X141020185Y-119036238D01*
X141032875Y-119024962D01*
X141040997Y-119011608D01*
X141063058Y-118998145D01*
X141070206Y-118991795D01*
X141075568Y-118989183D01*
X141117331Y-118973607D01*
X141135540Y-118959975D01*
X141146122Y-118954822D01*
X141169425Y-118950879D01*
X141191562Y-118942621D01*
X141203232Y-118945158D01*
X141215012Y-118943166D01*
X141236745Y-118952446D01*
X141259836Y-118957468D01*
X141274729Y-118967039D01*
X141282907Y-118973161D01*
X141417623Y-119023408D01*
X141417627Y-119023409D01*
X141477155Y-119029810D01*
X141477172Y-119029811D01*
X141850000Y-119029811D01*
X142350000Y-119029811D01*
X142722828Y-119029811D01*
X142722844Y-119029810D01*
X142782372Y-119023409D01*
X142782379Y-119023407D01*
X142917086Y-118973165D01*
X142917093Y-118973161D01*
X143032187Y-118887001D01*
X143032190Y-118886998D01*
X143118350Y-118771904D01*
X143118354Y-118771897D01*
X143168596Y-118637190D01*
X143168598Y-118637183D01*
X143174999Y-118577655D01*
X143175000Y-118577638D01*
X143175000Y-118054811D01*
X142350000Y-118054811D01*
X142350000Y-119029811D01*
X141850000Y-119029811D01*
X141850000Y-117928811D01*
X141869685Y-117861772D01*
X141922489Y-117816017D01*
X141974000Y-117804811D01*
X142100000Y-117804811D01*
X142100000Y-117678811D01*
X142119685Y-117611772D01*
X142172489Y-117566017D01*
X142224000Y-117554811D01*
X143175000Y-117554811D01*
X143175000Y-117031983D01*
X143174999Y-117031966D01*
X143168598Y-116972438D01*
X143168596Y-116972431D01*
X143118354Y-116837724D01*
X143118350Y-116837717D01*
X143032190Y-116722623D01*
X143032187Y-116722620D01*
X142917093Y-116636460D01*
X142917086Y-116636456D01*
X142782379Y-116586214D01*
X142782372Y-116586212D01*
X142722844Y-116579811D01*
X142665018Y-116579811D01*
X142597979Y-116560126D01*
X142552224Y-116507322D01*
X142542280Y-116438164D01*
X142571305Y-116374608D01*
X142577337Y-116368130D01*
X142644113Y-116301354D01*
X142660370Y-116277023D01*
X142665715Y-116269026D01*
X142720771Y-116186628D01*
X142720771Y-116186627D01*
X142720775Y-116186622D01*
X142756652Y-116100008D01*
X142773580Y-116059140D01*
X142785894Y-115997232D01*
X142790869Y-115972220D01*
X142800500Y-115923806D01*
X142800500Y-115556970D01*
X142820185Y-115489931D01*
X142825227Y-115482667D01*
X142849862Y-115449760D01*
X142900157Y-115314912D01*
X142906566Y-115255302D01*
X142906565Y-113354321D01*
X142900157Y-113294710D01*
X142884690Y-113253242D01*
X142863693Y-113196945D01*
X142858709Y-113127254D01*
X142863694Y-113110278D01*
X142899661Y-113013846D01*
X142899664Y-113013835D01*
X142906065Y-112954307D01*
X142906066Y-112954290D01*
X142906066Y-112253845D01*
X141293934Y-112253845D01*
X141293934Y-112772193D01*
X141296498Y-112774757D01*
X141317686Y-112784433D01*
X141343038Y-112791878D01*
X141348965Y-112798718D01*
X141357202Y-112802480D01*
X141371491Y-112824714D01*
X141388793Y-112844682D01*
X141391080Y-112855196D01*
X141394976Y-112861258D01*
X141399999Y-112896193D01*
X141399999Y-113051984D01*
X141380314Y-113119023D01*
X141375266Y-113126295D01*
X141350138Y-113159861D01*
X141350136Y-113159864D01*
X141299842Y-113294710D01*
X141295320Y-113336776D01*
X141293434Y-113354320D01*
X141293434Y-114180812D01*
X141290884Y-114189497D01*
X141292173Y-114198458D01*
X141281195Y-114222494D01*
X141273751Y-114247850D01*
X141266908Y-114253778D01*
X141263148Y-114262014D01*
X141240916Y-114276300D01*
X141220947Y-114293605D01*
X141210431Y-114295892D01*
X141204370Y-114299788D01*
X141169435Y-114304811D01*
X141130563Y-114304811D01*
X141063524Y-114285126D01*
X141017769Y-114232322D01*
X141006563Y-114180811D01*
X141006563Y-113354322D01*
X141006562Y-113354316D01*
X141006561Y-113354309D01*
X141000155Y-113294710D01*
X140984688Y-113253242D01*
X140963958Y-113197661D01*
X140958974Y-113127970D01*
X140963958Y-113110995D01*
X141000155Y-113013946D01*
X141006564Y-112954336D01*
X141006563Y-111053382D01*
X141293934Y-111053382D01*
X141293934Y-111753845D01*
X141850000Y-111753845D01*
X142350000Y-111753845D01*
X142906066Y-111753845D01*
X142906066Y-111053399D01*
X142906065Y-111053382D01*
X142899664Y-110993854D01*
X142899662Y-110993847D01*
X142849420Y-110859140D01*
X142849416Y-110859133D01*
X142763256Y-110744039D01*
X142763253Y-110744036D01*
X142648159Y-110657876D01*
X142648152Y-110657872D01*
X142513445Y-110607630D01*
X142513438Y-110607628D01*
X142453910Y-110601227D01*
X142350000Y-110601227D01*
X142350000Y-111753845D01*
X141850000Y-111753845D01*
X141850000Y-110601227D01*
X141746089Y-110601227D01*
X141686561Y-110607628D01*
X141686554Y-110607630D01*
X141551847Y-110657872D01*
X141551840Y-110657876D01*
X141436746Y-110744036D01*
X141436743Y-110744039D01*
X141350583Y-110859133D01*
X141350579Y-110859140D01*
X141300337Y-110993847D01*
X141300335Y-110993854D01*
X141293934Y-111053382D01*
X141006563Y-111053382D01*
X141006563Y-111053355D01*
X141000155Y-110993744D01*
X140994621Y-110978907D01*
X140949861Y-110858898D01*
X140949860Y-110858897D01*
X140949860Y-110858896D01*
X140925230Y-110825994D01*
X140900814Y-110760532D01*
X140900498Y-110751685D01*
X140900498Y-110302311D01*
X140905095Y-110286652D01*
X140904691Y-110270338D01*
X140914736Y-110253819D01*
X140920183Y-110235272D01*
X140932873Y-110223996D01*
X140940996Y-110210641D01*
X140963058Y-110197178D01*
X140970205Y-110190829D01*
X140975566Y-110188217D01*
X141017331Y-110172641D01*
X141035538Y-110159010D01*
X141046123Y-110153856D01*
X141069424Y-110149913D01*
X141091562Y-110141655D01*
X141103233Y-110144193D01*
X141115013Y-110142200D01*
X141136745Y-110151480D01*
X141159836Y-110156502D01*
X141174729Y-110166073D01*
X141182907Y-110172195D01*
X141317623Y-110222442D01*
X141317627Y-110222443D01*
X141377155Y-110228844D01*
X141377172Y-110228845D01*
X141750000Y-110228845D01*
X142250000Y-110228845D01*
X142622828Y-110228845D01*
X142622844Y-110228844D01*
X142682372Y-110222443D01*
X142682379Y-110222441D01*
X142817086Y-110172199D01*
X142817093Y-110172195D01*
X142932187Y-110086035D01*
X142932190Y-110086032D01*
X143018350Y-109970938D01*
X143018354Y-109970931D01*
X143068596Y-109836224D01*
X143068598Y-109836217D01*
X143074999Y-109776689D01*
X143075000Y-109776672D01*
X143075000Y-109253845D01*
X142250000Y-109253845D01*
X142250000Y-110228845D01*
X141750000Y-110228845D01*
X141750000Y-108753845D01*
X142250000Y-108753845D01*
X143075000Y-108753845D01*
X143075000Y-108231017D01*
X143074999Y-108231000D01*
X143068598Y-108171472D01*
X143068596Y-108171465D01*
X143018354Y-108036758D01*
X143018350Y-108036751D01*
X142932190Y-107921657D01*
X142932187Y-107921654D01*
X142817093Y-107835494D01*
X142817086Y-107835490D01*
X142682379Y-107785248D01*
X142682372Y-107785246D01*
X142622844Y-107778845D01*
X142250000Y-107778845D01*
X142250000Y-108753845D01*
X141750000Y-108753845D01*
X141750000Y-107778845D01*
X141377155Y-107778845D01*
X141317627Y-107785246D01*
X141317620Y-107785248D01*
X141182913Y-107835490D01*
X141182912Y-107835491D01*
X141174725Y-107841620D01*
X141109260Y-107866035D01*
X141046122Y-107853833D01*
X141035536Y-107848677D01*
X141017331Y-107835049D01*
X140975573Y-107819474D01*
X140970206Y-107816860D01*
X140948609Y-107797187D01*
X140925232Y-107779687D01*
X140923088Y-107773940D01*
X140918553Y-107769809D01*
X140911020Y-107741583D01*
X140900816Y-107714222D01*
X140900500Y-107705378D01*
X140900500Y-107641518D01*
X140920185Y-107574479D01*
X140936819Y-107553837D01*
X141253837Y-107236819D01*
X141315160Y-107203334D01*
X141341518Y-107200500D01*
X142658481Y-107200500D01*
X142725520Y-107220185D01*
G37*
%TD.AperFunction*%
%TA.AperFunction,Conductor*%
G36*
X144590610Y-103616340D02*
G01*
X144636365Y-103669144D01*
X144639753Y-103677321D01*
X144651594Y-103709070D01*
X144651596Y-103709073D01*
X144653242Y-103713486D01*
X144662318Y-103725610D01*
X144664590Y-103729114D01*
X144673422Y-103758756D01*
X144684228Y-103787726D01*
X144683311Y-103791940D01*
X144684543Y-103796074D01*
X144675949Y-103825779D01*
X144669376Y-103855998D01*
X144665433Y-103862134D01*
X144665127Y-103863192D01*
X144664274Y-103863936D01*
X144659813Y-103870880D01*
X144653684Y-103879067D01*
X144653683Y-103879068D01*
X144603441Y-104013775D01*
X144603439Y-104013782D01*
X144597038Y-104073310D01*
X144597038Y-104446155D01*
X145698038Y-104446155D01*
X145765077Y-104465840D01*
X145810832Y-104518644D01*
X145822038Y-104570155D01*
X145822038Y-104696155D01*
X145948038Y-104696155D01*
X146015077Y-104715840D01*
X146060832Y-104768644D01*
X146072038Y-104820155D01*
X146072038Y-105771155D01*
X146594866Y-105771155D01*
X146594882Y-105771154D01*
X146654410Y-105764753D01*
X146654417Y-105764751D01*
X146789124Y-105714509D01*
X146789131Y-105714505D01*
X146904225Y-105628345D01*
X146904228Y-105628342D01*
X146990388Y-105513248D01*
X146990392Y-105513241D01*
X147040634Y-105378534D01*
X147040636Y-105378527D01*
X147047037Y-105318999D01*
X147047038Y-105318982D01*
X147047038Y-104927153D01*
X147066723Y-104860114D01*
X147119527Y-104814359D01*
X147188685Y-104804415D01*
X147252241Y-104833440D01*
X147258705Y-104839458D01*
X147363363Y-104944116D01*
X147478095Y-105020777D01*
X147605577Y-105073582D01*
X147605583Y-105073583D01*
X147611409Y-105075351D01*
X147610997Y-105076708D01*
X147652834Y-105095362D01*
X147725640Y-105149864D01*
X147725641Y-105149864D01*
X147725642Y-105149865D01*
X147770589Y-105166629D01*
X147860488Y-105200159D01*
X147920098Y-105206568D01*
X148046089Y-105206567D01*
X148113128Y-105226251D01*
X148158883Y-105279055D01*
X148170089Y-105330567D01*
X148170089Y-105439583D01*
X148170089Y-105439585D01*
X148170088Y-105439585D01*
X148197007Y-105574911D01*
X148197010Y-105574921D01*
X148249812Y-105702396D01*
X148249814Y-105702400D01*
X148257905Y-105714509D01*
X148303074Y-105782110D01*
X148323951Y-105848788D01*
X148305466Y-105916168D01*
X148253487Y-105962857D01*
X148199971Y-105975000D01*
X148070748Y-105975000D01*
X148011220Y-105981401D01*
X148011213Y-105981403D01*
X147876506Y-106031645D01*
X147876499Y-106031649D01*
X147761405Y-106117809D01*
X147761402Y-106117812D01*
X147675242Y-106232906D01*
X147675238Y-106232913D01*
X147624996Y-106367620D01*
X147624994Y-106367627D01*
X147618593Y-106427155D01*
X147618593Y-106950000D01*
X148569593Y-106950000D01*
X148636632Y-106969685D01*
X148682387Y-107022489D01*
X148693593Y-107074000D01*
X148693593Y-107200000D01*
X148819593Y-107200000D01*
X148886632Y-107219685D01*
X148932387Y-107272489D01*
X148943593Y-107324000D01*
X148943593Y-108159867D01*
X148947166Y-108166411D01*
X148950000Y-108192769D01*
X148950000Y-110735000D01*
X149261149Y-110735000D01*
X149261149Y-110736566D01*
X149278789Y-110740723D01*
X149303081Y-110742025D01*
X149312190Y-110748593D01*
X149323121Y-110751169D01*
X149340022Y-110768662D01*
X149359754Y-110782890D01*
X149363866Y-110793340D01*
X149371669Y-110801417D01*
X149376430Y-110825272D01*
X149385337Y-110847908D01*
X149384408Y-110865242D01*
X149385345Y-110869935D01*
X149383449Y-110883151D01*
X149379408Y-110903469D01*
X149379407Y-110903473D01*
X149372500Y-110938195D01*
X149372500Y-111543424D01*
X149352815Y-111610463D01*
X149300011Y-111656218D01*
X149230853Y-111666162D01*
X149225025Y-111665182D01*
X149006625Y-111623074D01*
X148951056Y-111617100D01*
X148903228Y-111617100D01*
X148903228Y-111777646D01*
X148896619Y-111800150D01*
X148894436Y-111823506D01*
X148886958Y-111833052D01*
X148883543Y-111844685D01*
X148865818Y-111860043D01*
X148851353Y-111878512D01*
X148839901Y-111882500D01*
X148830739Y-111890440D01*
X148807523Y-111893778D01*
X148785371Y-111901494D01*
X148773581Y-111898658D01*
X148761581Y-111900384D01*
X148740245Y-111890640D01*
X148717439Y-111885155D01*
X148705950Y-111874978D01*
X148698025Y-111871359D01*
X148689653Y-111863392D01*
X148684460Y-111857967D01*
X148610788Y-111759554D01*
X148538329Y-111705311D01*
X148531253Y-111697919D01*
X148519697Y-111675612D01*
X148504646Y-111655505D01*
X148502168Y-111641773D01*
X148499115Y-111635879D01*
X148499794Y-111628614D01*
X148497912Y-111618184D01*
X148496828Y-111617100D01*
X148449000Y-111617100D01*
X148390632Y-111623375D01*
X148364122Y-111623375D01*
X148360727Y-111623010D01*
X148360725Y-111623009D01*
X148301115Y-111616600D01*
X148301105Y-111616600D01*
X147798971Y-111616600D01*
X147798965Y-111616601D01*
X147739358Y-111623008D01*
X147604513Y-111673302D01*
X147604511Y-111673303D01*
X147509717Y-111744267D01*
X147444253Y-111768684D01*
X147435406Y-111769000D01*
X146541692Y-111769000D01*
X146420472Y-111793112D01*
X146420464Y-111793114D01*
X146339715Y-111826562D01*
X146328509Y-111831204D01*
X146306267Y-111840417D01*
X146293833Y-111848725D01*
X146203489Y-111909090D01*
X146203488Y-111909091D01*
X145912180Y-112200400D01*
X145850857Y-112233885D01*
X145781165Y-112228901D01*
X145725232Y-112187029D01*
X145700815Y-112121565D01*
X145700499Y-112112719D01*
X145700499Y-111480974D01*
X145700498Y-111480968D01*
X145700497Y-111480961D01*
X145694091Y-111421362D01*
X145690967Y-111412987D01*
X145643797Y-111286516D01*
X145643793Y-111286509D01*
X145557547Y-111171300D01*
X145557544Y-111171297D01*
X145442335Y-111085051D01*
X145442328Y-111085047D01*
X145307482Y-111034753D01*
X145299938Y-111032971D01*
X145300474Y-111030698D01*
X145246688Y-111008416D01*
X145206843Y-110951022D01*
X145200500Y-110911869D01*
X145200500Y-110282844D01*
X147690000Y-110282844D01*
X147696401Y-110342372D01*
X147696403Y-110342379D01*
X147746645Y-110477086D01*
X147746649Y-110477093D01*
X147832809Y-110592187D01*
X147832812Y-110592190D01*
X147947906Y-110678350D01*
X147947913Y-110678354D01*
X148082620Y-110728596D01*
X148082627Y-110728598D01*
X148142155Y-110734999D01*
X148142172Y-110735000D01*
X148450000Y-110735000D01*
X148450000Y-109750000D01*
X147690000Y-109750000D01*
X147690000Y-110282844D01*
X145200500Y-110282844D01*
X145200500Y-107972844D01*
X147618593Y-107972844D01*
X147624994Y-108032372D01*
X147624996Y-108032379D01*
X147675238Y-108167086D01*
X147675242Y-108167093D01*
X147761402Y-108282187D01*
X147768164Y-108287249D01*
X147810036Y-108343182D01*
X147815021Y-108412874D01*
X147793122Y-108460828D01*
X147746647Y-108522910D01*
X147746645Y-108522913D01*
X147696403Y-108657620D01*
X147696401Y-108657627D01*
X147690000Y-108717155D01*
X147690000Y-109250000D01*
X148450000Y-109250000D01*
X148450000Y-108530132D01*
X148446427Y-108523589D01*
X148443593Y-108497231D01*
X148443593Y-107450000D01*
X147618593Y-107450000D01*
X147618593Y-107972844D01*
X145200500Y-107972844D01*
X145200500Y-107931004D01*
X145200499Y-107931002D01*
X145181501Y-107835494D01*
X145173580Y-107795672D01*
X145166403Y-107778346D01*
X145151707Y-107742866D01*
X145136179Y-107705378D01*
X145120778Y-107668194D01*
X145120771Y-107668182D01*
X145044115Y-107553459D01*
X145032174Y-107541518D01*
X144946542Y-107455886D01*
X144605813Y-107115157D01*
X143446546Y-105955888D01*
X143446545Y-105955887D01*
X143331807Y-105879222D01*
X143204332Y-105826421D01*
X143204322Y-105826418D01*
X143068996Y-105799500D01*
X143068994Y-105799500D01*
X143068993Y-105799500D01*
X140931007Y-105799500D01*
X140931005Y-105799500D01*
X140871916Y-105811254D01*
X140842371Y-105817131D01*
X140815604Y-105822454D01*
X140795668Y-105826420D01*
X140795660Y-105826423D01*
X140742865Y-105848292D01*
X140668191Y-105879223D01*
X140567445Y-105946539D01*
X140567446Y-105946540D01*
X140553458Y-105955886D01*
X140412181Y-106097163D01*
X140392742Y-106107776D01*
X140376011Y-106122275D01*
X140362680Y-106124191D01*
X140350858Y-106130647D01*
X140328771Y-106129067D01*
X140306853Y-106132219D01*
X140294601Y-106126623D01*
X140281166Y-106125663D01*
X140263439Y-106112392D01*
X140243297Y-106103194D01*
X140236014Y-106091862D01*
X140225233Y-106083791D01*
X140217495Y-106063045D01*
X140205523Y-106044416D01*
X140202371Y-106022497D01*
X140200816Y-106018327D01*
X140200500Y-106009481D01*
X140200500Y-105841519D01*
X140220185Y-105774480D01*
X140236819Y-105753838D01*
X140671658Y-105318999D01*
X144597038Y-105318999D01*
X144603439Y-105378527D01*
X144603441Y-105378534D01*
X144653683Y-105513241D01*
X144653687Y-105513248D01*
X144739847Y-105628342D01*
X144739850Y-105628345D01*
X144854944Y-105714505D01*
X144854951Y-105714509D01*
X144989658Y-105764751D01*
X144989665Y-105764753D01*
X145049193Y-105771154D01*
X145049210Y-105771155D01*
X145572038Y-105771155D01*
X145572038Y-104946155D01*
X144597038Y-104946155D01*
X144597038Y-105318999D01*
X140671658Y-105318999D01*
X142357683Y-103632974D01*
X142419006Y-103599489D01*
X142445364Y-103596655D01*
X144523571Y-103596655D01*
X144590610Y-103616340D01*
G37*
%TD.AperFunction*%
%TA.AperFunction,Conductor*%
G36*
X152659186Y-103130050D02*
G01*
X152668148Y-103128762D01*
X152692188Y-103139740D01*
X152717540Y-103147185D01*
X152723467Y-103154025D01*
X152731704Y-103157787D01*
X152745993Y-103180021D01*
X152763295Y-103199989D01*
X152765582Y-103210503D01*
X152769478Y-103216565D01*
X152774501Y-103251500D01*
X152774501Y-103322876D01*
X152780908Y-103382483D01*
X152831202Y-103517327D01*
X152831204Y-103517331D01*
X152837773Y-103526106D01*
X152862190Y-103591571D01*
X152847338Y-103659843D01*
X152837775Y-103674725D01*
X152831646Y-103682912D01*
X152831645Y-103682913D01*
X152781403Y-103817620D01*
X152781401Y-103817626D01*
X152775594Y-103871634D01*
X152748855Y-103936185D01*
X152691461Y-103976031D01*
X152621636Y-103978523D01*
X152561548Y-103942870D01*
X152536123Y-103901708D01*
X152517528Y-103851851D01*
X152517523Y-103851842D01*
X152431363Y-103736748D01*
X152431360Y-103736745D01*
X152316266Y-103650585D01*
X152316259Y-103650581D01*
X152181552Y-103600339D01*
X152181545Y-103600337D01*
X152122017Y-103593936D01*
X151421555Y-103593936D01*
X151421555Y-104150002D01*
X152583197Y-104150002D01*
X152624642Y-104127371D01*
X152694334Y-104132355D01*
X152750267Y-104174227D01*
X152774684Y-104239691D01*
X152775000Y-104248537D01*
X152775000Y-104250000D01*
X155225000Y-104250000D01*
X155225000Y-103877172D01*
X155224999Y-103877155D01*
X155218598Y-103817627D01*
X155218597Y-103817623D01*
X155168350Y-103682907D01*
X155162228Y-103674729D01*
X155137809Y-103609265D01*
X155147624Y-103551325D01*
X155153430Y-103537856D01*
X155168796Y-103517331D01*
X155210594Y-103405262D01*
X155211825Y-103402409D01*
X155232234Y-103377812D01*
X155251384Y-103352233D01*
X155254391Y-103351111D01*
X155256442Y-103348640D01*
X155286911Y-103338981D01*
X155316848Y-103327816D01*
X155322809Y-103327603D01*
X155323046Y-103327528D01*
X155323263Y-103327586D01*
X155325694Y-103327500D01*
X155388719Y-103327500D01*
X155455758Y-103347185D01*
X155476400Y-103363819D01*
X156336181Y-104223600D01*
X156369666Y-104284923D01*
X156372500Y-104311281D01*
X156372500Y-109188719D01*
X156352815Y-109255758D01*
X156336181Y-109276400D01*
X155898900Y-109713681D01*
X155837577Y-109747166D01*
X155811219Y-109750000D01*
X154946038Y-109750000D01*
X154878999Y-109730315D01*
X154833244Y-109677511D01*
X154822038Y-109626000D01*
X154822038Y-109500000D01*
X154696038Y-109500000D01*
X154628999Y-109480315D01*
X154583244Y-109427511D01*
X154572038Y-109376000D01*
X154572038Y-109250000D01*
X155072038Y-109250000D01*
X155832038Y-109250000D01*
X155832038Y-108717172D01*
X155832037Y-108717155D01*
X155825636Y-108657627D01*
X155825634Y-108657620D01*
X155775392Y-108522913D01*
X155775388Y-108522906D01*
X155726615Y-108457754D01*
X155702197Y-108392290D01*
X155717048Y-108324017D01*
X155751579Y-108284170D01*
X155754229Y-108282186D01*
X155840388Y-108167093D01*
X155840392Y-108167086D01*
X155890634Y-108032379D01*
X155890636Y-108032372D01*
X155897037Y-107972844D01*
X155897038Y-107972827D01*
X155897038Y-107450000D01*
X155072038Y-107450000D01*
X155072038Y-109250000D01*
X154572038Y-109250000D01*
X154572038Y-106950000D01*
X155072038Y-106950000D01*
X155897038Y-106950000D01*
X155897038Y-106427172D01*
X155897037Y-106427155D01*
X155890636Y-106367627D01*
X155890634Y-106367620D01*
X155840392Y-106232913D01*
X155840388Y-106232906D01*
X155754228Y-106117812D01*
X155754225Y-106117809D01*
X155639131Y-106031649D01*
X155639124Y-106031645D01*
X155504417Y-105981403D01*
X155504410Y-105981401D01*
X155444882Y-105975000D01*
X155072038Y-105975000D01*
X155072038Y-106950000D01*
X154572038Y-106950000D01*
X154572038Y-105975000D01*
X154199193Y-105975000D01*
X154139665Y-105981401D01*
X154139658Y-105981403D01*
X154004951Y-106031645D01*
X154004950Y-106031646D01*
X153996763Y-106037775D01*
X153931298Y-106062190D01*
X153863025Y-106047337D01*
X153848144Y-106037773D01*
X153839369Y-106031204D01*
X153839365Y-106031202D01*
X153704520Y-105980908D01*
X153704521Y-105980908D01*
X153644921Y-105974501D01*
X153644919Y-105974500D01*
X153644911Y-105974500D01*
X153644903Y-105974500D01*
X152838557Y-105974500D01*
X152771518Y-105954815D01*
X152750876Y-105938181D01*
X152194757Y-105382062D01*
X152161272Y-105320739D01*
X152166256Y-105251047D01*
X152208128Y-105195114D01*
X152239105Y-105178199D01*
X152316259Y-105149422D01*
X152316266Y-105149418D01*
X152431360Y-105063258D01*
X152431363Y-105063255D01*
X152517523Y-104948161D01*
X152517528Y-104948152D01*
X152534818Y-104901796D01*
X152576689Y-104845862D01*
X152642153Y-104821444D01*
X152710426Y-104836295D01*
X152759832Y-104885700D01*
X152775000Y-104945128D01*
X152775000Y-105122844D01*
X152781401Y-105182372D01*
X152781403Y-105182379D01*
X152831645Y-105317086D01*
X152831649Y-105317093D01*
X152917809Y-105432187D01*
X152917812Y-105432190D01*
X153032906Y-105518350D01*
X153032913Y-105518354D01*
X153167620Y-105568596D01*
X153167627Y-105568598D01*
X153227155Y-105574999D01*
X153227172Y-105575000D01*
X153750000Y-105575000D01*
X154250000Y-105575000D01*
X154772828Y-105575000D01*
X154772844Y-105574999D01*
X154832372Y-105568598D01*
X154832379Y-105568596D01*
X154967086Y-105518354D01*
X154967093Y-105518350D01*
X155082187Y-105432190D01*
X155082190Y-105432187D01*
X155168350Y-105317093D01*
X155168354Y-105317086D01*
X155218596Y-105182379D01*
X155218598Y-105182372D01*
X155224999Y-105122844D01*
X155225000Y-105122827D01*
X155225000Y-104750000D01*
X154250000Y-104750000D01*
X154250000Y-105575000D01*
X153750000Y-105575000D01*
X153750000Y-104750000D01*
X152765976Y-104750000D01*
X152724531Y-104772631D01*
X152654839Y-104767647D01*
X152598906Y-104725775D01*
X152574489Y-104660311D01*
X152574173Y-104651465D01*
X152574173Y-104650002D01*
X151295555Y-104650002D01*
X151228516Y-104630317D01*
X151182761Y-104577513D01*
X151171555Y-104526002D01*
X151171555Y-104400002D01*
X151045555Y-104400002D01*
X150978516Y-104380317D01*
X150932761Y-104327513D01*
X150921555Y-104276002D01*
X150921555Y-103593936D01*
X150403207Y-103593936D01*
X150400642Y-103596500D01*
X150390966Y-103617688D01*
X150383522Y-103643040D01*
X150376681Y-103648967D01*
X150372920Y-103657204D01*
X150350685Y-103671493D01*
X150330718Y-103688795D01*
X150320203Y-103691082D01*
X150314142Y-103694978D01*
X150279207Y-103700001D01*
X150123416Y-103700001D01*
X150056377Y-103680316D01*
X150049105Y-103675268D01*
X150015538Y-103650140D01*
X150015535Y-103650138D01*
X149880689Y-103599844D01*
X149880690Y-103599844D01*
X149821090Y-103593437D01*
X149821088Y-103593436D01*
X149821080Y-103593436D01*
X149821072Y-103593436D01*
X148994589Y-103593436D01*
X148985903Y-103590885D01*
X148976942Y-103592174D01*
X148952901Y-103581195D01*
X148927550Y-103573751D01*
X148921622Y-103566910D01*
X148913386Y-103563149D01*
X148899096Y-103540914D01*
X148881795Y-103520947D01*
X148879507Y-103510432D01*
X148875612Y-103504371D01*
X148870589Y-103469436D01*
X148870589Y-103430565D01*
X148890274Y-103363526D01*
X148943078Y-103317771D01*
X148994589Y-103306565D01*
X149821078Y-103306565D01*
X149821079Y-103306565D01*
X149880690Y-103300157D01*
X149977739Y-103263959D01*
X150047430Y-103258976D01*
X150064405Y-103263960D01*
X150161454Y-103300157D01*
X150161453Y-103300157D01*
X150168381Y-103300901D01*
X150221064Y-103306566D01*
X152122045Y-103306565D01*
X152181656Y-103300157D01*
X152316504Y-103249862D01*
X152431719Y-103163612D01*
X152431719Y-103163611D01*
X152438819Y-103158297D01*
X152439633Y-103159384D01*
X152492836Y-103130334D01*
X152519194Y-103127500D01*
X152650501Y-103127500D01*
X152659186Y-103130050D01*
G37*
%TD.AperFunction*%
%TA.AperFunction,Conductor*%
G36*
X159808363Y-100520185D02*
G01*
X159829005Y-100536819D01*
X169599500Y-110307314D01*
X169692686Y-110400500D01*
X169806814Y-110466392D01*
X169934108Y-110500500D01*
X169997128Y-110500500D01*
X170002855Y-110500632D01*
X170409440Y-110519429D01*
X170420837Y-110520485D01*
X170821117Y-110576322D01*
X170832353Y-110578423D01*
X171225776Y-110670955D01*
X171236766Y-110674082D01*
X171619989Y-110802525D01*
X171630643Y-110806653D01*
X172000365Y-110969901D01*
X172010592Y-110974993D01*
X172248010Y-111107234D01*
X172363669Y-111171656D01*
X172373407Y-111177685D01*
X172532281Y-111286516D01*
X172701987Y-111402767D01*
X172706830Y-111406084D01*
X172715967Y-111412985D01*
X172987180Y-111638197D01*
X173026883Y-111671166D01*
X173035347Y-111678882D01*
X173321117Y-111964652D01*
X173328833Y-111973116D01*
X173587012Y-112284029D01*
X173593915Y-112293169D01*
X173822314Y-112626592D01*
X173828343Y-112636330D01*
X173960989Y-112874474D01*
X174019880Y-112980205D01*
X174024999Y-112989394D01*
X174030102Y-112999643D01*
X174186711Y-113354328D01*
X174193341Y-113369343D01*
X174197479Y-113380023D01*
X174325913Y-113763220D01*
X174329047Y-113774236D01*
X174421573Y-114167633D01*
X174423678Y-114178892D01*
X174479513Y-114579160D01*
X174480570Y-114590564D01*
X174499235Y-114994273D01*
X174499235Y-115005727D01*
X174480570Y-115409435D01*
X174479513Y-115420839D01*
X174423678Y-115821107D01*
X174421573Y-115832366D01*
X174329047Y-116225763D01*
X174325913Y-116236779D01*
X174197479Y-116619976D01*
X174193341Y-116630656D01*
X174030104Y-117000352D01*
X174024999Y-117010605D01*
X173828343Y-117363669D01*
X173822314Y-117373407D01*
X173593915Y-117706830D01*
X173587012Y-117715970D01*
X173328833Y-118026883D01*
X173321117Y-118035347D01*
X173035347Y-118321117D01*
X173026883Y-118328833D01*
X172715970Y-118587012D01*
X172706830Y-118593915D01*
X172373407Y-118822314D01*
X172363669Y-118828343D01*
X172010605Y-119024999D01*
X172000352Y-119030104D01*
X171630656Y-119193341D01*
X171619976Y-119197479D01*
X171236779Y-119325913D01*
X171225763Y-119329047D01*
X170832366Y-119421573D01*
X170821107Y-119423678D01*
X170420839Y-119479513D01*
X170409435Y-119480570D01*
X170054934Y-119496959D01*
X170053602Y-119497013D01*
X170040759Y-119497468D01*
X170035786Y-119496451D01*
X169987183Y-119499368D01*
X169985670Y-119499422D01*
X169985481Y-119499373D01*
X169981275Y-119499500D01*
X169934107Y-119499500D01*
X169931534Y-119500189D01*
X169931533Y-119500188D01*
X169919413Y-119503435D01*
X169904239Y-119504347D01*
X169855995Y-119520427D01*
X169852407Y-119521389D01*
X169852389Y-119521395D01*
X169816178Y-119531098D01*
X169806814Y-119533608D01*
X169806813Y-119533608D01*
X169806811Y-119533609D01*
X169806804Y-119533612D01*
X169804514Y-119534933D01*
X169804515Y-119534934D01*
X169793639Y-119541212D01*
X169779217Y-119546021D01*
X169736771Y-119574044D01*
X169733539Y-119575911D01*
X169733532Y-119575916D01*
X169692684Y-119599501D01*
X169690802Y-119601383D01*
X169671471Y-119617159D01*
X169669244Y-119618629D01*
X169637947Y-119653921D01*
X169635480Y-119656705D01*
X169599500Y-119692686D01*
X169591896Y-119705855D01*
X169583564Y-119715252D01*
X169583562Y-119715253D01*
X169581809Y-119717229D01*
X169581804Y-119717237D01*
X169560713Y-119759419D01*
X169557193Y-119765961D01*
X169533607Y-119806813D01*
X169533606Y-119806816D01*
X169532919Y-119809382D01*
X169524056Y-119832733D01*
X164724947Y-129430954D01*
X164677360Y-129482113D01*
X164614038Y-129499500D01*
X135385962Y-129499500D01*
X135318923Y-129479815D01*
X135275053Y-129430954D01*
X134923770Y-128728387D01*
X134876411Y-128633669D01*
X134858262Y-128597371D01*
X134815093Y-128511033D01*
X134790792Y-128462431D01*
X134741329Y-128363505D01*
X134681486Y-128243819D01*
X134631295Y-128143437D01*
X134609044Y-128098935D01*
X134486353Y-127853553D01*
X134361736Y-127604319D01*
X134345781Y-127572409D01*
X134309576Y-127499999D01*
X134257417Y-127395681D01*
X134257414Y-127395675D01*
X134119201Y-127119249D01*
X134118510Y-127117867D01*
X134021653Y-126924153D01*
X134010384Y-126901615D01*
X133987857Y-126856561D01*
X133962354Y-126805555D01*
X133962219Y-126805285D01*
X133937666Y-126756179D01*
X133877823Y-126636493D01*
X133844884Y-126570615D01*
X133823217Y-126527281D01*
X133810038Y-126500923D01*
X133804059Y-126488965D01*
X133760890Y-126402627D01*
X133744997Y-126370841D01*
X133742956Y-126366759D01*
X133742955Y-126366757D01*
X133731532Y-126343911D01*
X133725749Y-126332345D01*
X133725618Y-126332083D01*
X133717415Y-126315677D01*
X133717332Y-126315511D01*
X133682849Y-126246545D01*
X133682848Y-126246543D01*
X133676635Y-126234117D01*
X133651628Y-126184103D01*
X133647935Y-126176717D01*
X133634460Y-126149767D01*
X133612895Y-126106637D01*
X133590478Y-126061803D01*
X133528675Y-125938197D01*
X133478840Y-125838527D01*
X133478835Y-125838517D01*
X133421738Y-125724323D01*
X133359573Y-125599993D01*
X133314498Y-125509843D01*
X133259581Y-125400009D01*
X133237502Y-125355851D01*
X133235357Y-125351561D01*
X133151094Y-125183035D01*
X133028675Y-124938197D01*
X132903936Y-124688719D01*
X132378915Y-123638677D01*
X132378554Y-123637955D01*
X132093975Y-123068797D01*
X132083654Y-123048155D01*
X131433547Y-121747941D01*
X130753594Y-120388035D01*
X130532489Y-119945825D01*
X130475944Y-119832736D01*
X130475944Y-119832737D01*
X130470328Y-119821504D01*
X130466392Y-119806814D01*
X130440947Y-119762742D01*
X130418193Y-119717234D01*
X130408103Y-119705856D01*
X130400500Y-119692686D01*
X130364519Y-119656705D01*
X130330758Y-119618632D01*
X130318066Y-119610252D01*
X130307314Y-119599500D01*
X130263259Y-119574064D01*
X130260155Y-119572015D01*
X130260142Y-119572008D01*
X130220783Y-119546021D01*
X130220779Y-119546019D01*
X130220771Y-119546016D01*
X130218257Y-119545178D01*
X130195489Y-119534937D01*
X130193193Y-119533611D01*
X130193187Y-119533608D01*
X130193186Y-119533608D01*
X130193183Y-119533607D01*
X130193180Y-119533606D01*
X130147618Y-119521397D01*
X130147618Y-119521396D01*
X130144004Y-119520427D01*
X130095761Y-119504347D01*
X130080581Y-119503435D01*
X130068451Y-119500185D01*
X130068450Y-119500184D01*
X130065894Y-119499500D01*
X130065892Y-119499500D01*
X130018725Y-119499500D01*
X130014330Y-119499422D01*
X130012816Y-119499368D01*
X129964214Y-119496451D01*
X129959239Y-119497468D01*
X129946398Y-119497013D01*
X129946193Y-119496945D01*
X129945066Y-119496959D01*
X129590564Y-119480570D01*
X129579160Y-119479513D01*
X129178892Y-119423678D01*
X129167633Y-119421573D01*
X128774236Y-119329047D01*
X128763220Y-119325913D01*
X128472864Y-119228596D01*
X128380021Y-119197478D01*
X128369343Y-119193341D01*
X128141067Y-119092547D01*
X127999643Y-119030102D01*
X127989399Y-119025001D01*
X127859137Y-118952446D01*
X127636330Y-118828343D01*
X127626592Y-118822314D01*
X127293169Y-118593915D01*
X127284029Y-118587012D01*
X126973116Y-118328833D01*
X126964652Y-118321117D01*
X126678882Y-118035347D01*
X126671166Y-118026883D01*
X126640857Y-117990383D01*
X126412985Y-117715967D01*
X126406084Y-117706830D01*
X126382802Y-117672843D01*
X126192648Y-117395251D01*
X126177685Y-117373407D01*
X126171656Y-117363669D01*
X126114208Y-117260530D01*
X125974993Y-117010592D01*
X125969901Y-117000365D01*
X125806653Y-116630643D01*
X125802525Y-116619989D01*
X125674082Y-116236766D01*
X125670955Y-116225776D01*
X125578423Y-115832353D01*
X125576322Y-115821117D01*
X125520485Y-115420837D01*
X125519429Y-115409435D01*
X125514912Y-115311736D01*
X125500764Y-115005710D01*
X125500764Y-114994289D01*
X125506107Y-114878711D01*
X128149500Y-114878711D01*
X128149500Y-115121288D01*
X128178062Y-115338248D01*
X128181162Y-115361789D01*
X128193929Y-115409435D01*
X128243947Y-115596104D01*
X128336773Y-115820205D01*
X128336777Y-115820214D01*
X128343793Y-115832366D01*
X128458064Y-116030289D01*
X128458066Y-116030292D01*
X128458067Y-116030293D01*
X128605733Y-116222736D01*
X128605739Y-116222743D01*
X128777256Y-116394260D01*
X128777262Y-116394265D01*
X128969711Y-116541936D01*
X129179788Y-116663224D01*
X129403900Y-116756054D01*
X129638211Y-116818838D01*
X129798568Y-116839949D01*
X129878711Y-116850500D01*
X129878712Y-116850500D01*
X130121289Y-116850500D01*
X130201432Y-116839949D01*
X130361789Y-116818838D01*
X130596100Y-116756054D01*
X130820212Y-116663224D01*
X131030289Y-116541936D01*
X131222738Y-116394265D01*
X131394265Y-116222738D01*
X131541936Y-116030289D01*
X131663224Y-115820212D01*
X131756054Y-115596100D01*
X131818838Y-115361789D01*
X131850500Y-115121288D01*
X131850500Y-114878712D01*
X131818838Y-114638211D01*
X131756054Y-114403900D01*
X131663224Y-114179788D01*
X131541936Y-113969711D01*
X131456424Y-113858269D01*
X131394266Y-113777263D01*
X131394260Y-113777256D01*
X131222743Y-113605739D01*
X131222736Y-113605733D01*
X131030293Y-113458067D01*
X131030292Y-113458066D01*
X131030289Y-113458064D01*
X130820212Y-113336776D01*
X130820205Y-113336773D01*
X130596104Y-113243947D01*
X130478944Y-113212554D01*
X130361789Y-113181162D01*
X130361788Y-113181161D01*
X130361785Y-113181161D01*
X130121289Y-113149500D01*
X130121288Y-113149500D01*
X129878712Y-113149500D01*
X129878711Y-113149500D01*
X129638214Y-113181161D01*
X129403895Y-113243947D01*
X129179794Y-113336773D01*
X129179785Y-113336777D01*
X128969706Y-113458067D01*
X128777263Y-113605733D01*
X128777256Y-113605739D01*
X128605739Y-113777256D01*
X128605733Y-113777263D01*
X128458067Y-113969706D01*
X128336777Y-114179785D01*
X128336773Y-114179794D01*
X128243947Y-114403895D01*
X128181161Y-114638214D01*
X128149500Y-114878711D01*
X125506107Y-114878711D01*
X125519429Y-114590557D01*
X125520486Y-114579160D01*
X125522769Y-114562796D01*
X125576323Y-114178878D01*
X125578422Y-114167649D01*
X125670957Y-113774217D01*
X125674080Y-113763238D01*
X125802527Y-113380002D01*
X125806650Y-113369363D01*
X125969905Y-112999625D01*
X125974988Y-112989416D01*
X126171659Y-112636324D01*
X126177685Y-112626592D01*
X126192644Y-112604755D01*
X126406094Y-112293154D01*
X126412976Y-112284042D01*
X126671177Y-111973103D01*
X126678871Y-111964663D01*
X126964663Y-111678871D01*
X126973103Y-111671177D01*
X127284042Y-111412976D01*
X127293154Y-111406094D01*
X127626597Y-111177681D01*
X127636324Y-111171659D01*
X127989416Y-110974988D01*
X127999625Y-110969905D01*
X128369363Y-110806650D01*
X128380002Y-110802527D01*
X128763238Y-110674080D01*
X128774217Y-110670957D01*
X129167649Y-110578422D01*
X129178878Y-110576323D01*
X129579164Y-110520485D01*
X129590557Y-110519429D01*
X129997145Y-110500632D01*
X130002872Y-110500500D01*
X130065890Y-110500500D01*
X130065892Y-110500500D01*
X130193186Y-110466392D01*
X130307314Y-110400500D01*
X130400500Y-110307314D01*
X134138818Y-106568996D01*
X138799499Y-106568996D01*
X138826418Y-106704322D01*
X138826421Y-106704332D01*
X138879222Y-106831807D01*
X138955887Y-106946545D01*
X138955888Y-106946546D01*
X139463181Y-107453837D01*
X139477884Y-107480764D01*
X139494477Y-107506583D01*
X139495368Y-107512783D01*
X139496666Y-107515160D01*
X139499500Y-107541518D01*
X139499500Y-107705378D01*
X139479815Y-107772417D01*
X139427011Y-107818172D01*
X139418836Y-107821559D01*
X139382665Y-107835050D01*
X139267455Y-107921297D01*
X139267452Y-107921300D01*
X139181206Y-108036509D01*
X139181202Y-108036516D01*
X139130908Y-108171362D01*
X139124501Y-108230961D01*
X139124500Y-108230980D01*
X139124500Y-109776715D01*
X139124501Y-109776721D01*
X139130908Y-109836328D01*
X139181202Y-109971173D01*
X139181206Y-109971180D01*
X139267452Y-110086389D01*
X139267455Y-110086392D01*
X139382664Y-110172638D01*
X139382669Y-110172641D01*
X139418830Y-110186128D01*
X139474763Y-110227997D01*
X139499182Y-110293461D01*
X139499498Y-110302310D01*
X139499498Y-110751685D01*
X139479813Y-110818724D01*
X139474765Y-110825996D01*
X139450136Y-110858896D01*
X139450134Y-110858898D01*
X139399840Y-110993744D01*
X139393433Y-111053343D01*
X139393433Y-111053350D01*
X139393432Y-111053362D01*
X139393432Y-112954333D01*
X139393433Y-112954339D01*
X139399841Y-113013947D01*
X139436037Y-113110996D01*
X139441021Y-113180687D01*
X139436037Y-113197660D01*
X139399841Y-113294707D01*
X139399840Y-113294709D01*
X139395318Y-113336776D01*
X139393433Y-113354316D01*
X139393432Y-113354328D01*
X139393432Y-115255299D01*
X139393433Y-115255305D01*
X139399840Y-115314912D01*
X139452019Y-115454809D01*
X139457003Y-115524501D01*
X139423518Y-115585823D01*
X138955887Y-116053454D01*
X138879222Y-116168192D01*
X138826421Y-116295667D01*
X138826418Y-116295679D01*
X138805882Y-116398923D01*
X138805882Y-116398925D01*
X138799500Y-116431007D01*
X138799500Y-116931006D01*
X138799500Y-117068994D01*
X138799500Y-117068996D01*
X138799499Y-117068996D01*
X138826418Y-117204322D01*
X138826421Y-117204332D01*
X138879222Y-117331807D01*
X138955887Y-117446545D01*
X138955888Y-117446546D01*
X139188181Y-117678838D01*
X139221666Y-117740161D01*
X139224500Y-117766519D01*
X139224500Y-118577681D01*
X139224501Y-118577687D01*
X139230908Y-118637294D01*
X139281202Y-118772139D01*
X139281206Y-118772146D01*
X139367452Y-118887355D01*
X139367455Y-118887358D01*
X139482664Y-118973604D01*
X139482669Y-118973607D01*
X139518832Y-118987095D01*
X139574766Y-119028965D01*
X139599184Y-119094429D01*
X139599500Y-119103277D01*
X139599500Y-125731006D01*
X139599500Y-125868994D01*
X139599500Y-125868996D01*
X139599499Y-125868996D01*
X139626418Y-126004322D01*
X139626421Y-126004332D01*
X139679222Y-126131807D01*
X139755887Y-126246545D01*
X139948942Y-126439600D01*
X139982427Y-126500923D01*
X139977443Y-126570615D01*
X139948944Y-126614960D01*
X139927411Y-126636493D01*
X139804775Y-126805285D01*
X139710057Y-126991179D01*
X139645582Y-127189610D01*
X139612945Y-127395675D01*
X139612945Y-127604324D01*
X139645582Y-127810389D01*
X139710057Y-128008820D01*
X139778930Y-128143990D01*
X139804775Y-128194714D01*
X139927410Y-128363505D01*
X140074940Y-128511035D01*
X140243731Y-128633670D01*
X140331561Y-128678421D01*
X140429624Y-128728387D01*
X140429626Y-128728387D01*
X140429629Y-128728389D01*
X140535990Y-128762948D01*
X140628055Y-128792862D01*
X140834121Y-128825500D01*
X140834126Y-128825500D01*
X141042769Y-128825500D01*
X141248834Y-128792862D01*
X141250339Y-128792373D01*
X141447261Y-128728389D01*
X141633159Y-128633670D01*
X141801950Y-128511035D01*
X141949480Y-128363505D01*
X142072115Y-128194714D01*
X142097960Y-128143990D01*
X142145934Y-128093194D01*
X142213755Y-128076398D01*
X142279890Y-128098935D01*
X142318930Y-128143990D01*
X142344773Y-128194712D01*
X142380451Y-128243818D01*
X142467410Y-128363505D01*
X142614940Y-128511035D01*
X142783731Y-128633670D01*
X142871561Y-128678421D01*
X142969624Y-128728387D01*
X142969626Y-128728387D01*
X142969629Y-128728389D01*
X143075990Y-128762948D01*
X143168055Y-128792862D01*
X143374121Y-128825500D01*
X143374126Y-128825500D01*
X143582769Y-128825500D01*
X143788834Y-128792862D01*
X143790339Y-128792373D01*
X143987261Y-128728389D01*
X144173159Y-128633670D01*
X144341950Y-128511035D01*
X144489480Y-128363505D01*
X144612115Y-128194714D01*
X144637960Y-128143990D01*
X144685934Y-128093194D01*
X144753755Y-128076398D01*
X144819890Y-128098935D01*
X144858930Y-128143990D01*
X144884773Y-128194712D01*
X144920451Y-128243818D01*
X145007410Y-128363505D01*
X145154940Y-128511035D01*
X145323731Y-128633670D01*
X145411561Y-128678421D01*
X145509624Y-128728387D01*
X145509626Y-128728387D01*
X145509629Y-128728389D01*
X145615990Y-128762948D01*
X145708055Y-128792862D01*
X145914121Y-128825500D01*
X145914126Y-128825500D01*
X146122769Y-128825500D01*
X146328834Y-128792862D01*
X146330339Y-128792373D01*
X146527261Y-128728389D01*
X146713159Y-128633670D01*
X146881950Y-128511035D01*
X147029480Y-128363505D01*
X147152115Y-128194714D01*
X147177960Y-128143990D01*
X147225934Y-128093194D01*
X147293755Y-128076398D01*
X147359890Y-128098935D01*
X147398930Y-128143990D01*
X147424773Y-128194712D01*
X147460451Y-128243818D01*
X147547410Y-128363505D01*
X147694940Y-128511035D01*
X147863731Y-128633670D01*
X147951561Y-128678421D01*
X148049624Y-128728387D01*
X148049626Y-128728387D01*
X148049629Y-128728389D01*
X148155990Y-128762948D01*
X148248055Y-128792862D01*
X148454121Y-128825500D01*
X148454126Y-128825500D01*
X148662769Y-128825500D01*
X148868834Y-128792862D01*
X148870339Y-128792373D01*
X149067261Y-128728389D01*
X149253159Y-128633670D01*
X149421950Y-128511035D01*
X149569480Y-128363505D01*
X149692115Y-128194714D01*
X149717960Y-128143990D01*
X149765934Y-128093194D01*
X149833755Y-128076398D01*
X149899890Y-128098935D01*
X149938930Y-128143990D01*
X149964773Y-128194712D01*
X150000451Y-128243818D01*
X150087410Y-128363505D01*
X150234940Y-128511035D01*
X150403731Y-128633670D01*
X150491561Y-128678421D01*
X150589624Y-128728387D01*
X150589626Y-128728387D01*
X150589629Y-128728389D01*
X150695990Y-128762948D01*
X150788055Y-128792862D01*
X150994121Y-128825500D01*
X150994126Y-128825500D01*
X151202769Y-128825500D01*
X151408834Y-128792862D01*
X151410339Y-128792373D01*
X151607261Y-128728389D01*
X151793159Y-128633670D01*
X151961950Y-128511035D01*
X152109480Y-128363505D01*
X152232115Y-128194714D01*
X152257960Y-128143990D01*
X152305934Y-128093194D01*
X152373755Y-128076398D01*
X152439890Y-128098935D01*
X152478930Y-128143990D01*
X152504773Y-128194712D01*
X152540451Y-128243818D01*
X152627410Y-128363505D01*
X152774940Y-128511035D01*
X152943731Y-128633670D01*
X153031561Y-128678421D01*
X153129624Y-128728387D01*
X153129626Y-128728387D01*
X153129629Y-128728389D01*
X153235990Y-128762948D01*
X153328055Y-128792862D01*
X153534121Y-128825500D01*
X153534126Y-128825500D01*
X153742769Y-128825500D01*
X153948834Y-128792862D01*
X153950339Y-128792373D01*
X154147261Y-128728389D01*
X154333159Y-128633670D01*
X154501950Y-128511035D01*
X154649480Y-128363505D01*
X154772115Y-128194714D01*
X154797960Y-128143990D01*
X154845934Y-128093194D01*
X154913755Y-128076398D01*
X154979890Y-128098935D01*
X155018930Y-128143990D01*
X155044773Y-128194712D01*
X155080451Y-128243818D01*
X155167410Y-128363505D01*
X155314940Y-128511035D01*
X155483731Y-128633670D01*
X155571561Y-128678421D01*
X155669624Y-128728387D01*
X155669626Y-128728387D01*
X155669629Y-128728389D01*
X155775990Y-128762948D01*
X155868055Y-128792862D01*
X156074121Y-128825500D01*
X156074126Y-128825500D01*
X156282769Y-128825500D01*
X156488834Y-128792862D01*
X156490339Y-128792373D01*
X156687261Y-128728389D01*
X156873159Y-128633670D01*
X157041950Y-128511035D01*
X157189480Y-128363505D01*
X157312115Y-128194714D01*
X157338241Y-128143437D01*
X157386214Y-128092642D01*
X157454035Y-128075846D01*
X157520170Y-128098383D01*
X157559211Y-128143437D01*
X157585204Y-128194451D01*
X157621072Y-128243818D01*
X157621072Y-128243819D01*
X158194657Y-127670234D01*
X158205927Y-127712292D01*
X158278335Y-127837708D01*
X158380737Y-127940110D01*
X158506153Y-128012518D01*
X158548210Y-128023787D01*
X157974624Y-128597371D01*
X157974625Y-128597372D01*
X158023988Y-128633236D01*
X158024001Y-128633244D01*
X158209817Y-128727924D01*
X158408172Y-128792373D01*
X158614166Y-128825000D01*
X158822724Y-128825000D01*
X159028717Y-128792373D01*
X159227072Y-128727924D01*
X159412896Y-128633240D01*
X159462263Y-128597372D01*
X159462263Y-128597371D01*
X158888679Y-128023787D01*
X158930737Y-128012518D01*
X159056153Y-127940110D01*
X159158555Y-127837708D01*
X159230963Y-127712292D01*
X159242232Y-127670234D01*
X159815816Y-128243818D01*
X159815817Y-128243818D01*
X159851685Y-128194451D01*
X159946369Y-128008627D01*
X160010818Y-127810272D01*
X160043445Y-127604279D01*
X160043445Y-127395720D01*
X160010818Y-127189727D01*
X159946369Y-126991372D01*
X159851689Y-126805556D01*
X159851681Y-126805543D01*
X159815817Y-126756180D01*
X159815816Y-126756179D01*
X159242232Y-127329764D01*
X159230963Y-127287708D01*
X159158555Y-127162292D01*
X159056153Y-127059890D01*
X158930737Y-126987482D01*
X158888678Y-126976212D01*
X159462264Y-126402627D01*
X159412896Y-126366759D01*
X159227072Y-126272075D01*
X159028717Y-126207626D01*
X158822724Y-126175000D01*
X158614166Y-126175000D01*
X158408172Y-126207626D01*
X158209817Y-126272075D01*
X158023997Y-126366757D01*
X157974625Y-126402627D01*
X158548211Y-126976212D01*
X158506153Y-126987482D01*
X158380737Y-127059890D01*
X158278335Y-127162292D01*
X158205927Y-127287708D01*
X158194657Y-127329765D01*
X157621072Y-126756180D01*
X157585200Y-126805555D01*
X157559210Y-126856563D01*
X157511235Y-126907358D01*
X157443414Y-126924153D01*
X157377279Y-126901615D01*
X157338241Y-126856561D01*
X157312116Y-126805287D01*
X157271236Y-126749022D01*
X157189480Y-126636495D01*
X157041950Y-126488965D01*
X156873159Y-126366330D01*
X156829159Y-126343911D01*
X156687265Y-126271612D01*
X156488834Y-126207137D01*
X156282769Y-126174500D01*
X156282764Y-126174500D01*
X156074126Y-126174500D01*
X156074121Y-126174500D01*
X155868053Y-126207138D01*
X155863314Y-126208276D01*
X155863038Y-126207129D01*
X155798719Y-126208957D01*
X155742581Y-126176717D01*
X151313805Y-121747941D01*
X151280320Y-121686618D01*
X151277486Y-121660260D01*
X151277486Y-118456576D01*
X151297171Y-118389537D01*
X151349975Y-118343782D01*
X151419133Y-118333838D01*
X151424960Y-118334818D01*
X151643368Y-118376926D01*
X151698916Y-118382899D01*
X151698930Y-118382900D01*
X151746758Y-118382900D01*
X152153158Y-118382900D01*
X152200986Y-118382900D01*
X152201002Y-118382899D01*
X152260530Y-118376498D01*
X152260537Y-118376496D01*
X152395244Y-118326254D01*
X152395251Y-118326250D01*
X152510345Y-118240090D01*
X152510348Y-118240087D01*
X152596508Y-118124993D01*
X152596512Y-118124986D01*
X152646754Y-117990279D01*
X152646756Y-117990272D01*
X152653157Y-117930744D01*
X152653158Y-117930727D01*
X152653158Y-117806700D01*
X152153158Y-117806700D01*
X152153158Y-118382900D01*
X151746758Y-118382900D01*
X151746758Y-117727500D01*
X151766443Y-117660461D01*
X151774871Y-117653158D01*
X152806700Y-117653158D01*
X152930728Y-117653158D01*
X152930744Y-117653157D01*
X152990272Y-117646756D01*
X152990279Y-117646754D01*
X153124986Y-117596512D01*
X153124993Y-117596508D01*
X153240087Y-117510348D01*
X153240090Y-117510345D01*
X153326250Y-117395251D01*
X153326254Y-117395244D01*
X153376496Y-117260537D01*
X153376498Y-117260530D01*
X153382899Y-117201002D01*
X153382900Y-117200985D01*
X153382900Y-117153158D01*
X152806700Y-117153158D01*
X152806700Y-117653158D01*
X151774871Y-117653158D01*
X151819247Y-117614706D01*
X151870758Y-117603500D01*
X151949958Y-117603500D01*
X151949958Y-117524300D01*
X151969643Y-117457261D01*
X152022447Y-117411506D01*
X152073958Y-117400300D01*
X152400300Y-117400300D01*
X152400300Y-116746758D01*
X152806700Y-116746758D01*
X153382900Y-116746758D01*
X153382900Y-116698930D01*
X153382899Y-116698916D01*
X153376373Y-116638222D01*
X153376373Y-116611708D01*
X153382899Y-116551013D01*
X153382900Y-116550999D01*
X153382900Y-116503172D01*
X152806700Y-116503172D01*
X152806700Y-116746758D01*
X152400300Y-116746758D01*
X152400300Y-116096772D01*
X152806700Y-116096772D01*
X153382900Y-116096772D01*
X153382900Y-116048944D01*
X153382899Y-116048930D01*
X153376373Y-115988236D01*
X153376373Y-115961722D01*
X153382899Y-115901027D01*
X153382900Y-115901013D01*
X153382900Y-115853186D01*
X152806700Y-115853186D01*
X152806700Y-116096772D01*
X152400300Y-116096772D01*
X152400300Y-115446786D01*
X152806700Y-115446786D01*
X153382900Y-115446786D01*
X153382900Y-115398958D01*
X153382899Y-115398944D01*
X153376373Y-115338250D01*
X153376373Y-115311736D01*
X153382899Y-115251041D01*
X153382900Y-115251027D01*
X153382900Y-115203200D01*
X152806700Y-115203200D01*
X152806700Y-115446786D01*
X152400300Y-115446786D01*
X152400300Y-115203200D01*
X151874600Y-115203200D01*
X151864119Y-115213681D01*
X151802796Y-115247166D01*
X151776438Y-115250000D01*
X148223562Y-115250000D01*
X148156523Y-115230315D01*
X148135881Y-115213681D01*
X148125400Y-115203200D01*
X147599700Y-115203200D01*
X147599700Y-116821835D01*
X147598414Y-116826213D01*
X147599385Y-116830674D01*
X147588657Y-116859439D01*
X147580015Y-116888874D01*
X147576122Y-116893055D01*
X147574972Y-116896140D01*
X147550016Y-116921098D01*
X147544509Y-116925221D01*
X147479046Y-116949642D01*
X147470193Y-116949958D01*
X147396500Y-116949958D01*
X147396500Y-117029158D01*
X147376815Y-117096197D01*
X147324011Y-117141952D01*
X147272500Y-117153158D01*
X146617100Y-117153158D01*
X146617100Y-117201002D01*
X146623501Y-117260530D01*
X146623503Y-117260537D01*
X146673745Y-117395244D01*
X146673749Y-117395251D01*
X146759909Y-117510345D01*
X146759912Y-117510348D01*
X146875006Y-117596508D01*
X146875013Y-117596512D01*
X147009720Y-117646754D01*
X147009727Y-117646756D01*
X147069255Y-117653157D01*
X147069272Y-117653158D01*
X147222343Y-117653158D01*
X147289382Y-117672843D01*
X147335137Y-117725647D01*
X147346343Y-117777158D01*
X147346343Y-117930776D01*
X147352750Y-117990383D01*
X147403044Y-118125227D01*
X147407294Y-118133009D01*
X147403931Y-118134845D01*
X147422189Y-118183199D01*
X147422542Y-118192544D01*
X147422542Y-123638677D01*
X147402857Y-123705716D01*
X147386223Y-123726358D01*
X145599992Y-125512589D01*
X145566420Y-125546161D01*
X145512588Y-125599992D01*
X145512587Y-125599993D01*
X145443917Y-125702766D01*
X145396614Y-125816964D01*
X145396612Y-125816972D01*
X145372500Y-125938192D01*
X145372500Y-125938197D01*
X145372500Y-126061803D01*
X145386424Y-126131807D01*
X145388562Y-126142552D01*
X145390945Y-126166744D01*
X145390945Y-126256095D01*
X145371260Y-126323134D01*
X145327329Y-126362882D01*
X145327883Y-126363785D01*
X145323738Y-126366324D01*
X145154938Y-126488966D01*
X145007411Y-126636493D01*
X144884775Y-126805285D01*
X144858930Y-126856010D01*
X144810955Y-126906806D01*
X144743135Y-126923601D01*
X144677000Y-126901064D01*
X144637960Y-126856010D01*
X144636055Y-126852271D01*
X144612115Y-126805286D01*
X144489480Y-126636495D01*
X144341950Y-126488965D01*
X144202536Y-126387674D01*
X144159872Y-126332345D01*
X144153893Y-126262731D01*
X144186499Y-126200936D01*
X144187668Y-126199750D01*
X144987411Y-125400008D01*
X145019782Y-125351561D01*
X145056083Y-125297233D01*
X145073209Y-125255886D01*
X145103386Y-125183035D01*
X145127500Y-125061803D01*
X145127500Y-124938197D01*
X145127500Y-116698929D01*
X146617100Y-116698929D01*
X146617100Y-116746758D01*
X147193300Y-116746758D01*
X147193300Y-116503172D01*
X146619355Y-116503172D01*
X146624229Y-116619787D01*
X146623627Y-116622206D01*
X146623627Y-116638220D01*
X146617100Y-116698929D01*
X145127500Y-116698929D01*
X145127500Y-116048943D01*
X146617100Y-116048943D01*
X146617100Y-116096772D01*
X147193300Y-116096772D01*
X147193300Y-115853186D01*
X146619355Y-115853186D01*
X146624229Y-115969801D01*
X146623627Y-115972220D01*
X146623627Y-115988234D01*
X146617100Y-116048943D01*
X145127500Y-116048943D01*
X145127500Y-115251028D01*
X146617100Y-115251028D01*
X146623627Y-115311738D01*
X146623627Y-115338248D01*
X146617100Y-115398957D01*
X146617100Y-115446786D01*
X147193300Y-115446786D01*
X147193300Y-115203200D01*
X146617100Y-115203200D01*
X146617100Y-115251028D01*
X145127500Y-115251028D01*
X145127500Y-115003327D01*
X145147185Y-114936288D01*
X145199989Y-114890533D01*
X145244882Y-114879504D01*
X145247871Y-114879344D01*
X145247872Y-114879344D01*
X145307483Y-114872936D01*
X145442331Y-114822641D01*
X145540741Y-114748971D01*
X146617100Y-114748971D01*
X146617100Y-114796800D01*
X147193300Y-114796800D01*
X147193300Y-114553214D01*
X146619355Y-114553214D01*
X146624229Y-114669829D01*
X146623627Y-114688262D01*
X146617100Y-114748971D01*
X145540741Y-114748971D01*
X145557546Y-114736391D01*
X145643796Y-114621176D01*
X145654684Y-114591982D01*
X145655671Y-114590663D01*
X145655832Y-114589019D01*
X145676530Y-114562796D01*
X145696550Y-114536051D01*
X145698426Y-114535057D01*
X145699122Y-114534176D01*
X145704307Y-114531942D01*
X145730522Y-114518061D01*
X145738442Y-114515335D01*
X145779190Y-114507231D01*
X145859939Y-114473782D01*
X145893388Y-114459928D01*
X145996163Y-114391256D01*
X146083566Y-114303853D01*
X146408148Y-113979271D01*
X146469471Y-113945786D01*
X146539163Y-113950770D01*
X146595096Y-113992642D01*
X146619513Y-114058106D01*
X146619118Y-114080207D01*
X146617101Y-114098967D01*
X146617100Y-114098986D01*
X146617100Y-114146814D01*
X147193300Y-114146814D01*
X147193300Y-113174042D01*
X147195850Y-113165356D01*
X147194562Y-113156395D01*
X147205540Y-113132354D01*
X147212985Y-113107003D01*
X147219825Y-113101075D01*
X147223587Y-113092839D01*
X147245821Y-113078549D01*
X147265789Y-113061248D01*
X147276303Y-113058960D01*
X147282365Y-113055065D01*
X147317300Y-113050042D01*
X147470193Y-113050042D01*
X147537232Y-113069727D01*
X147544498Y-113074771D01*
X147550005Y-113078893D01*
X147580696Y-113119888D01*
X147582987Y-113122531D01*
X147583061Y-113123045D01*
X147591879Y-113134824D01*
X147599700Y-113178164D01*
X147599700Y-114796800D01*
X148125400Y-114796800D01*
X148135881Y-114786319D01*
X148197204Y-114752834D01*
X148223562Y-114750000D01*
X151776438Y-114750000D01*
X151843477Y-114769685D01*
X151864119Y-114786319D01*
X151874600Y-114796800D01*
X152400300Y-114796800D01*
X152806700Y-114796800D01*
X153382900Y-114796800D01*
X153382900Y-114748972D01*
X153382899Y-114748958D01*
X153376373Y-114688264D01*
X153376373Y-114661750D01*
X153382899Y-114601055D01*
X153382900Y-114601041D01*
X153382900Y-114553214D01*
X152806700Y-114553214D01*
X152806700Y-114796800D01*
X152400300Y-114796800D01*
X152400300Y-114146814D01*
X152806700Y-114146814D01*
X153382900Y-114146814D01*
X153382900Y-114098986D01*
X153382899Y-114098972D01*
X153376373Y-114038278D01*
X153376373Y-114011764D01*
X153382899Y-113951069D01*
X153382900Y-113951055D01*
X153382900Y-113903228D01*
X152806700Y-113903228D01*
X152806700Y-114146814D01*
X152400300Y-114146814D01*
X152400300Y-113496828D01*
X152806700Y-113496828D01*
X153382900Y-113496828D01*
X153382900Y-113449000D01*
X153382899Y-113448986D01*
X153376373Y-113388292D01*
X153376373Y-113361778D01*
X153382899Y-113301083D01*
X153382900Y-113301069D01*
X153382900Y-113253242D01*
X152806700Y-113253242D01*
X152806700Y-113496828D01*
X152400300Y-113496828D01*
X152400300Y-112846842D01*
X152806700Y-112846842D01*
X153382900Y-112846842D01*
X153382900Y-112799014D01*
X153382899Y-112798997D01*
X153376498Y-112739469D01*
X153376496Y-112739462D01*
X153326254Y-112604755D01*
X153326250Y-112604748D01*
X153240090Y-112489654D01*
X153240087Y-112489651D01*
X153124993Y-112403491D01*
X153124986Y-112403487D01*
X152990279Y-112353245D01*
X152990272Y-112353243D01*
X152930744Y-112346842D01*
X152806700Y-112346842D01*
X152806700Y-112846842D01*
X152400300Y-112846842D01*
X152400300Y-112599700D01*
X152127672Y-112599700D01*
X152118986Y-112597149D01*
X152110026Y-112598438D01*
X152085987Y-112587459D01*
X152060633Y-112580015D01*
X152054705Y-112573173D01*
X152046470Y-112569413D01*
X152032181Y-112547179D01*
X152014878Y-112527211D01*
X152012590Y-112516697D01*
X152008695Y-112510636D01*
X152003672Y-112475701D01*
X152003671Y-112317301D01*
X152023355Y-112250261D01*
X152076159Y-112204506D01*
X152127671Y-112193300D01*
X152653158Y-112193300D01*
X152653158Y-112069272D01*
X152653157Y-112069255D01*
X152646756Y-112009727D01*
X152646754Y-112009720D01*
X152596512Y-111875013D01*
X152596510Y-111875010D01*
X152559680Y-111825811D01*
X152535263Y-111760347D01*
X152550115Y-111692074D01*
X152599520Y-111642668D01*
X152658947Y-111627500D01*
X154782226Y-111627500D01*
X154849265Y-111647185D01*
X154895020Y-111699989D01*
X154904964Y-111769147D01*
X154875939Y-111832703D01*
X154856540Y-111850764D01*
X154767454Y-111917454D01*
X154767453Y-111917455D01*
X154767452Y-111917456D01*
X154681206Y-112032664D01*
X154681202Y-112032671D01*
X154630908Y-112167517D01*
X154624501Y-112227116D01*
X154624500Y-112227135D01*
X154624500Y-113772870D01*
X154624501Y-113772876D01*
X154630908Y-113832483D01*
X154681202Y-113967328D01*
X154681206Y-113967335D01*
X154734315Y-114038278D01*
X154767454Y-114082546D01*
X154855973Y-114148811D01*
X154897843Y-114204744D01*
X154902827Y-114274436D01*
X154869342Y-114335759D01*
X154855973Y-114347343D01*
X154767452Y-114413610D01*
X154681206Y-114528819D01*
X154681202Y-114528826D01*
X154630908Y-114663672D01*
X154624501Y-114723271D01*
X154624500Y-114723290D01*
X154624500Y-116269025D01*
X154624501Y-116269026D01*
X154630908Y-116328638D01*
X154681202Y-116463483D01*
X154681206Y-116463490D01*
X154767452Y-116578699D01*
X154767455Y-116578702D01*
X154882664Y-116664948D01*
X154888051Y-116667890D01*
X154937455Y-116717297D01*
X154952305Y-116785570D01*
X154927886Y-116851034D01*
X154902933Y-116875987D01*
X154860897Y-116907455D01*
X154774651Y-117022664D01*
X154774647Y-117022671D01*
X154724353Y-117157517D01*
X154717946Y-117217116D01*
X154717945Y-117217135D01*
X154717945Y-118782870D01*
X154717946Y-118782876D01*
X154724353Y-118842483D01*
X154774647Y-118977328D01*
X154774651Y-118977335D01*
X154860897Y-119092544D01*
X154860900Y-119092547D01*
X154976109Y-119178793D01*
X154976116Y-119178797D01*
X155110962Y-119229091D01*
X155110961Y-119229091D01*
X155117889Y-119229835D01*
X155170572Y-119235500D01*
X156286317Y-119235499D01*
X156345928Y-119229091D01*
X156480776Y-119178796D01*
X156480780Y-119178792D01*
X156485825Y-119176911D01*
X156555516Y-119171927D01*
X156572493Y-119176911D01*
X156711068Y-119228597D01*
X156711072Y-119228598D01*
X156770600Y-119234999D01*
X156770617Y-119235000D01*
X157078445Y-119235000D01*
X157578445Y-119235000D01*
X157886273Y-119235000D01*
X157886289Y-119234999D01*
X157945817Y-119228598D01*
X157945824Y-119228596D01*
X158080531Y-119178354D01*
X158080538Y-119178350D01*
X158195632Y-119092190D01*
X158195635Y-119092187D01*
X158281795Y-118977093D01*
X158281799Y-118977086D01*
X158332041Y-118842379D01*
X158332043Y-118842372D01*
X158338444Y-118782844D01*
X158338445Y-118782827D01*
X158338445Y-118250000D01*
X157578445Y-118250000D01*
X157578445Y-119235000D01*
X157078445Y-119235000D01*
X157078445Y-116851155D01*
X157578445Y-116851155D01*
X157578445Y-117750000D01*
X158338445Y-117750000D01*
X158338445Y-117217172D01*
X158338444Y-117217155D01*
X158332043Y-117157627D01*
X158332041Y-117157620D01*
X158281799Y-117022913D01*
X158281795Y-117022906D01*
X158195635Y-116907812D01*
X158189363Y-116901540D01*
X158191587Y-116899315D01*
X158159025Y-116855837D01*
X158154025Y-116786146D01*
X158187496Y-116724815D01*
X158231864Y-116696295D01*
X158317086Y-116664509D01*
X158317093Y-116664505D01*
X158432187Y-116578345D01*
X158432190Y-116578342D01*
X158518350Y-116463248D01*
X158518354Y-116463241D01*
X158568596Y-116328534D01*
X158568598Y-116328527D01*
X158574999Y-116268999D01*
X158575000Y-116268982D01*
X158575000Y-115746155D01*
X157750000Y-115746155D01*
X157750000Y-116727155D01*
X157730315Y-116794194D01*
X157677511Y-116839949D01*
X157626000Y-116851155D01*
X157578445Y-116851155D01*
X157078445Y-116851155D01*
X157078445Y-116759000D01*
X157098130Y-116691961D01*
X157150934Y-116646206D01*
X157202445Y-116635000D01*
X157250000Y-116635000D01*
X157250000Y-115246155D01*
X157750000Y-115246155D01*
X158575000Y-115246155D01*
X158575000Y-114878711D01*
X168149500Y-114878711D01*
X168149500Y-115121288D01*
X168178062Y-115338248D01*
X168181162Y-115361789D01*
X168193929Y-115409435D01*
X168243947Y-115596104D01*
X168336773Y-115820205D01*
X168336777Y-115820214D01*
X168343793Y-115832366D01*
X168458064Y-116030289D01*
X168458066Y-116030292D01*
X168458067Y-116030293D01*
X168605733Y-116222736D01*
X168605739Y-116222743D01*
X168777256Y-116394260D01*
X168777262Y-116394265D01*
X168969711Y-116541936D01*
X169179788Y-116663224D01*
X169403900Y-116756054D01*
X169638211Y-116818838D01*
X169798568Y-116839949D01*
X169878711Y-116850500D01*
X169878712Y-116850500D01*
X170121289Y-116850500D01*
X170201432Y-116839949D01*
X170361789Y-116818838D01*
X170596100Y-116756054D01*
X170820212Y-116663224D01*
X171030289Y-116541936D01*
X171222738Y-116394265D01*
X171394265Y-116222738D01*
X171541936Y-116030289D01*
X171663224Y-115820212D01*
X171756054Y-115596100D01*
X171818838Y-115361789D01*
X171850500Y-115121288D01*
X171850500Y-114878712D01*
X171818838Y-114638211D01*
X171756054Y-114403900D01*
X171663224Y-114179788D01*
X171541936Y-113969711D01*
X171456424Y-113858269D01*
X171394266Y-113777263D01*
X171394260Y-113777256D01*
X171222743Y-113605739D01*
X171222736Y-113605733D01*
X171030293Y-113458067D01*
X171030292Y-113458066D01*
X171030289Y-113458064D01*
X170820212Y-113336776D01*
X170820205Y-113336773D01*
X170596104Y-113243947D01*
X170478944Y-113212554D01*
X170361789Y-113181162D01*
X170361788Y-113181161D01*
X170361785Y-113181161D01*
X170121289Y-113149500D01*
X170121288Y-113149500D01*
X169878712Y-113149500D01*
X169878711Y-113149500D01*
X169638214Y-113181161D01*
X169403895Y-113243947D01*
X169179794Y-113336773D01*
X169179785Y-113336777D01*
X168969706Y-113458067D01*
X168777263Y-113605733D01*
X168777256Y-113605739D01*
X168605739Y-113777256D01*
X168605733Y-113777263D01*
X168458067Y-113969706D01*
X168336777Y-114179785D01*
X168336773Y-114179794D01*
X168243947Y-114403895D01*
X168181161Y-114638214D01*
X168149500Y-114878711D01*
X158575000Y-114878711D01*
X158575000Y-114723327D01*
X158574999Y-114723310D01*
X158568598Y-114663782D01*
X158568596Y-114663775D01*
X158518354Y-114529068D01*
X158518350Y-114529061D01*
X158432190Y-114413967D01*
X158343193Y-114347343D01*
X158301323Y-114291409D01*
X158296339Y-114221717D01*
X158329825Y-114160395D01*
X158343194Y-114148810D01*
X158432190Y-114082186D01*
X158518350Y-113967093D01*
X158518354Y-113967086D01*
X158568596Y-113832379D01*
X158568598Y-113832372D01*
X158574999Y-113772844D01*
X158575000Y-113772827D01*
X158575000Y-113250000D01*
X157750000Y-113250000D01*
X157750000Y-115246155D01*
X157250000Y-115246155D01*
X157250000Y-112750000D01*
X157750000Y-112750000D01*
X158575000Y-112750000D01*
X158575000Y-112227172D01*
X158574999Y-112227155D01*
X158568598Y-112167627D01*
X158568596Y-112167620D01*
X158518354Y-112032913D01*
X158518350Y-112032906D01*
X158432190Y-111917812D01*
X158432187Y-111917809D01*
X158317093Y-111831649D01*
X158317086Y-111831645D01*
X158182379Y-111781403D01*
X158182372Y-111781401D01*
X158122844Y-111775000D01*
X157750000Y-111775000D01*
X157750000Y-112750000D01*
X157250000Y-112750000D01*
X157250000Y-111775000D01*
X156877155Y-111775000D01*
X156817627Y-111781401D01*
X156817620Y-111781403D01*
X156682913Y-111831645D01*
X156682912Y-111831646D01*
X156674725Y-111837775D01*
X156609260Y-111862190D01*
X156551325Y-111852375D01*
X156537853Y-111846567D01*
X156517331Y-111831204D01*
X156405279Y-111789411D01*
X156402409Y-111788174D01*
X156377812Y-111767764D01*
X156352233Y-111748615D01*
X156351111Y-111745607D01*
X156348640Y-111743557D01*
X156338981Y-111713087D01*
X156327816Y-111683151D01*
X156327603Y-111677189D01*
X156327528Y-111676953D01*
X156327586Y-111676735D01*
X156327500Y-111674305D01*
X156327500Y-111638195D01*
X156320576Y-111603387D01*
X156320576Y-111603386D01*
X156303386Y-111516966D01*
X156262810Y-111419008D01*
X156256083Y-111402767D01*
X156202422Y-111322458D01*
X156201039Y-111320182D01*
X156192695Y-111288884D01*
X156183022Y-111257991D01*
X156183751Y-111255333D01*
X156183041Y-111252670D01*
X156192940Y-111221836D01*
X156201507Y-111190611D01*
X156203962Y-111187507D01*
X156204400Y-111186145D01*
X156206239Y-111184630D01*
X156219317Y-111168101D01*
X157487411Y-109900008D01*
X157556083Y-109797233D01*
X157603385Y-109683035D01*
X157627500Y-109561803D01*
X157627500Y-109438197D01*
X157627500Y-103938197D01*
X157617071Y-103885768D01*
X157603386Y-103816966D01*
X157556606Y-103704031D01*
X157556296Y-103703084D01*
X157487414Y-103599996D01*
X157487413Y-103599994D01*
X157450568Y-103563149D01*
X157400008Y-103512589D01*
X157014919Y-103127500D01*
X156100013Y-102212593D01*
X156100009Y-102212590D01*
X156100008Y-102212589D01*
X156074664Y-102195655D01*
X156074662Y-102195653D01*
X155997238Y-102143920D01*
X155997226Y-102143913D01*
X155963785Y-102130062D01*
X155883035Y-102096614D01*
X155883027Y-102096612D01*
X155761807Y-102072500D01*
X155761803Y-102072500D01*
X155325694Y-102072500D01*
X155258655Y-102052815D01*
X155212900Y-102000011D01*
X155209512Y-101991833D01*
X155168797Y-101882671D01*
X155168793Y-101882664D01*
X155082547Y-101767455D01*
X155082544Y-101767452D01*
X154967335Y-101681206D01*
X154967328Y-101681202D01*
X154832482Y-101630908D01*
X154832483Y-101630908D01*
X154772883Y-101624501D01*
X154772881Y-101624500D01*
X154772873Y-101624500D01*
X154772864Y-101624500D01*
X153227129Y-101624500D01*
X153227123Y-101624501D01*
X153167516Y-101630908D01*
X153032671Y-101681202D01*
X153032669Y-101681204D01*
X152917456Y-101767452D01*
X152917451Y-101767457D01*
X152876013Y-101822811D01*
X152820079Y-101864682D01*
X152776747Y-101872500D01*
X152519194Y-101872500D01*
X152452155Y-101852815D01*
X152432434Y-101836923D01*
X152382021Y-101799184D01*
X152316504Y-101750138D01*
X152316502Y-101750137D01*
X152316501Y-101750136D01*
X152181655Y-101699842D01*
X152181656Y-101699842D01*
X152122056Y-101693435D01*
X152122054Y-101693434D01*
X152122046Y-101693434D01*
X152122037Y-101693434D01*
X150221066Y-101693434D01*
X150221060Y-101693435D01*
X150161452Y-101699843D01*
X150064404Y-101736039D01*
X149994713Y-101741023D01*
X149977740Y-101736039D01*
X149880692Y-101699843D01*
X149880690Y-101699842D01*
X149821090Y-101693435D01*
X149821088Y-101693434D01*
X149821080Y-101693434D01*
X149821071Y-101693434D01*
X147920100Y-101693434D01*
X147920094Y-101693435D01*
X147860487Y-101699842D01*
X147725642Y-101750136D01*
X147725640Y-101750138D01*
X147692740Y-101774767D01*
X147627276Y-101799184D01*
X147618429Y-101799500D01*
X147431004Y-101799500D01*
X147295677Y-101826418D01*
X147295667Y-101826421D01*
X147168191Y-101879223D01*
X147053450Y-101955890D01*
X147052658Y-101956541D01*
X147052162Y-101956751D01*
X147048393Y-101959270D01*
X147047915Y-101958554D01*
X146988346Y-101983848D01*
X146919479Y-101972049D01*
X146899692Y-101959947D01*
X146789368Y-101877358D01*
X146789366Y-101877357D01*
X146654520Y-101827063D01*
X146654521Y-101827063D01*
X146594921Y-101820656D01*
X146594919Y-101820655D01*
X146594911Y-101820655D01*
X146594902Y-101820655D01*
X145049167Y-101820655D01*
X145049161Y-101820656D01*
X144989554Y-101827063D01*
X144854709Y-101877357D01*
X144854702Y-101877361D01*
X144739493Y-101963607D01*
X144739490Y-101963610D01*
X144653244Y-102078819D01*
X144653241Y-102078824D01*
X144639753Y-102114989D01*
X144597881Y-102170922D01*
X144532417Y-102195339D01*
X144523571Y-102195655D01*
X142034849Y-102195655D01*
X141899522Y-102222573D01*
X141899512Y-102222576D01*
X141772037Y-102275377D01*
X141657299Y-102352042D01*
X138955887Y-105053454D01*
X138924452Y-105100502D01*
X138879228Y-105168183D01*
X138879221Y-105168195D01*
X138826421Y-105295667D01*
X138826418Y-105295677D01*
X138799500Y-105431004D01*
X138799500Y-105431007D01*
X138799500Y-106431006D01*
X138799500Y-106568994D01*
X138799500Y-106568996D01*
X138799499Y-106568996D01*
X134138818Y-106568996D01*
X140170995Y-100536819D01*
X140232318Y-100503334D01*
X140258676Y-100500500D01*
X159741324Y-100500500D01*
X159808363Y-100520185D01*
G37*
%TD.AperFunction*%
%TD*%
M02*
